<svg xmlns="http://www.w3.org/2000/svg" width="623.64" height="464.001" viewBox="0 0 623.64 464.001">
  <g id="_5052518" data-name="5052518" transform="translate(0 -0.05)">
    <g id="Background_Complete" data-name="Background Complete" transform="translate(0 0.05)">
      <rect id="Rectangle_22597" data-name="Rectangle 22597" width="41.31" height="0.312" transform="translate(519.841 428.428)" fill="#ebebeb"/>
      <rect id="Rectangle_22598" data-name="Rectangle 22598" width="10.839" height="0.312" transform="translate(402.285 431.821)" fill="#ebebeb"/>
      <rect id="Rectangle_22599" data-name="Rectangle 22599" width="23.935" height="0.312" transform="translate(494.659 416.854)" fill="#ebebeb"/>
      <rect id="Rectangle_22600" data-name="Rectangle 22600" width="53.87" height="0.312" transform="translate(65.432 418.949)" fill="#ebebeb"/>
      <rect id="Rectangle_22601" data-name="Rectangle 22601" width="7.895" height="0.312" transform="translate(130.416 418.949)" fill="#ebebeb"/>
      <rect id="Rectangle_22602" data-name="Rectangle 22602" width="116.845" height="0.312" transform="translate(163.98 424.213)" fill="#ebebeb"/>
      <path id="Path_102986" data-name="Path 102986" d="M286.157,407.731H45.32a7.122,7.122,0,0,1-7.11-7.122V62.06A7.122,7.122,0,0,1,45.32,55H286.157a7.122,7.122,0,0,1,7.122,7.122V400.609A7.122,7.122,0,0,1,286.157,407.731ZM45.32,55.249a6.81,6.81,0,0,0-6.8,6.81V400.609a6.81,6.81,0,0,0,6.8,6.81H286.157a6.823,6.823,0,0,0,6.81-6.81V62.06a6.823,6.823,0,0,0-6.81-6.81Z" transform="translate(9.449 -55)" fill="#ebebeb"/>
      <path id="Path_102987" data-name="Path 102987" d="M502.472,407.731H261.622a7.134,7.134,0,0,1-7.122-7.122V62.06A7.134,7.134,0,0,1,261.622,55h240.85a7.122,7.122,0,0,1,7.1,7.06V400.609A7.122,7.122,0,0,1,502.472,407.731ZM261.622,55.249a6.823,6.823,0,0,0-6.81,6.81V400.609a6.823,6.823,0,0,0,6.81,6.81h240.85a6.823,6.823,0,0,0,6.81-6.81V62.06a6.823,6.823,0,0,0-6.81-6.81Z" transform="translate(62.933 -55)" fill="#ebebeb"/>
      <rect id="Rectangle_22603" data-name="Rectangle 22603" width="623.64" height="0.312" transform="translate(0 408.36)" fill="#ebebeb"/>
      <path id="Path_102988" data-name="Path 102988" d="M391.728,342.439a.6.6,0,0,1-.212-.461c-.162-3.318-2.145-35.872-22.089-58.173-16.863-18.871.437-5.4,7.945.661a.7.7,0,0,0,1.035-.886c-5.288-8.955-18.572-32.591-13.97-37.194,4.353-4.353,13.346,17.237,17.35,27.715a.7.7,0,0,0,1.347-.324c-1.16-11.076-2.844-34.263,3.405-33.452s4.453,31.444,3.23,46.424a.7.7,0,0,0,1.36.262c2.794-9.217,8.095-22.85,14.331-19.246,9.23,5.351-13.583,24.122-12.148,44.491C394.709,332.224,395.07,345.32,391.728,342.439Z" transform="translate(89.585 -9.178)" fill="#f5f5f5"/>
      <path id="Path_102989" data-name="Path 102989" d="M395.9,346.952c.075,0,.162-.312.125-.536-4.353-27.59,24.858-47.621,45.413-57.6,4.565-2.208,9.3-4.49,13.2-7.883-7.6.511-15.192,3.742-22.451,6.137-.96.324-1.472-.674-.636-1.247,9.3-6.461,35.211-30.234,27.752-37.157-3.38-3.131-21.977,21.678-26.355,26.131-.711.711-1.846.075-1.347-.761,5.775-9.666,7.683-40.137,1.846-39.776-2.495.162-3.418,14.444-4.727,20.256-2.432,10.876-7,21.1-11.774,31.182-.424.886-1.9.736-1.671-.15,1.659-6.66,2.283-26.193-5.925-24.8-5.95,1.023-4.989,12.473-5.051,18.709-.1,10.951-1.01,22.164-5.725,31.918C395.292,317.953,391.3,347.5,395.9,346.952Z" transform="translate(97.384 -10.673)" fill="#f5f5f5"/>
      <path id="Path_102990" data-name="Path 102990" d="M392.314,340.646a.424.424,0,0,0,.137-.312c.112-2.233,1.447-24.085,14.83-39.052,11.313-12.66-.287-3.63-5.326.449a.462.462,0,0,1-.7-.6c3.555-6.012,12.473-21.877,9.367-24.946s-8.943,11.575-11.637,18.609a.461.461,0,0,1-.9-.212c.773-7.484,1.9-23.012-2.295-22.451s-2.993,21.1-2.17,31.182a.464.464,0,1,1-.911.175c-1.871-6.236-5.438-15.342-9.617-12.922-6.236,3.592,9.118,16.215,8.157,29.86C390.318,333.786,390.069,342.579,392.314,340.646Z" transform="translate(94.363 -1.311)" fill="#e6e6e6"/>
      <path id="Path_102991" data-name="Path 102991" d="M410.205,390.343c6.885-25.694,11.425-61.878,11.425-70.783h-51.4c0,8.906,4.54,45.089,11.438,70.783a10.789,10.789,0,0,0,10.44,8h7.646A10.814,10.814,0,0,0,410.205,390.343Z" transform="translate(91.551 10.42)" fill="#e6e6e6"/>
      <path id="Path_102992" data-name="Path 102992" d="M420.037,334.869c.387-3.118.7-5.974.935-8.469h-50.3c.237,2.495.549,5.351.935,8.469Z" transform="translate(91.659 12.112)" fill="#f5f5f5"/>
      <rect id="Rectangle_22604" data-name="Rectangle 22604" width="59.558" height="59.558" transform="translate(134.656 229.001) rotate(180)" fill="#f5f5f5"/>
      <rect id="Rectangle_22605" data-name="Rectangle 22605" width="48.07" height="48.07" rx="4.6" transform="translate(128.906 223.251) rotate(180)" fill="#ebebeb"/>
      <path id="Path_102993" data-name="Path 102993" d="M95.914,195.45a3.617,3.617,0,0,1-3.53,2.869H79.7a3.617,3.617,0,0,1-3.53-2.869Z" transform="translate(18.835 -20.269)" fill="#e0e0e0"/>
      <rect id="Rectangle_22606" data-name="Rectangle 22606" width="59.558" height="59.558" transform="translate(134.656 288.546) rotate(180)" fill="#f0f0f0"/>
      <rect id="Rectangle_22607" data-name="Rectangle 22607" width="48.07" height="48.07" rx="4.6" transform="translate(128.906 282.796) rotate(180)" fill="#fafafa"/>
      <path id="Path_102994" data-name="Path 102994" d="M95.914,243.21a3.617,3.617,0,0,1-3.53,2.869H79.7a3.617,3.617,0,0,1-3.53-2.869Z" transform="translate(18.835 -8.459)" fill="#e0e0e0"/>
      <rect id="Rectangle_22608" data-name="Rectangle 22608" width="59.558" height="59.558" transform="translate(134.656 348.116) rotate(180)" fill="#f5f5f5"/>
      <rect id="Rectangle_22609" data-name="Rectangle 22609" width="48.07" height="48.07" rx="4.6" transform="translate(128.906 342.366) rotate(180)" fill="#ebebeb"/>
      <path id="Path_102995" data-name="Path 102995" d="M95.914,291a3.617,3.617,0,0,1-3.53,2.869H79.7A3.617,3.617,0,0,1,76.17,291Z" transform="translate(18.835 3.358)" fill="#e0e0e0"/>
      <rect id="Rectangle_22610" data-name="Rectangle 22610" width="59.558" height="59.558" transform="translate(134.656 407.686) rotate(180)" fill="#f0f0f0"/>
      <rect id="Rectangle_22611" data-name="Rectangle 22611" width="48.07" height="48.07" rx="4.6" transform="translate(128.906 401.936) rotate(180)" fill="#fafafa"/>
      <path id="Path_102996" data-name="Path 102996" d="M95.914,338.715a3.63,3.63,0,0,1-3.492,2.856H79.7a3.63,3.63,0,0,1-3.53-2.881Z" transform="translate(18.835 15.151)" fill="#e0e0e0"/>
      <rect id="Rectangle_22612" data-name="Rectangle 22612" width="7.297" height="238.256" transform="translate(75.099 407.686) rotate(180)" fill="#e6e6e6"/>
      <rect id="Rectangle_22613" data-name="Rectangle 22613" width="57.961" height="57.961" transform="translate(489.208 45.85)" fill="#f0f0f0"/>
      <rect id="Rectangle_22614" data-name="Rectangle 22614" width="2.744" height="57.961" transform="translate(549.901 103.811) rotate(180)" fill="#e6e6e6"/>
      <rect id="Rectangle_22615" data-name="Rectangle 22615" width="47.471" height="47.471" transform="translate(494.447 51.089)" fill="#e6e6e6"/>
      <rect id="Rectangle_22616" data-name="Rectangle 22616" width="38.142" height="38.142" transform="translate(499.112 55.753)" fill="#fafafa"/>
      <rect id="Rectangle_22617" data-name="Rectangle 22617" width="37.019" height="61.416" transform="translate(511.135 113.066)" fill="#f0f0f0"/>
      <rect id="Rectangle_22618" data-name="Rectangle 22618" width="1.746" height="61.416" transform="translate(549.913 174.482) rotate(180)" fill="#e6e6e6"/>
      <rect id="Rectangle_22619" data-name="Rectangle 22619" width="30.321" height="50.303" transform="translate(514.478 118.616)" fill="#e6e6e6"/>
      <rect id="Rectangle_22620" data-name="Rectangle 22620" width="24.359" height="40.412" transform="translate(517.459 123.568)" fill="#fafafa"/>
      <ellipse id="Ellipse_838" data-name="Ellipse 838" cx="25.993" cy="17.287" rx="25.993" ry="17.287" transform="translate(422.179 43.967)" fill="#e0e0e0"/>
      <ellipse id="Ellipse_839" data-name="Ellipse 839" cx="25.993" cy="17.287" rx="25.993" ry="17.287" transform="translate(423.951 43.967)" fill="#ebebeb"/>
      <ellipse id="Ellipse_840" data-name="Ellipse 840" cx="20.318" cy="13.508" rx="20.318" ry="13.508" transform="translate(429.626 47.746)" fill="#fafafa"/>
    </g>
    <g id="Shadow" transform="translate(69.985 435.812)">
      <ellipse id="_Path_" data-name="&lt;Path&gt;" cx="241.835" cy="14.119" rx="241.835" ry="14.119" fill="#f5f5f5"/>
    </g>
    <g id="Device" transform="translate(85.989 77.154)">
      <path id="Path_102997" data-name="Path 102997" d="M179.54,427.8v4.178a3.916,3.916,0,0,0,3.9,3.916H333.03a3.6,3.6,0,0,0,3.592-3.6V428.24a3.592,3.592,0,0,0-3.592-3.6H295.824a6.81,6.81,0,0,1-6.71-7.97L302.16,341.28H217.208l-36.383,80.5a14.605,14.605,0,0,0-1.285,6.024Z" transform="translate(-41.592 -61.313)" fill="#259f8b"/>
      <path id="Path_102998" data-name="Path 102998" d="M179.917,408a14.669,14.669,0,0,0-.387,3.293v4.191a3.929,3.929,0,0,0,3.916,3.916H333.033a3.6,3.6,0,0,0,3.6-3.6v-4.054a3.6,3.6,0,0,0-3.6-3.6H295.826a6.4,6.4,0,0,1-1.4-.15Z" transform="translate(-41.594 -44.817)" fill="#fff" opacity="0.2"/>
      <path id="Path_102999" data-name="Path 102999" d="M176.97,421.8l36.371-80.5h4.815l-36.383,80.5a14.6,14.6,0,0,0-1.247,6v4.178a3.916,3.916,0,0,0,3.9,3.916h-4.8a3.917,3.917,0,0,1-3.916-3.917v-4.166a14.418,14.418,0,0,1,1.26-6.012Z" transform="translate(-42.539 -61.308)" fill="#259f8b"/>
      <g id="Group_43276" data-name="Group 43276" transform="translate(133.171 279.992)" opacity="0.2">
        <path id="Path_103000" data-name="Path 103000" d="M176.97,421.8l36.371-80.5h4.815l-36.383,80.5a14.6,14.6,0,0,0-1.247,6v4.178a3.916,3.916,0,0,0,3.9,3.916h-4.8a3.917,3.917,0,0,1-3.916-3.917v-4.166a14.418,14.418,0,0,1,1.26-6.012Z" transform="translate(-175.71 -341.3)"/>
      </g>
      <path id="Path_103001" data-name="Path 103001" d="M211.464,286.35h84.952l-3.33,19.233H202.77Z" transform="translate(-35.848 -6.358)" opacity="0.2"/>
      <path id="Path_103002" data-name="Path 103002" d="M112.805,405.251H475.277a11.949,11.949,0,0,0,12.1-13.246L464.451,130.076a14.743,14.743,0,0,0-14.406-13.246H87.56a11.949,11.949,0,0,0-12.086,13.246L98.387,392.005a14.743,14.743,0,0,0,14.419,13.246Z" transform="translate(-67.343 -116.815)" fill="#263238"/>
      <path id="Path_103003" data-name="Path 103003" d="M480.844,314.74l2.495,28.326a11.949,11.949,0,0,1-12.1,13.246h-362.5a14.743,14.743,0,0,1-14.419-13.246L91.83,314.74Z" transform="translate(-63.281 -67.875)" fill="#259f8b"/>
      <path id="Path_103004" data-name="Path 103004" d="M107.412,354.1H469.422a6.5,6.5,0,0,0,6.561-7.2L457.037,130.425a8,8,0,0,0-7.808-7.184H87.218a6.486,6.486,0,0,0-6.561,7.184L99.6,346.9a8,8,0,0,0,7.808,7.2Z" transform="translate(-66.053 -115.23)" fill="#259f8b"/>
      <path id="Path_103005" data-name="Path 103005" d="M107.412,354.1H469.422a6.5,6.5,0,0,0,6.561-7.2L457.037,130.425a8,8,0,0,0-7.808-7.184H87.218a6.486,6.486,0,0,0-6.561,7.184L99.6,346.9a8,8,0,0,0,7.808,7.2Z" transform="translate(-66.053 -115.23)" fill="#259f8b"/>
      <path id="Path_103006" data-name="Path 103006" d="M81.15,116.821h8.008a11.949,11.949,0,0,0-12.086,13.246L99.984,392A14.743,14.743,0,0,0,114.4,405.242h-7.97A14.73,14.73,0,0,1,92.026,392L69.014,130.067A11.949,11.949,0,0,1,81.15,116.821Z" transform="translate(-68.94 -116.818)" fill="#259f8b"/>
      <path id="Path_103007" data-name="Path 103007" d="M81.15,116.821h8.008a11.949,11.949,0,0,0-12.086,13.246L99.984,392A14.743,14.743,0,0,0,114.4,405.242h-7.97A14.73,14.73,0,0,1,92.026,392L69.014,130.067A11.949,11.949,0,0,1,81.15,116.821Z" transform="translate(-68.94 -116.818)" fill="#259f8b" opacity="0.2"/>
      <g id="Group_43277" data-name="Group 43277" transform="translate(26.03 7.998)" opacity="0.3">
        <path id="Path_103008" data-name="Path 103008" d="M89.81,68.28h13.92L152.8,299.139h-13.92Z" transform="translate(-89.81 -68.28)" fill="#fff"/>
        <path id="Path_103009" data-name="Path 103009" d="M161.318,299.139,112.25,68.28h52.311l49.08,230.859Z" transform="translate(-84.261 -68.28)" fill="#fff"/>
      </g>
      <path id="Path_103010" data-name="Path 103010" d="M480.844,314.74l2.495,28.326a11.949,11.949,0,0,1-12.1,13.246h-362.5a14.743,14.743,0,0,1-14.419-13.246L91.83,314.74Z" transform="translate(-63.281 -67.875)" fill="#fff" opacity="0.6"/>
      <path id="Path_103011" data-name="Path 103011" d="M81.151,117h8.008a11.949,11.949,0,0,0-12.086,13.246L99.985,392.176A14.743,14.743,0,0,0,114.4,405.422h-7.97a14.73,14.73,0,0,1-14.406-13.246l-23.012-261.9A11.949,11.949,0,0,1,81.151,117Z" transform="translate(-68.941 -116.773)" fill="#fff" opacity="0.2"/>
    </g>
    <g id="Plant" transform="translate(84.211 316.051)">
      <path id="Path_103012" data-name="Path 103012" d="M119.995,399.679c0,.075.349.449-1.023.536-3.418.224-9.417.15-11.6-2.732-3.093-4.129,4.328-3.929,3.742-6.236s-8.731-.2-10.178-3.467,4.341-2.781,4.116-4.478-6.386.661-8.294-2.794,3.368-1.721,2.495-3.156-7.4-7.322-4.627-8.731,8.955,4.752,11.038,5.376,2.744-5.6,5.438-3.592.611,11.425,3.742,12.473c2.37.811,1.172-2.495,4.116-2.495C122.988,380.508,123.948,393.6,119.995,399.679Z" transform="translate(-60.981 -293.5)" fill="#259f8b"/>
      <g id="Group_43278" data-name="Group 43278" transform="translate(32.964 74.912)" opacity="0.3">
        <path id="Path_103013" data-name="Path 103013" d="M119.995,399.679c0,.075.349.449-1.023.536-3.418.224-9.417.15-11.6-2.732-3.093-4.129,4.328-3.929,3.742-6.236s-8.731-.2-10.178-3.467,4.341-2.781,4.116-4.478-6.386.661-8.294-2.794,3.368-1.721,2.495-3.156-7.4-7.322-4.627-8.731,8.955,4.752,11.038,5.376,2.744-5.6,5.438-3.592.611,11.425,3.742,12.473c2.37.811,1.172-2.495,4.116-2.495C122.988,380.508,123.948,393.6,119.995,399.679Z" transform="translate(-93.945 -368.413)" fill="#fff"/>
      </g>
      <path id="Path_103014" data-name="Path 103014" d="M116.414,401.829c2.632.175,7.234-2.07,9.105-4.378s-3.206-1.048-2.607-2.919,6.748-.2,8.008-2.869-3.243-2.233-3.006-3.6,4.864-.9,6.486-3.742-2.495-1.384-1.846-2.495,6.024-5.974,3.929-7.109-7.11,3.879-8.731,4.39-1.846-3.118-4.016-1.472-.935,9.267-3.442,10.153c-1.858.661-.935-2.769-3.081-1.983C113.446,387.148,115.354,401.767,116.414,401.829Z" transform="translate(-55.779 -291.984)" fill="#259f8b"/>
      <g id="Group_43279" data-name="Group 43279" transform="translate(59.201 82.563)" opacity="0.2">
        <path id="Path_103015" data-name="Path 103015" d="M116.414,401.829c2.632.175,7.234-2.07,9.105-4.378s-3.206-1.048-2.607-2.919,6.748-.2,8.008-2.869-3.243-2.233-3.006-3.6,4.864-.9,6.486-3.742-2.495-1.384-1.846-2.495,6.024-5.974,3.929-7.109-7.11,3.879-8.731,4.39-1.846-3.118-4.016-1.472-.935,9.267-3.442,10.153c-1.858.661-.935-2.769-3.081-1.983C113.446,387.148,115.354,401.767,116.414,401.829Z" transform="translate(-114.98 -374.546)" fill="#fff"/>
      </g>
      <path id="Path_103016" data-name="Path 103016" d="M123.437,383.723c-.112.162.773,1.073-2.245,1.073-7.484,0-20.543-1.035-25.2-8-6.648-9.978,9.554-8.369,8.182-13.72s-18.971-1.746-22.064-9.467,9.529-5.738,9.105-9.654-13.945.586-18-7.646,7.384-3.443,5.638-6.86-15.928-17.886-9.829-20.742,19.383,12.211,23.885,13.945,6.149-12.473,11.961-7.484,1,26.293,7.9,29.236c5.151,2.2,2.607-5.6,9.043-4.989C130.559,340.143,132.2,370.339,123.437,383.723Z" transform="translate(-67.516 -308.352)" fill="#259f8b"/>
      <g id="Group_43280" data-name="Group 43280" opacity="0.3">
        <path id="Path_103017" data-name="Path 103017" d="M123.437,383.723c-.112.162.773,1.073-2.245,1.073-7.484,0-20.543-1.035-25.2-8-6.648-9.978,9.554-8.369,8.182-13.72s-18.971-1.746-22.064-9.467,9.529-5.738,9.105-9.654-13.945.586-18-7.646,7.384-3.443,5.638-6.86-15.928-17.886-9.829-20.742,19.383,12.211,23.885,13.945,6.149-12.473,11.961-7.484,1,26.293,7.9,29.236c5.151,2.2,2.607-5.6,9.043-4.989C130.559,340.143,132.2,370.339,123.437,383.723Z" transform="translate(-67.516 -308.352)" fill="#fff"/>
      </g>
      <path id="Path_103018" data-name="Path 103018" d="M119.793,387.855c6.1.374,16.776-4.839,21.116-10.165s-7.484-2.495-6.049-6.8,15.653-.461,18.6-6.648-7.484-5.189-6.972-8.382,11.288-2.07,15.042-8.619-5.887-3.206-4.278-5.912,13.994-13.857,9.13-16.514-16.526,9.018-20.306,10.215-4.3-7.247-9.33-3.443-2.158,21.516-7.97,23.586c-4.341,1.534-2.17-6.423-7.159-4.6C112.883,353.742,117.323,387.693,119.793,387.855Z" transform="translate(-55.416 -304.377)" fill="#259f8b"/>
      <g id="Group_43281" data-name="Group 43281" transform="translate(61.033 20.048)" opacity="0.2">
        <path id="Path_103019" data-name="Path 103019" d="M119.793,387.855c6.1.374,16.776-4.839,21.116-10.165s-7.484-2.495-6.049-6.8,15.653-.461,18.6-6.648-7.484-5.189-6.972-8.382,11.288-2.07,15.042-8.619-5.887-3.206-4.278-5.912,13.994-13.857,9.13-16.514-16.526,9.018-20.306,10.215-4.3-7.247-9.33-3.443-2.158,21.516-7.97,23.586c-4.341,1.534-2.17-6.423-7.159-4.6C112.883,353.742,117.323,387.693,119.793,387.855Z" transform="translate(-116.449 -324.426)" fill="#fff"/>
      </g>
      <path id="Path_103020" data-name="Path 103020" d="M122.455,404.351h0a.5.5,0,0,0,.449-.524c-4.054-50.1-31.955-71.556-32.23-71.769a.486.486,0,0,0-.674.1.474.474,0,0,0,.087.674c.287.212,27.827,21.428,31.843,71.1A.486.486,0,0,0,122.455,404.351Z" transform="translate(-61.981 -302.513)" fill="#259f8b"/>
      <path id="Path_103021" data-name="Path 103021" d="M97.816,338.183a.462.462,0,0,0,.449-.312.474.474,0,0,0-.274-.624c-.175-.062-4.4-1.584-11.475-.387a.486.486,0,0,0,.162.948,23.511,23.511,0,0,1,10.976.349A.374.374,0,0,0,97.816,338.183Z" transform="translate(-62.9 -301.416)" fill="#259f8b"/>
      <path id="Path_103022" data-name="Path 103022" d="M101.149,348.411a.487.487,0,0,0,.486-.449c.761-15.08-7.484-27.216-7.571-27.34a.486.486,0,0,0-.674-.125.5.5,0,0,0-.125.674c.087.112,8.145,12,7.4,26.742a.486.486,0,0,0,.461.5Z" transform="translate(-61.168 -305.37)" fill="#259f8b"/>
      <path id="Path_103023" data-name="Path 103023" d="M108.95,354.393a.5.5,0,0,0,.337-.137.486.486,0,0,0,0-.686c-.062-.062-6.236-6.3-14.868-3.617a.486.486,0,0,0-.324.611.5.5,0,0,0,.611.312c8.02-2.495,13.832,3.305,13.882,3.368a.486.486,0,0,0,.362.15Z" transform="translate(-60.949 -298.231)" fill="#259f8b"/>
      <path id="Path_103024" data-name="Path 103024" d="M109.383,364.494a.462.462,0,0,0,.437-.274,36.171,36.171,0,0,0,2.32-18.634.474.474,0,0,0-.536-.424.5.5,0,0,0-.424.536,36,36,0,0,1-2.17,18.111.474.474,0,0,0,.237.636A.4.4,0,0,0,109.383,364.494Z" transform="translate(-57.267 -299.251)" fill="#259f8b"/>
      <path id="Path_103025" data-name="Path 103025" d="M115.307,421.591a.5.5,0,0,0,.486-.449l1.16-13.184c3.642-43.842,34.986-72.479,35.311-72.754a.486.486,0,0,0-.649-.723c-.324.287-31.943,29.161-35.622,73.4l-1.172,13.184a.486.486,0,0,0,.449.511Z" transform="translate(-55.819 -301.918)" fill="#259f8b"/>
      <path id="Path_103026" data-name="Path 103026" d="M134.438,348.439h.212l.162-.062a31.307,31.307,0,0,1,12.473-1.883.486.486,0,0,0,.524-.449.5.5,0,0,0-.461-.524,32.616,32.616,0,0,0-12.872,1.858h-.249a.5.5,0,0,0-.274.524.486.486,0,0,0,.486.536Z" transform="translate(-51.089 -299.174)" fill="#259f8b"/>
      <path id="Path_103027" data-name="Path 103027" d="M130.839,357.16h0a.474.474,0,0,0,.461-.511c-.636-13.009,6.511-23.4,6.586-23.5a.479.479,0,1,0-.786-.549c-.075.1-7.484,10.752-6.76,24.1a.474.474,0,0,0,.5.461Z" transform="translate(-51.993 -302.407)" fill="#259f8b"/>
      <path id="Path_103028" data-name="Path 103028" d="M127.093,358.949a.486.486,0,0,0,.337-.125,13.1,13.1,0,0,1,12.211-2.495.5.5,0,0,0,.611-.324.474.474,0,0,0-.324-.6,13.87,13.87,0,0,0-13.159,2.682.474.474,0,0,0,0,.686.487.487,0,0,0,.324.175Z" transform="translate(-52.9 -296.874)" fill="#259f8b"/>
      <path id="Path_103029" data-name="Path 103029" d="M122.628,371.268a.587.587,0,0,0,.212,0,.486.486,0,0,0,.225-.648,31.943,31.943,0,0,1-1.933-16,.5.5,0,0,0-.424-.536.474.474,0,0,0-.536.424,32.43,32.43,0,0,0,2.021,16.526A.486.486,0,0,0,122.628,371.268Z" transform="translate(-54.572 -297.045)" fill="#259f8b"/>
      <path id="Path_103030" data-name="Path 103030" d="M118.288,403.065h.1a.486.486,0,0,0,.374-.574c-3.23-17.262-13.059-24.808-13.159-24.883a.486.486,0,0,0-.674.1.474.474,0,0,0,.1.673c.087.075,9.629,7.409,12.785,24.3a.486.486,0,0,0,.474.387Z" transform="translate(-58.289 -291.249)" fill="#259f8b"/>
      <path id="Path_103031" data-name="Path 103031" d="M108.534,380.788a.486.486,0,0,0,.162-.948,10.539,10.539,0,0,0-5.076-.175.5.5,0,0,0-.4.561.486.486,0,0,0,.561.387,9.979,9.979,0,0,1,4.578.137.437.437,0,0,0,.175.037Z" transform="translate(-58.688 -290.774)" fill="#259f8b"/>
      <path id="Path_103032" data-name="Path 103032" d="M109.965,385.179a.474.474,0,0,0,.474-.461,20.967,20.967,0,0,0-3.305-11.936.486.486,0,0,0-.674-.125.5.5,0,0,0-.125.674,20.443,20.443,0,0,1,3.143,11.338.474.474,0,0,0,.461.511Z" transform="translate(-57.936 -292.472)" fill="#259f8b"/>
      <path id="Path_103033" data-name="Path 103033" d="M113.327,387.751a.5.5,0,0,0,.337-.137.487.487,0,0,0,0-.686,6.848,6.848,0,0,0-6.685-1.621.474.474,0,0,0-.324.6.486.486,0,0,0,.611.324,5.924,5.924,0,0,1,5.7,1.372.486.486,0,0,0,.362.15Z" transform="translate(-57.843 -289.393)" fill="#259f8b"/>
      <path id="Path_103034" data-name="Path 103034" d="M113.516,392.112a.486.486,0,0,0,.437-.274,15.953,15.953,0,0,0,1.023-8.182.474.474,0,0,0-.536-.424.486.486,0,0,0-.424.536,15.342,15.342,0,0,1-.935,7.658.474.474,0,0,0,.225.636.436.436,0,0,0,.212.05Z" transform="translate(-56.261 -289.837)" fill="#259f8b"/>
      <path id="Path_103035" data-name="Path 103035" d="M116.027,403.276a.486.486,0,0,0,.474-.362,52.872,52.872,0,0,1,13.72-23.5.477.477,0,0,0-.636-.711,53.708,53.708,0,0,0-14.082,23.96.486.486,0,0,0,.337.6Z" transform="translate(-55.654 -290.985)" fill="#259f8b"/>
      <path id="Path_103036" data-name="Path 103036" d="M122.3,384.8a.486.486,0,0,1,.337-.561h.062a14.418,14.418,0,0,1,5.675-.848.474.474,0,0,1,.449.511.486.486,0,0,1-.511.449,13.147,13.147,0,0,0-5.276.8h-.2A.486.486,0,0,1,122.3,384.8Zm.237-.511h.1ZM122.689,384.23Z" transform="translate(-53.971 -289.801)" fill="#259f8b"/>
      <path id="Path_103037" data-name="Path 103037" d="M121.23,388.948h0a.486.486,0,0,0,.462-.5,17.824,17.824,0,0,1,2.781-9.978.474.474,0,0,0-.112-.673.486.486,0,0,0-.674.112,18.485,18.485,0,0,0-2.956,10.564.474.474,0,0,0,.5.474Z" transform="translate(-54.359 -291.201)" fill="#259f8b"/>
      <path id="Path_103038" data-name="Path 103038" d="M119.606,389.724a.474.474,0,0,0,.324-.137,5.314,5.314,0,0,1,4.989-1,.483.483,0,0,0,.287-.923,6.236,6.236,0,0,0-5.95,1.247.487.487,0,0,0,0,.674A.512.512,0,0,0,119.606,389.724Z" transform="translate(-54.755 -288.809)" fill="#259f8b"/>
      <path id="Path_103039" data-name="Path 103039" d="M117.7,395.021a.4.4,0,0,0,.2,0,.486.486,0,0,0,.237-.636,13.433,13.433,0,0,1-.811-6.748.5.5,0,0,0-.424-.536.474.474,0,0,0-.536.424,14.045,14.045,0,0,0,.9,7.272.462.462,0,0,0,.437.225Z" transform="translate(-55.47 -288.88)" fill="#259f8b"/>
      <path id="Path_103040" data-name="Path 103040" d="M111.264,421.016h15.429a3.131,3.131,0,0,0,3.268-2l4.116-21.441h-30.2l4.128,21.441A3.118,3.118,0,0,0,111.264,421.016Z" transform="translate(-58.524 -286.288)" fill="#259f8b"/>
      <path id="Path_103041" data-name="Path 103041" d="M101.87,397.52v3.941h3.255l3.38,17.574a3.118,3.118,0,0,0,3.255,2H127.2a3.143,3.143,0,0,0,3.255-2l3.38-17.574h3.742V397.52Z" transform="translate(-59.021 -286.303)" fill="#259f8b"/>
      <path id="Path_103042" data-name="Path 103042" d="M101.87,397.52v3.941h3.255l3.38,17.574a3.118,3.118,0,0,0,3.255,2H127.2a3.143,3.143,0,0,0,3.255-2l3.38-17.574h3.742V397.52Z" transform="translate(-59.021 -286.303)" opacity="0.5"/>
    </g>
    <g id="Resume" transform="translate(213.048 14.431)">
      <rect id="Rectangle_22621" data-name="Rectangle 22621" width="183.126" height="301.917" fill="#259f8b"/>
      <g id="Group_43282" data-name="Group 43282" opacity="0.9">
        <rect id="Rectangle_22622" data-name="Rectangle 22622" width="183.126" height="301.917" fill="#fff"/>
      </g>
      <rect id="Rectangle_22623" data-name="Rectangle 22623" width="1.235" height="158.691" transform="translate(90.827 133.883)" fill="#259f8b"/>
      <rect id="Rectangle_22624" data-name="Rectangle 22624" width="56.178" height="2.956" transform="translate(117.357 212.749)" fill="#263238"/>
      <rect id="Rectangle_22625" data-name="Rectangle 22625" width="56.178" height="2.956" transform="translate(117.357 220.232)" fill="#263238"/>
      <rect id="Rectangle_22626" data-name="Rectangle 22626" width="56.178" height="2.956" transform="translate(117.357 227.728)" fill="#263238"/>
      <rect id="Rectangle_22627" data-name="Rectangle 22627" width="56.178" height="2.956" transform="translate(117.357 235.212)" fill="#263238"/>
      <rect id="Rectangle_22628" data-name="Rectangle 22628" width="24.434" height="2.956" transform="translate(117.357 197.794)" fill="#259f8b"/>
      <rect id="Rectangle_22629" data-name="Rectangle 22629" width="28.089" height="2.956" transform="translate(117.357 212.749)" fill="#259f8b"/>
      <rect id="Rectangle_22630" data-name="Rectangle 22630" width="19.071" height="2.956" transform="translate(117.357 220.232)" fill="#259f8b"/>
      <rect id="Rectangle_22631" data-name="Rectangle 22631" width="44.815" height="2.956" transform="translate(117.357 227.728)" fill="#259f8b"/>
      <rect id="Rectangle_22632" data-name="Rectangle 22632" width="34.051" height="2.956" transform="translate(117.357 235.212)" fill="#259f8b"/>
      <rect id="Rectangle_22633" data-name="Rectangle 22633" width="11.874" height="1.472" transform="translate(100.718 213.485)" fill="#263238"/>
      <rect id="Rectangle_22634" data-name="Rectangle 22634" width="11.874" height="1.472" transform="translate(100.718 220.981)" fill="#263238"/>
      <rect id="Rectangle_22635" data-name="Rectangle 22635" width="11.874" height="1.472" transform="translate(100.718 228.464)" fill="#263238"/>
      <rect id="Rectangle_22636" data-name="Rectangle 22636" width="11.874" height="1.472" transform="translate(100.718 235.961)" fill="#263238"/>
      <path id="Path_103043" data-name="Path 103043" d="M251,228.445l1.1.175a5.862,5.862,0,0,0,.636,1.559l-.624.886a.412.412,0,0,0,0,.536l1.172,1.172a.412.412,0,0,0,.536,0l.886-.624a5.775,5.775,0,0,0,1.547.636l.187,1.1a.4.4,0,0,0,.4.349h1.721a.424.424,0,0,0,.412-.349l.175-1.1a5.861,5.861,0,0,0,1.559-.636l.886.624a.412.412,0,0,0,.536,0l1.16-1.172a.424.424,0,0,0,0-.536l-.636-.886a5.5,5.5,0,0,0,.649-1.559l1.1-.175a.412.412,0,0,0,.349-.412v-1.646a.424.424,0,0,0-.349-.412l-1.1-.175a5.5,5.5,0,0,0-.649-1.559l.636-.886a.424.424,0,0,0,0-.536l-1.16-1.16a.424.424,0,0,0-.536,0l-.886.636a5.5,5.5,0,0,0-1.559-.649l-.175-1.1a.424.424,0,0,0-.412-.349H256.9a.4.4,0,0,0-.4.349l-.187,1.1a5.425,5.425,0,0,0-1.547.649l-.886-.636a.412.412,0,0,0-.536,0l-1.172,1.16a.412.412,0,0,0,0,.536l.624.886a5.861,5.861,0,0,0-.636,1.559l-1.1.175a.424.424,0,0,0-.349.412v1.646a.412.412,0,0,0,.287.412Zm6.71-5.787a4.553,4.553,0,1,1-4.553,4.553A4.553,4.553,0,0,1,257.707,222.657Z" transform="translate(-151.052 -28.53)" fill="#259f8b"/>
      <ellipse id="Ellipse_841" data-name="Ellipse 841" cx="2.694" cy="3.018" rx="2.694" ry="3.018" transform="translate(103.961 258.187)" fill="#259f8b"/>
      <path id="Path_103044" data-name="Path 103044" d="M253,285.292V282.8a3.829,3.829,0,0,1,2.956-3.58l1.247.536,1.073-.574a4.278,4.278,0,0,1,1.9.96,3.592,3.592,0,0,1,1.247,2.657v2.495Z" transform="translate(-150.486 -13.946)" fill="#259f8b"/>
      <rect id="Rectangle_22637" data-name="Rectangle 22637" width="15.628" height="5.688" transform="translate(8.718 213.21)" fill="#259f8b"/>
      <rect id="Rectangle_22638" data-name="Rectangle 22638" width="15.628" height="4.702" transform="translate(8.718 219.796)" fill="#259f8b"/>
      <path id="Path_103045" data-name="Path 103045" d="M188.26,239.369h-.985v-1.746a.948.948,0,0,0-.948-.948h-2.944a.948.948,0,0,0-.948.948v1.746h-.985v-1.746a1.933,1.933,0,0,1,1.933-1.933h2.981a1.946,1.946,0,0,1,1.933,1.933Z" transform="translate(-168.179 -24.7)" fill="#259f8b"/>
      <rect id="Rectangle_22639" data-name="Rectangle 22639" width="15.628" height="5.688" transform="translate(98.835 134.033)" fill="#259f8b"/>
      <rect id="Rectangle_22640" data-name="Rectangle 22640" width="15.628" height="4.503" transform="translate(98.835 140.805)" fill="#259f8b"/>
      <path id="Path_103046" data-name="Path 103046" d="M260.518,175.877h-.985v-1.734a.948.948,0,0,0-.948-.948H255.6a.948.948,0,0,0-.948.948v1.734h-.985v-1.734a1.933,1.933,0,0,1,1.933-1.933h2.981a1.921,1.921,0,0,1,1.933,1.933Z" transform="translate(-150.32 -40.397)" fill="#259f8b"/>
      <path id="Path_103047" data-name="Path 103047" d="M193.511,178.407l-2.682,1.646L186.4,182.76a1.359,1.359,0,0,1-1.31,0l-4.428-2.719-2.682-1.646a.424.424,0,0,1,0-.786l7.11-3.567a1.422,1.422,0,0,1,1.31,0l7.11,3.567a.424.424,0,0,1,0,.8Z" transform="translate(-169.102 -39.984)" fill="#259f8b"/>
      <path id="Path_103048" data-name="Path 103048" d="M190.245,179.7v6.611h0a19.52,19.52,0,0,1-10.165,0h0V179.7l4.428,2.719a1.359,1.359,0,0,0,1.31,0Z" transform="translate(-168.518 -38.545)" fill="#259f8b"/>
      <rect id="Rectangle_22641" data-name="Rectangle 22641" width="0.486" height="8.357" transform="translate(23.499 138.236)" fill="#259f8b"/>
      <path id="Path_103049" data-name="Path 103049" d="M189.18,183.783a.886.886,0,1,0,.886-.873.873.873,0,0,0-.886.873Z" transform="translate(-166.267 -37.752)" fill="#259f8b"/>
      <rect id="Rectangle_22642" data-name="Rectangle 22642" width="24.434" height="2.956" transform="translate(117.357 266.818)" fill="#259f8b"/>
      <rect id="Rectangle_22643" data-name="Rectangle 22643" width="24.434" height="2.956" transform="translate(117.357 140.568)" fill="#259f8b"/>
      <rect id="Rectangle_22644" data-name="Rectangle 22644" width="70.397" height="1.472" transform="translate(103.125 277.121)" fill="#263238"/>
      <rect id="Rectangle_22645" data-name="Rectangle 22645" width="70.397" height="1.472" transform="translate(103.125 283.644)" fill="#263238"/>
      <rect id="Rectangle_22646" data-name="Rectangle 22646" width="14.231" height="1.472" transform="translate(103.125 290.167)" fill="#263238"/>
      <rect id="Rectangle_22647" data-name="Rectangle 22647" width="47.16" height="1.472" transform="translate(28.625 161.086)" fill="#263238"/>
      <rect id="Rectangle_22648" data-name="Rectangle 22648" width="25.457" height="1.472" transform="translate(28.625 167.61)" fill="#263238"/>
      <rect id="Rectangle_22649" data-name="Rectangle 22649" width="47.16" height="1.472" transform="translate(28.625 183.849)" fill="#263238"/>
      <rect id="Rectangle_22650" data-name="Rectangle 22650" width="25.457" height="1.472" transform="translate(28.625 190.36)" fill="#263238"/>
      <rect id="Rectangle_22651" data-name="Rectangle 22651" width="47.16" height="1.472" transform="translate(28.625 241.511)" fill="#263238"/>
      <rect id="Rectangle_22652" data-name="Rectangle 22652" width="25.457" height="1.472" transform="translate(28.625 248.034)" fill="#263238"/>
      <rect id="Rectangle_22653" data-name="Rectangle 22653" width="47.16" height="1.472" transform="translate(28.625 264.299)" fill="#263238"/>
      <rect id="Rectangle_22654" data-name="Rectangle 22654" width="25.457" height="1.472" transform="translate(28.625 270.822)" fill="#263238"/>
      <rect id="Rectangle_22655" data-name="Rectangle 22655" width="70.397" height="1.472" transform="translate(99.171 151.881)" fill="#263238"/>
      <rect id="Rectangle_22656" data-name="Rectangle 22656" width="70.397" height="1.472" transform="translate(99.171 158.405)" fill="#263238"/>
      <rect id="Rectangle_22657" data-name="Rectangle 22657" width="14.231" height="1.472" transform="translate(99.171 164.928)" fill="#263238"/>
      <rect id="Rectangle_22658" data-name="Rectangle 22658" width="24.434" height="2.956" transform="translate(28.762 140.568)" fill="#259f8b"/>
      <rect id="Rectangle_22659" data-name="Rectangle 22659" width="51.051" height="3.742" transform="translate(28.762 152.33)" fill="#263238"/>
      <circle id="Ellipse_842" data-name="Ellipse 842" cx="1.684" cy="1.684" r="1.684" transform="translate(14.967 152.081)" fill="#263238"/>
      <rect id="Rectangle_22660" data-name="Rectangle 22660" width="51.051" height="3.742" transform="translate(28.762 175.081)" fill="#263238"/>
      <circle id="Ellipse_843" data-name="Ellipse 843" cx="1.684" cy="1.684" r="1.684" transform="translate(14.967 174.831)" fill="#263238"/>
      <rect id="Rectangle_22661" data-name="Rectangle 22661" width="51.051" height="3.742" transform="translate(28.762 197.831)" fill="#263238"/>
      <circle id="Ellipse_844" data-name="Ellipse 844" cx="1.684" cy="1.684" r="1.684" transform="translate(14.967 197.582)" fill="#263238"/>
      <rect id="Rectangle_22662" data-name="Rectangle 22662" width="24.434" height="2.956" transform="translate(28.762 220.943)" fill="#259f8b"/>
      <rect id="Rectangle_22663" data-name="Rectangle 22663" width="51.051" height="3.742" transform="translate(28.762 232.693)" fill="#263238"/>
      <circle id="Ellipse_845" data-name="Ellipse 845" cx="1.684" cy="1.684" r="1.684" transform="translate(14.967 232.456)" fill="#263238"/>
      <rect id="Rectangle_22664" data-name="Rectangle 22664" width="51.051" height="3.742" transform="translate(28.762 255.443)" fill="#263238"/>
      <circle id="Ellipse_846" data-name="Ellipse 846" cx="1.684" cy="1.684" r="1.684" transform="translate(14.967 255.206)" fill="#263238"/>
      <rect id="Rectangle_22665" data-name="Rectangle 22665" width="51.051" height="3.742" transform="translate(28.762 278.193)" fill="#263238"/>
      <circle id="Ellipse_847" data-name="Ellipse 847" cx="1.684" cy="1.684" r="1.684" transform="translate(14.967 277.956)" fill="#263238"/>
      <rect id="Rectangle_22666" data-name="Rectangle 22666" width="183.126" height="109.536" transform="translate(0 14.344)" fill="#259f8b"/>
      <g id="Group_43283" data-name="Group 43283" transform="translate(0 14.344)" opacity="0.8">
        <rect id="Rectangle_22667" data-name="Rectangle 22667" width="183.126" height="109.536" fill="#fff"/>
      </g>
      <path id="Path_103050" data-name="Path 103050" d="M198.037,147.624a7.484,7.484,0,1,1-7.484-7.484A7.484,7.484,0,0,1,198.037,147.624Z" transform="translate(-167.778 -48.328)" fill="#fff"/>
      <path id="Path_103051" data-name="Path 103051" d="M214.047,147.624a7.484,7.484,0,1,1-7.484-7.484A7.484,7.484,0,0,1,214.047,147.624Z" transform="translate(-163.819 -48.328)" fill="#fff"/>
      <path id="Path_103052" data-name="Path 103052" d="M229.387,147.624a7.484,7.484,0,1,1-7.484-7.484,7.484,7.484,0,0,1,7.484,7.484Z" transform="translate(-160.026 -48.328)" fill="#fff"/>
      <path id="Path_103053" data-name="Path 103053" d="M244.4,147.624a7.484,7.484,0,1,1-7.484-7.484,7.484,7.484,0,0,1,7.484,7.484Z" transform="translate(-156.314 -48.328)" fill="#fff"/>
      <rect id="Rectangle_22668" data-name="Rectangle 22668" width="3.879" height="1.522" transform="translate(20.792 97.787)" fill="#263238"/>
      <path id="Path_103054" data-name="Path 103054" d="M189.7,151.423H188.18V144.9a2.22,2.22,0,0,1,2.208-2.22h.723v1.534h-.661a.686.686,0,0,0-.686.686Z" transform="translate(-166.515 -47.7)" fill="#263238"/>
      <rect id="Rectangle_22669" data-name="Rectangle 22669" width="1.522" height="4.952" transform="translate(58.66 96.951)" fill="#263238"/>
      <rect id="Rectangle_22670" data-name="Rectangle 22670" width="1.522" height="4.839" transform="translate(61.017 97.063)" fill="#263238"/>
      <path id="Path_103055" data-name="Path 103055" d="M223.046,149.139V149c.15-2.12-.225-2.806-.324-2.869a2.17,2.17,0,0,0-1.709.686l-1.123-1.035a3.667,3.667,0,0,1,2.956-1.172c1.347.1,1.933,1.609,1.721,4.49Z" transform="translate(-158.673 -47.224)" fill="#263238"/>
      <rect id="Rectangle_22671" data-name="Rectangle 22671" width="1.534" height="1.547" rx="0.32" transform="translate(58.635 95.005)" fill="#263238"/>
      <path id="Path_103056" data-name="Path 103056" d="M205.605,148.705a2.183,2.183,0,1,1,2.17-2.183,2.183,2.183,0,0,1-2.17,2.183Zm0-3.592a1.385,1.385,0,1,1,0,.05Z" transform="translate(-162.749 -47.289)" fill="#263238"/>
      <path id="Path_103057" data-name="Path 103057" d="M207.794,151.545h-3.442a2.831,2.831,0,0,1-2.831-2.831v-3.442a2.831,2.831,0,0,1,2.831-2.831h3.442a2.831,2.831,0,0,1,2.819,2.831v3.442a2.831,2.831,0,0,1-2.819,2.831Zm-3.442-8.332a2.058,2.058,0,0,0-2.07,2.058v3.442a2.07,2.07,0,0,0,2.07,2.07h3.442a2.058,2.058,0,0,0,2.058-2.07v-3.442a2.058,2.058,0,0,0-2.058-2.058Z" transform="translate(-163.216 -47.759)" fill="#263238"/>
      <path id="Path_103058" data-name="Path 103058" d="M233.195,149.346a.449.449,0,0,1-.337-.15.424.424,0,0,1-.137-.362v-4.141a.474.474,0,0,1,.474-.474h2.033a1.384,1.384,0,0,1,.973,2.357,1.511,1.511,0,0,1,.237,2.32,1.547,1.547,0,0,1-1.073.424h-2.033Zm.761-.985h1.422a.561.561,0,0,0,.387-.162.547.547,0,0,0-.387-.935h-1.709v1.085Zm-.287-2.345h1.559a.424.424,0,1,0,0-.836h-1.559Z" transform="translate(-155.501 -47.319)" fill="#263238"/>
      <path id="Path_103059" data-name="Path 103059" d="M239.278,147.461H236.7a.5.5,0,0,1-.486-.474,2.083,2.083,0,0,1,.6-1.447,1.659,1.659,0,0,1,1.322-.387,1.8,1.8,0,0,1,1.31.649,1.746,1.746,0,0,1,.3,1.247.474.474,0,0,1-.462.412Zm-2.008-.948h1.484a.375.375,0,0,0-.075-.137.948.948,0,0,0-.636-.274.649.649,0,0,0-.773.412Z" transform="translate(-154.638 -47.092)" fill="#263238"/>
      <path id="Path_103060" data-name="Path 103060" d="M238.041,148.782a1.858,1.858,0,0,1-1.809-2.058v-.474h.96v.474c0,1.035.661,1.123.861,1.123a.886.886,0,0,0,.574-.137v-.337h.948v.474a.847.847,0,0,1,0,.175A1.558,1.558,0,0,1,238.041,148.782Z" transform="translate(-154.635 -46.817)" fill="#263238"/>
      <rect id="Rectangle_22672" data-name="Rectangle 22672" width="66.505" height="2.956" transform="translate(16.763 52.124)" fill="#263238"/>
      <rect id="Rectangle_22673" data-name="Rectangle 22673" width="33.252" height="2.956" transform="translate(16.763 62.663)" fill="#263238"/>
      <rect id="Rectangle_22674" data-name="Rectangle 22674" width="66.505" height="1.472" transform="translate(16.763 73.926)" fill="#263238"/>
      <rect id="Rectangle_22675" data-name="Rectangle 22675" width="33.252" height="1.472" transform="translate(16.763 84.453)" fill="#263238"/>
      <path id="Path_103061" data-name="Path 103061" d="M194.355,94.55v9.791h-2.769v-3.817h-3.742v3.817H185V94.55h2.769v3.742h3.742V94.55Z" transform="translate(-167.301 -59.601)" fill="#259f8b"/>
      <path id="Path_103062" data-name="Path 103062" d="M201.785,100.8h-5.513a1.746,1.746,0,0,0,1.858,1.247,2.42,2.42,0,0,0,1.746-.661l1.4,1.459a4.091,4.091,0,0,1-3.23,1.247c-2.694,0-4.453-1.659-4.453-3.929a3.916,3.916,0,0,1,4.178-3.9,3.742,3.742,0,0,1,4.054,3.929C201.822,100.341,201.8,100.591,201.785,100.8Zm-5.563-1.4h3.106a1.484,1.484,0,0,0-1.547-1.247A1.522,1.522,0,0,0,196.222,99.406Z" transform="translate(-165.177 -59.181)" fill="#259f8b"/>
      <path id="Path_103063" data-name="Path 103063" d="M201.18,94.08h2.657v10.377H201.18Z" transform="translate(-163.3 -59.717)" fill="#259f8b"/>
      <path id="Path_103064" data-name="Path 103064" d="M204.69,94.08h2.657v10.377H204.69Z" transform="translate(-162.432 -59.717)" fill="#259f8b"/>
      <path id="Path_103065" data-name="Path 103065" d="M207.823,100.272A4.291,4.291,0,1,1,212.1,104.2a3.966,3.966,0,0,1-4.278-3.929Zm5.875,0a1.609,1.609,0,1,0-.735,1.559A1.609,1.609,0,0,0,213.7,100.272Z" transform="translate(-161.661 -59.337)" fill="#259f8b"/>
      <path id="Path_103066" data-name="Path 103066" d="M215.4,103.007a1.6,1.6,0,1,1,1.6,1.459,1.5,1.5,0,0,1-1.6-1.459Zm0-8.457h3.243l-.536,6.236H216Z" transform="translate(-159.785 -59.601)" fill="#259f8b"/>
      <rect id="Rectangle_22676" data-name="Rectangle 22676" width="183.126" height="14.344" fill="#259f8b"/>
      <g id="Group_43284" data-name="Group 43284" transform="translate(114.987 73.19)" opacity="0.2">
        <path id="Path_103067" data-name="Path 103067" d="M265,140.339a18.709,18.709,0,0,0,3.879-15.129h-2.133L263,128h0C263.636,131.621,264.347,136.061,265,140.339Z" transform="translate(-263 -125.21)"/>
      </g>
      <path id="Path_103068" data-name="Path 103068" d="M267.125,177.988s.175-13.171-.075-20.119c0-.911-.062-1.721-.112-2.37-.536-7.484-4.016-27.752-4.852-32.566a2.12,2.12,0,0,1,.711-1.958,10.339,10.339,0,0,1,3.006-1.734,27.041,27.041,0,0,1,8.993-1.459,67.612,67.612,0,0,1,6.873.225l1.447.125c2.17.212,4.316.486,6.361.811l2.682.437c1.347.237,2.619.474,3.817.723,2.682.536,4.877,1.048,6.236,1.4h.125a2.046,2.046,0,0,1,.973.561h0a2.021,2.021,0,0,1,.524,1.347l.062,29.186v25.482Z" transform="translate(-148.246 -53.859)" fill="#259f8b"/>
      <g id="Group_43285" data-name="Group 43285" transform="translate(137.863 70.683)" opacity="0.2">
        <path id="Path_103069" data-name="Path 103069" d="M284.209,124.684a1.434,1.434,0,1,1-1.384-1.484,1.434,1.434,0,0,1,1.384,1.484Z" transform="translate(-281.341 -123.199)"/>
      </g>
      <g id="Group_43286" data-name="Group 43286" transform="translate(139.422 82.958)" opacity="0.2">
        <path id="Path_103070" data-name="Path 103070" d="M285.459,134.524a1.459,1.459,0,0,1-1.5,1.384,1.434,1.434,0,1,1,1.5-1.384Z" transform="translate(-282.591 -133.041)"/>
      </g>
      <g id="Group_43287" data-name="Group 43287" transform="translate(140.295 97.786)" opacity="0.2">
        <path id="Path_103071" data-name="Path 103071" d="M286.159,146.414a1.434,1.434,0,1,1-.385-1.029,1.434,1.434,0,0,1,.385,1.029Z" transform="translate(-283.291 -144.929)"/>
      </g>
      <g id="Group_43288" data-name="Group 43288" transform="translate(139.732 112.597)" opacity="0.2">
        <path id="Path_103072" data-name="Path 103072" d="M285.709,158.3a1.435,1.435,0,1,1-1.378-1.49,1.436,1.436,0,0,1,1.378,1.49Z" transform="translate(-282.839 -156.804)"/>
      </g>
      <path id="Path_103073" data-name="Path 103073" d="M276.55,119.416l1.858,2.495L282,124.293l2.158.536,3.355-1,1.472-.15.3-.237c-3.355-2.42-3.118-6.4-1.883-9.816l-9.442-9.878C278.359,108.016,278.446,114.976,276.55,119.416Z" transform="translate(-144.663 -57.326)" fill="#ce7a63"/>
      <g id="Group_43289" data-name="Group 43289" transform="translate(133.459 48.619)" opacity="0.3">
        <path id="Path_103074" data-name="Path 103074" d="M286.267,117.022a13.406,13.406,0,0,1,.823-3.842l-5.775-6.049-3.5-1.621h0a44.021,44.021,0,0,1,0,4.8,12.386,12.386,0,0,0,8.457,6.71Z" transform="translate(-277.81 -105.51)"/>
      </g>
      <path id="Path_103075" data-name="Path 103075" d="M288.026,94.605s5.912,1.11,4.989-3.405c0,0-.349,1.322-6.835.7S288.026,94.605,288.026,94.605Z" transform="translate(-142.892 -60.43)" fill="#263238"/>
      <g id="Group_43290" data-name="Group 43290" transform="translate(140.816 30.77)" opacity="0.9">
        <path id="Path_103076" data-name="Path 103076" d="M288.026,94.605s5.912,1.11,4.989-3.405c0,0-.349,1.322-6.835.7S288.026,94.605,288.026,94.605Z" transform="translate(-283.709 -91.2)"/>
      </g>
      <path id="Path_103077" data-name="Path 103077" d="M276.622,100.771c.175,6.561,0,10.4,3.143,13.857,4.8,5.214,12.972,2.495,14.743-3.979,1.6-5.862,1.023-15.566-5.288-18.372a8.918,8.918,0,0,0-11.812,4.465,8.73,8.73,0,0,0-.786,4.029Z" transform="translate(-144.647 -60.36)" fill="#ce7a63"/>
      <path id="Path_103078" data-name="Path 103078" d="M284.77,100.906c0,.536.249.985.6.985s.636-.412.661-.935-.249-.973-.611-.985S284.782,100.382,284.77,100.906Z" transform="translate(-142.63 -58.261)" fill="#263238"/>
      <path id="Path_103079" data-name="Path 103079" d="M289.59,101.065c0,.536.249.973.6.985s.636-.412.649-.935-.237-.985-.586-.985S289.6,100.529,289.59,101.065Z" transform="translate(-141.438 -58.221)" fill="#263238"/>
      <path id="Path_103080" data-name="Path 103080" d="M283.23,99.007a.624.624,0,0,1-.162,0,.324.324,0,0,1,0-.449,3.118,3.118,0,0,1,2.582-1.247.287.287,0,0,1,.274.337.312.312,0,0,1-.337.287h0a2.494,2.494,0,0,0-2.033.973A.312.312,0,0,1,283.23,99.007Z" transform="translate(-143.073 -58.919)" fill="#263238"/>
      <path id="Path_103081" data-name="Path 103081" d="M291.961,99.451a.287.287,0,0,1-.237-.187,2.5,2.5,0,0,0-1.671-1.459.316.316,0,1,1,.1-.624,3.106,3.106,0,0,1,2.183,1.846.287.287,0,0,1-.15.4h0a.287.287,0,0,1-.224.025Z" transform="translate(-141.389 -58.952)" fill="#263238"/>
      <path id="Path_103082" data-name="Path 103082" d="M288.008,107.42a6.313,6.313,0,0,0,1.085,0,.2.2,0,0,0,.175-.2h0a.2.2,0,0,0-.2-.175,4.989,4.989,0,0,1-4.253-1.7.212.212,0,0,0-.274,0,.187.187,0,0,0,0,.262,5.276,5.276,0,0,0,3.467,1.809Z" transform="translate(-142.7 -56.943)" fill="#263238"/>
      <path id="Path_103083" data-name="Path 103083" d="M288.392,100.66a19.045,19.045,0,0,0,2.332,4.5,2.981,2.981,0,0,1-2.495.387Z" transform="translate(-141.774 -58.09)" fill="#ba4d3c"/>
      <path id="Path_103084" data-name="Path 103084" d="M272.082,119.031c.175-1.5,3.243-4.066,4.989-3.368s4.677,5.089,7.484,5.276,3.48-4.989,4.989-4.515a7,7,0,0,1,3.667,3.193c.524,1.247.5,6.236-.848,5.55,0,0-1.834-3.48-2.993-3.892s-3.305,1.035-4.453,1.035-3.742-1.522-4.864-1.023-2.17,3.742-3.418,3.642C274.814,124.843,271.858,120.889,272.082,119.031Z" transform="translate(-145.77 -54.409)" fill="#259f8b"/>
      <g id="Group_43291" data-name="Group 43291" transform="translate(126.3 61.136)" opacity="0.4">
        <path id="Path_103085" data-name="Path 103085" d="M272.082,119.031c.175-1.5,3.243-4.066,4.989-3.368s4.677,5.089,7.484,5.276,3.48-4.989,4.989-4.515a7,7,0,0,1,3.667,3.193c.524,1.247.5,6.236-.848,5.55,0,0-1.834-3.48-2.993-3.892s-3.305,1.035-4.453,1.035-3.742-1.522-4.864-1.023-2.17,3.742-3.418,3.642C274.814,124.843,271.858,120.889,272.082,119.031Z" transform="translate(-272.07 -115.545)" fill="#fff"/>
      </g>
      <path id="Path_103086" data-name="Path 103086" d="M286.877,146.21c4.39,1.9,7.908-2.058,7.908-2.058l-6.3-4.752-2.956,4.49Z" transform="translate(-142.442 -48.511)" fill="#ce7a63"/>
      <path id="Path_103087" data-name="Path 103087" d="M287.9,84.935l6.286,4.74,2.283-3.081-2.644-4.1Z" transform="translate(-141.856 5.955)" fill="#ce7a63"/>
      <path id="Path_103088" data-name="Path 103088" d="M261.56,124.1c0,3.418,0,6.823.175,10.253.1,2.594.212,5.189.4,7.783s.387,5.2.7,7.845l.112.973v.5l.125.811a8.633,8.633,0,0,0,.661,2.083,6.511,6.511,0,0,0,2.133,2.582A6.236,6.236,0,0,0,269.281,158a7.071,7.071,0,0,0,2.332-.362l22.152-5.962s-1.534-3.742-1.247-4.1c-1.247.2-12.884,1.06-20.418,1.6l.1-1.883c0-.873.923-22.039.923-22.039,0-2.856-3.43-6.311-6.236-6.361a5.239,5.239,0,0,0-5.326,5.214Z" transform="translate(-148.369 -53.583)" fill="#259f8b"/>
      <g id="Group_43292" data-name="Group 43292" transform="translate(113.191 65.307)" opacity="0.1">
        <path id="Path_103089" data-name="Path 103089" d="M261.56,124.1c0,3.418,0,6.823.175,10.253.1,2.594.212,5.189.4,7.783s.387,5.2.7,7.845l.112.973v.5l.125.811a8.633,8.633,0,0,0,.661,2.083,6.511,6.511,0,0,0,2.133,2.582A6.236,6.236,0,0,0,269.281,158a7.071,7.071,0,0,0,2.332-.362l22.152-5.962s-1.534-3.742-1.247-4.1c-1.247.2-12.884,1.06-20.418,1.6l.1-1.883c0-.873.923-22.039.923-22.039,0-2.856-3.43-6.311-6.236-6.361a5.239,5.239,0,0,0-5.326,5.214Z" transform="translate(-261.56 -118.889)" fill="#fff"/>
      </g>
      <path id="Path_103090" data-name="Path 103090" d="M286.4,141.894h.087a.062.062,0,0,0-.087,0Z" transform="translate(-142.227 -47.899)" fill="#259f8b"/>
      <path id="Path_103091" data-name="Path 103091" d="M278.226,107.754s2.495-1.247,2.495-5.987A6.236,6.236,0,0,0,283.477,97s12.473-1.247,10.477-5.65-10.7-6.062-10.7-6.062,2.495,4.453-5.563,7.92-1.709,14.169-1.709,14.169Z" transform="translate(-145.391 -61.891)" fill="#263238"/>
      <path id="Path_103092" data-name="Path 103092" d="M274.634,95.8s-3.642-2.495-2.208-3.829S274.634,95.8,274.634,95.8Z" transform="translate(-145.765 -60.293)" fill="#263238"/>
      <path id="Path_103093" data-name="Path 103093" d="M274,104.6a6.237,6.237,0,0,0,3.742,2.869c2.12.536,3.131-1.36,2.495-3.33-.561-1.771-2.345-4.191-4.453-3.867A2.794,2.794,0,0,0,274,104.6Z" transform="translate(-145.415 -58.193)" fill="#ce7a63"/>
      <path id="Path_103094" data-name="Path 103094" d="M278.238,146.548c-4.39,1.908-7.908-2.046-7.908-2.046l6.236-4.752,2.969,4.478Z" transform="translate(-146.201 -48.424)" fill="#ce7a63"/>
      <path id="Path_103095" data-name="Path 103095" d="M277.069,85.275l-6.286,4.74L268.5,86.946l2.657-4.116Z" transform="translate(-146.653 6.039)" fill="#ce7a63"/>
      <path id="Path_103096" data-name="Path 103096" d="M306.83,149.97l-.1.973v.486l-.125.811a8.727,8.727,0,0,1-.661,2.1A6.311,6.311,0,0,1,303.8,156.9a5.95,5.95,0,0,1-3.218,1.073h-.187a7.185,7.185,0,0,1-2.345-.349l-15.778-4.241-6.411-1.734a.149.149,0,0,0,0-.062,28.918,28.918,0,0,0,1.247-3.492,1.048,1.048,0,0,0,0-.549h.187c.486.075,1.572.175,3.031.287,2.021.175,4.74.387,7.608.586l1.31.1,7.583.561c.237,0,1.671.062,1.908.087l-2.37-23.973c0-.075.137-.15.15-.237a6.486,6.486,0,0,1,1.971-3.892c.112-.125.237-.237.349-.349h.125a4.253,4.253,0,0,1,2.594.736,6.112,6.112,0,0,1,2.669,4.39C304.972,131.809,307.054,148.186,306.83,149.97Z" transform="translate(-144.833 -53.131)" fill="#259f8b"/>
      <g id="Group_43293" data-name="Group 43293" transform="translate(131.027 67.586)" opacity="0.1">
        <path id="Path_103097" data-name="Path 103097" d="M306.83,149.97l-.1.973v.486l-.125.811a8.727,8.727,0,0,1-.661,2.1A6.311,6.311,0,0,1,303.8,156.9a5.95,5.95,0,0,1-3.218,1.073h-.187a7.185,7.185,0,0,1-2.345-.349l-15.778-4.241-6.411-1.734a.149.149,0,0,0,0-.062,28.918,28.918,0,0,0,1.247-3.492,1.048,1.048,0,0,0,0-.549h.187c.486.075,1.572.175,3.031.287,2.021.175,4.74.387,7.608.586l1.31.1,7.583.561c.237,0,1.671.062,1.908.087l-2.37-23.973c0-.075.137-.15.15-.237a6.486,6.486,0,0,1,1.971-3.892c.112-.125.237-.237.349-.349h.125a4.253,4.253,0,0,1,2.594.736,6.112,6.112,0,0,1,2.669,4.39C304.972,131.809,307.054,148.186,306.83,149.97Z" transform="translate(-275.86 -120.716)" fill="#fff"/>
      </g>
      <path id="Path_103098" data-name="Path 103098" d="M276.9,142.234h-.1A.075.075,0,0,1,276.9,142.234Z" transform="translate(-144.601 -47.815)" fill="#259f8b"/>
      <path id="Path_103099" data-name="Path 103099" d="M183.636,72.758a2.046,2.046,0,1,1-.6-1.459,2.058,2.058,0,0,1,.6,1.459Z" transform="translate(-168.656 -65.499)" fill="#fff"/>
      <path id="Path_103100" data-name="Path 103100" d="M189.931,72.758a2.033,2.033,0,1,1-.591-1.458,2.046,2.046,0,0,1,.591,1.458Z" transform="translate(-167.093 -65.499)" fill="#fff"/>
      <path id="Path_103101" data-name="Path 103101" d="M196.241,72.758a2.033,2.033,0,1,1-.591-1.458,2.046,2.046,0,0,1,.591,1.458Z" transform="translate(-165.533 -65.499)" fill="#fff"/>
    </g>
    <g id="Character" transform="translate(363.656 105.034)">
      <path id="Path_103102" data-name="Path 103102" d="M343.282,338.292,341.5,359.034l-11.138-.649.823-21.565Z" transform="translate(-281.965 -21.757)" fill="#ce7a63"/>
      <path id="Path_103103" data-name="Path 103103" d="M419.086,332.02l8.544,18.821-9.779,5.65-9.741-18.984Z" transform="translate(-262.739 -22.944)" fill="#ce7a63"/>
      <path id="Path_103104" data-name="Path 103104" d="M364.267,243.28s-25.594,83.568-30.484,109.187c-3.867,20.231-4.153,82.607-4.153,82.607l14.88,1.247s3.43-30.109,6.885-55.018a182.688,182.688,0,0,1,5.613-26.767c6.062-19.508,28.139-52.935,35.211-72.043,2.495-6.6,3.218-38.254,3.218-38.254Z" transform="translate(-282.145 -113.426)" fill="#263238"/>
      <path id="Path_103105" data-name="Path 103105" d="M347.512,340.524,327.98,338.89l.025,7.583,18.235,1.3Z" transform="translate(-282.553 -21.245)" fill="#259f8b"/>
      <path id="Path_103106" data-name="Path 103106" d="M373.016,265.43l13.134,10.976c-3.056,5.937-16.028,26.093-20.356,33.1C364.3,292.72,373.016,265.43,373.016,265.43Z" transform="translate(-273.245 -107.948)" opacity="0.5"/>
      <path id="Path_103107" data-name="Path 103107" d="M361.11,243.28S377.025,338,385.382,364.391c5.937,18.8,36.6,70.06,36.6,70.06l12.148-6.71s-11.587-27.827-19.632-49.43c-2.744-7.371-6.062-14.019-7.035-18.6-4.141-19.52-2.495-59.869-3.642-79.826-.362-6.324-2.12-35.822-2.12-35.822Z" transform="translate(-274.361 -113.426)" fill="#263238"/>
      <path id="Path_103108" data-name="Path 103108" d="M422.805,332.21l3.181,6.81-15.578,8.694L406.84,341.1Z" transform="translate(-263.053 -22.897)" fill="#259f8b"/>
      <path id="Path_103109" data-name="Path 103109" d="M327.516,409.885a4.228,4.228,0,0,1-3.043-.886,1.06,1.06,0,0,1,0-1.135,1.248,1.248,0,0,1,.773-.611c1.721-.486,5.326,1.759,5.476,1.871a.266.266,0,0,1-.075.486A17.869,17.869,0,0,1,327.516,409.885ZM325.87,407.7a1.96,1.96,0,0,0-.462,0,.686.686,0,0,0-.486.362c-.175.324-.112.486,0,.574.486.723,3.081.773,4.989.549a10.789,10.789,0,0,0-4.041-1.484Z" transform="translate(-283.461 -72.895)" fill="#259f8b"/>
      <path id="Path_103110" data-name="Path 103110" d="M330.1,410.113a.1.1,0,0,1-.1,0c-1.247-.6-3.742-3.031-3.492-4.278,0-.3.237-.661.911-.723a1.783,1.783,0,0,1,1.36.461c1.31,1.185,1.584,4.166,1.6,4.316a.237.237,0,0,1-.112.224A.15.15,0,0,1,330.1,410.113ZM327.6,405.6h-.137c-.449,0-.474.224-.486.287-.062.761,1.559,2.657,2.831,3.48a6.6,6.6,0,0,0-1.36-3.418,1.247,1.247,0,0,0-.848-.337Z" transform="translate(-282.923 -73.41)" fill="#259f8b"/>
      <path id="Path_103111" data-name="Path 103111" d="M333.358,407.892l11.226.137a.936.936,0,0,1,.886.773l2.021,9.854a1.609,1.609,0,0,1-1.135,1.933,1.332,1.332,0,0,1-.312,0c-4.066-.125-7.683-.412-12.735-.461-5.962-.062-4.453.723-11.475.748-4.216,0-4.989-5.164-3.193-5.388,8.207-1.023,9.055-3.667,12.223-6.785a3.48,3.48,0,0,1,2.495-.811Z" transform="translate(-285.087 -72.723)" fill="#263238"/>
      <path id="Path_103112" data-name="Path 103112" d="M413.853,408.859c-1.135.624-2.42,1.048-3.056.723a1,1,0,0,1-.474-1.023,1.347,1.347,0,0,1,.412-.923c1.31-1.247,5.451-1.085,5.638-1.085a.268.268,0,0,1,.137.474,17.375,17.375,0,0,1-2.657,1.834Zm-2.395-1.123a2.069,2.069,0,0,0-.387.287.736.736,0,0,0-.262.561c0,.387.112.486.212.536.736.412,3.043-.848,4.64-2.021a10.713,10.713,0,0,0-4.2.636Z" transform="translate(-262.195 -73.054)" fill="#259f8b"/>
      <path id="Path_103113" data-name="Path 103113" d="M416.255,407.63a.112.112,0,0,1-.087,0c-1.347.075-4.59-.848-4.927-2.058-.112-.287-.087-.711.486-1.11a1.684,1.684,0,0,1,1.4-.262c1.659.387,3.193,2.919,3.268,3.031a.274.274,0,0,1,0,.262.187.187,0,0,1-.137.137Zm-4.178-2.756h-.125c-.374.249-.312.437-.3.5.262.7,2.495,1.584,4,1.671a5.95,5.95,0,0,0-2.682-2.345,1.247,1.247,0,0,0-.9.112Z" transform="translate(-261.978 -73.646)" fill="#259f8b"/>
      <path id="Path_103114" data-name="Path 103114" d="M417.475,406.523l9.978-5.513a.873.873,0,0,1,1.11.249l6.062,7.758a1.684,1.684,0,0,1-.162,2.283,1.244,1.244,0,0,1-.262.187c-3.63,1.921-6.935,3.48-11.413,5.962-5.276,2.919-3.6,2.856-9.779,6.386-3.742,2.12-6.636-2.083-5.151-3.193,6.785-4.989,6.386-7.783,7.833-12.136a3.742,3.742,0,0,1,1.784-1.983Z" transform="translate(-262.899 -74.447)" fill="#263238"/>
      <path id="Path_103115" data-name="Path 103115" d="M350.03,200.352l-10.914,6.885c-.711.748-23.162-21.042-23.162-21.042s-.773-6.773-1.085-7.883l-.761-2.719a5.852,5.852,0,0,1-.15-.935v-.075a4.415,4.415,0,0,0-4.4-4.153h0a4.415,4.415,0,0,0-2.495.748l-5.114,3.418a4.428,4.428,0,0,0-1.846,4.64l11.3,9.654s15.579,29.336,23.511,33.951c7.322,4.266,23.125-12.909,23.125-12.909Z" transform="translate(-289.474 -131.44)" fill="#ce7a63"/>
      <path id="Path_103116" data-name="Path 103116" d="M361.041,187.916c-1.821-2.033-3.8-3.817-7.733-3.53-6.087.424-18.048,14.057-18.048,14.057l10.814,17.225s14.207-12.473,16.489-17.674A8.968,8.968,0,0,0,361.041,187.916Z" transform="translate(-280.753 -127.996)" fill="#259f8b"/>
      <path id="Path_103117" data-name="Path 103117" d="M361.041,187.916c-1.821-2.033-3.8-3.817-7.733-3.53-6.087.424-18.048,14.057-18.048,14.057l10.814,17.225s14.207-12.473,16.489-17.674A8.968,8.968,0,0,0,361.041,187.916Z" transform="translate(-280.753 -127.996)" opacity="0.5"/>
      <path id="Path_103118" data-name="Path 103118" d="M348.974,207.766c-.424-6.86-.674-14.356-.674-14.356l5.189,9.816C352.017,204.785,350.42,206.344,348.974,207.766Z" transform="translate(-277.529 -125.758)" opacity="0.2"/>
      <path id="Path_103119" data-name="Path 103119" d="M368.075,190.124l-5.538-1.921a10.514,10.514,0,0,0-1.172-4.69,26.393,26.393,0,0,0-1.534-2.794l5.214-8.818,3.842-6.461c.761,6.436,2.944,17.35,7.808,21.416Z" transform="translate(-274.677 -132.674)" fill="#ce7a63"/>
      <path id="Path_103120" data-name="Path 103120" d="M359.84,179.428a26.96,26.96,0,0,1,1.534,2.831c2.569-1.547,5.214-5.812,4.59-8.731a13.011,13.011,0,0,0-.911-2.869Z" transform="translate(-274.675 -131.383)" opacity="0.2"/>
      <path id="Path_103121" data-name="Path 103121" d="M406.224,188.731l-1.335,71.544-4.989.761a94.245,94.245,0,0,1-40.424-2.719h0l-11.974-67.7a5.176,5.176,0,0,1,4.989-6.236L401,183.53a5.164,5.164,0,0,1,5.226,5.2Z" transform="translate(-277.753 -128.201)" fill="#259f8b"/>
      <path id="Path_103122" data-name="Path 103122" d="M406.224,188.731l-1.335,71.544-4.989.761a94.245,94.245,0,0,1-40.424-2.719l-11.974-67.7a5.176,5.176,0,0,1,4.989-6.236L401,183.53a5.164,5.164,0,0,1,5.226,5.2Z" transform="translate(-277.753 -128.201)" opacity="0.5"/>
      <path id="Path_103123" data-name="Path 103123" d="M396.735,222.44C382.94,206.512,382.94,195,382.94,195l14.481,4.515Z" transform="translate(-268.963 -125.364)" opacity="0.2"/>
      <path id="Path_103124" data-name="Path 103124" d="M355.734,153.21s-9.068,1.247-7.172-5.75c0,0,.4,2.083,10.29,1.721S355.734,153.21,355.734,153.21Z" transform="translate(-277.528 -137.12)" fill="#263238"/>
      <path id="Path_103125" data-name="Path 103125" d="M355.734,153.21s-9.068,1.247-7.172-5.75c0,0,.4,2.083,10.29,1.721S355.734,153.21,355.734,153.21Z" transform="translate(-277.528 -137.12)" opacity="0.9"/>
      <path id="Path_103126" data-name="Path 103126" d="M375.453,164.348c-2.17,9.23-2.956,14.718-8.482,18.846a12.311,12.311,0,0,1-19.769-9.2c-.6-8.619,3.043-22.251,12.81-24.709a12.473,12.473,0,0,1,15.441,15.042Z" transform="translate(-277.816 -136.783)" fill="#ce7a63"/>
      <path id="Path_103127" data-name="Path 103127" d="M358.482,162.126a1.332,1.332,0,0,1-1.135,1.247c-.5,0-.786-.723-.661-1.484s.636-1.322,1.135-1.247S358.607,161.377,358.482,162.126Z" transform="translate(-275.462 -133.862)" fill="#263238"/>
      <path id="Path_103128" data-name="Path 103128" d="M351.581,161.2a1.311,1.311,0,0,1-1.123,1.247c-.5,0-.786-.723-.674-1.5a1.309,1.309,0,0,1,1.148-1.247C351.444,159.7,351.718,160.436,351.581,161.2Z" transform="translate(-277.167 -134.093)" fill="#263238"/>
      <path id="Path_103129" data-name="Path 103129" d="M354.307,161.5a29.313,29.313,0,0,1-4.727,6,4.428,4.428,0,0,0,3.5,1.247Z" transform="translate(-277.212 -133.648)" fill="#ba4d3c"/>
      <path id="Path_103130" data-name="Path 103130" d="M359.358,167.432a6.71,6.71,0,0,1-5.675,1.8.243.243,0,0,0-.15.462h.087a6.234,6.234,0,0,0,.96.087,6.972,6.972,0,0,0,5.126-2.033.237.237,0,0,0,0-.324" transform="translate(-276.276 -132.184)" fill="#263238"/>
      <path id="Path_103131" data-name="Path 103131" d="M361.305,160.491a.312.312,0,0,0,.212,0,.424.424,0,0,0,.2-.586h0a4.353,4.353,0,0,0-3.343-2.395.449.449,0,0,0-.474.4h0a.449.449,0,0,0,.4.486h0a3.468,3.468,0,0,1,2.594,1.858.412.412,0,0,0,.412.237Z" transform="translate(-275.155 -134.635)" fill="#263238"/>
      <path id="Path_103132" data-name="Path 103132" d="M348.756,158.689a.411.411,0,0,0,.374-.187,3.742,3.742,0,0,1,2.881-1.684.462.462,0,0,0,.374-.524.487.487,0,0,0-.374-.374h0a4.677,4.677,0,0,0-3.6,2.058.449.449,0,0,0,.1.624h0A.324.324,0,0,0,348.756,158.689Z" transform="translate(-277.523 -135.028)" fill="#263238"/>
      <path id="Path_103133" data-name="Path 103133" d="M372.193,133.526l-2.869,5.762-.861,1.247,4.515,45.975-6.024,5.326-6.024-6.162,4.827-45.139-.948-1.809-2.607-5.214,2.058-3.006,5.338-1.2Z" transform="translate(-274.406 -73.07)" fill="#fff" opacity="0.9"/>
      <path id="Path_103134" data-name="Path 103134" d="M378.721,125.86l-9.991,3.842-8.095-3.53-4.266,4.852,4.178,9.991,8.245-8.569,8.17,8.943,5.862-11.176Z" transform="translate(-275.533 -73.923)" fill="#259f8b"/>
      <path id="Path_103135" data-name="Path 103135" d="M378.721,125.86l-9.991,3.842-8.095-3.53-4.266,4.852,4.178,9.991,8.245-8.569,8.17,8.943,5.862-11.176Z" transform="translate(-275.533 -73.923)" opacity="0.3"/>
      <path id="Path_103136" data-name="Path 103136" d="M408.04,201s10.976,14.967,10.627,20.742c-.561,9.292-20.855,30.883-20.855,30.883l-2.495,8.12a4.129,4.129,0,0,1-1.958,2.382l-6.523,3.567a4.116,4.116,0,0,1-5.426-1.372l-1.509-2.345a4.116,4.116,0,0,1,.387-4.989l2.495-2.869a3.623,3.623,0,0,1,.387-.374l8.357-5.663s6.548-11.65,10.14-20.056a22.45,22.45,0,0,0,2.22-8.07c0-4.453-7.908-15.965-7.908-15.965Z" transform="translate(-269.878 -123.881)" fill="#ce7a63"/>
      <path id="Path_103137" data-name="Path 103137" d="M385.73,184.581c2.233-1.584,7.484-1.247,9.853,0,6.423,3.318,16.776,22.451,16.776,22.451l-18.634,10.215s-11.126-16.739-11.662-23.374C381.876,191.129,383.51,186.165,385.73,184.581Z" transform="translate(-269.183 -128.204)" fill="#259f8b"/>
      <path id="Path_103138" data-name="Path 103138" d="M385.73,184.581c2.233-1.584,7.484-1.247,9.853,0,6.423,3.318,16.776,22.451,16.776,22.451l-18.634,10.215s-11.126-16.739-11.662-23.374C381.876,191.129,383.51,186.165,385.73,184.581Z" transform="translate(-269.183 -128.204)" opacity="0.5"/>
      <rect id="Rectangle_22677" data-name="Rectangle 22677" width="3.692" height="1.322" transform="translate(0 48.901) rotate(-9.7)" fill="#263238"/>
      <rect id="Rectangle_22678" data-name="Rectangle 22678" width="3.692" height="1.322" transform="translate(0 48.901) rotate(-9.7)" fill="#fff" opacity="0.2"/>
      <rect id="Rectangle_22679" data-name="Rectangle 22679" width="12.286" height="1.946" transform="translate(3.231 48.045) rotate(-9.7)" fill="#263238"/>
      <rect id="Rectangle_22680" data-name="Rectangle 22680" width="12.286" height="1.946" transform="translate(3.231 48.045) rotate(-9.7)" fill="#fff" opacity="0.4"/>
      <rect id="Rectangle_22681" data-name="Rectangle 22681" width="15.204" height="2.42" transform="translate(14.259 45.905) rotate(-9.7)" fill="#263238"/>
      <rect id="Rectangle_22682" data-name="Rectangle 22682" width="15.204" height="2.42" transform="translate(14.259 45.905) rotate(-9.7)" fill="#fff" opacity="0.5"/>
      <rect id="Rectangle_22683" data-name="Rectangle 22683" width="1.572" height="2.919" transform="translate(28.953 43.143) rotate(-9.7)" fill="#259f8b"/>
      <path id="Path_103139" data-name="Path 103139" d="M372.816,174.605s-3.592-2.1-3.131-9.554a9.6,9.6,0,0,1-3.742-7.658s-18.709-3.081-15.354-9.779,16.826-8.444,16.826-8.444-4.278,6.7,7.683,12.835,1.172,22.239,1.172,22.239Z" transform="translate(-277.062 -139.17)" fill="#263238"/>
      <path id="Path_103140" data-name="Path 103140" d="M373.93,156.226s5.775-3.43,3.742-5.762S373.93,156.226,373.93,156.226Z" transform="translate(-271.191 -136.482)" fill="#263238"/>
      <path id="Path_103141" data-name="Path 103141" d="M373.2,169.045a8.407,8.407,0,0,1-4.553,4.091c-2.607.948-3.979-1.36-3.305-3.916.624-2.332,2.707-5.6,5.351-5.438S374.362,166.637,373.2,169.045Z" transform="translate(-273.356 -133.086)" fill="#ce7a63"/>
    </g>
  </g>
</svg>
