<svg xmlns="http://www.w3.org/2000/svg" width="901.906" height="670.352" viewBox="0 0 901.906 670.352">
  <g id="Group_42445" data-name="Group 42445" transform="translate(-151 -207.823)">
    <path id="Background" d="M946,500.975c0-77.613,67.01-168.239,181.678-176.736,62.494-4.17,109.349,19.894,179.346-48.2s89.025-104.789,175.432-136.131c46.963-17.035,133.12-21.066,213.333,63.272,56.584,59.494,102.8,153.648,105.97,240.09,6,163.7-101.748,260.715-258.814,260.715-71.288,0-138.9-16.124-221.083-12.733s-159.906,15.168-215.5,3.392C993.621,670.76,946,578.588,946,500.975Z" transform="translate(-795 148)" fill="#fff" opacity="0.051"/>
    <g id="_1905.i121.055..isometric_geology_concept_banner_Converted_" data-name="1905.i121.055..isometric geology concept banner [Converted]" transform="translate(198 207.824)">
      <path id="Path_77999" data-name="Path 77999" d="M305.186,239.588a109.307,109.307,0,0,1,13.442-12.845,150.43,150.43,0,0,1,18.687-12.905c51.025-28.85,117.517-35.5,160.108-15.2s113.255,82.5,143.655,118.322c13.5,15.945,13.2,28.582,8.941,39.1a34.427,34.427,0,0,1-6.706,9.269c-15.8,16.72-51.948,38-61.635,40.8-19.373,5.6-46.226,8.047-81.723-1.967C437.9,386.67,335.765,352.128,303.845,322.86,270.911,292.758,269.242,267.156,305.186,239.588Z" transform="translate(179.793 18.037)" fill="#e2d7d7" opacity="0.5"/>
      <path id="Path_78000" data-name="Path 78000" d="M538.262,268.221l58.327-33.679c11.027-6.348,9.627-17.465-2.98-24.8l-88.965-51.382c-12.726-7.332-31.95-8.136-42.977-1.788L403.25,190.164c-11.028,6.348-9.656,17.465,2.98,24.8L495.2,266.343C508.041,273.765,527.264,274.569,538.262,268.221Z" transform="translate(-120.641 -50.504)" fill="#e2d7d7" opacity="0.5"/>
      <path id="Path_78001" data-name="Path 78001" d="M323.9,345.407,469.43,261.39,210.283,112.34,64.78,196.357Z" transform="translate(192.406 222.477)" fill="#e2d7d7" opacity="0.5"/>
      <path id="Path_78002" data-name="Path 78002" d="M106.79,216.371l79.487,45.868,91.737-52.962-79.458-45.9Z" transform="translate(258.614 323.557)" fill="#7daf35"/>
      <path id="Path_78003" data-name="Path 78003" d="M107.58,203.652l79.487,45.9,91.767-52.992L199.347,150.69Z" transform="translate(255.44 298.426)" fill="#43c9ec"/>
      <path id="Path_78004" data-name="Path 78004" d="M67.34,184.861,146.8,230.73l91.767-52.992L159.107,131.87Z" transform="translate(415.642 261.154)" fill="#ff703e"/>
      <path id="Path_78005" data-name="Path 78005" d="M474.558,295.824c-9.835-7.272-6.438-9.925-.328-13.442h.358l.209-.209c6.14-3.547,10.7-5.514,23.307.179,10.819,4.888,39.252,19.075,39.252,19.075l-15.17,8.762-3.725,2.146-10.849,6.289S483.022,302.083,474.558,295.824Z" transform="translate(-270.244 199.965)" fill="#e2d7d7" opacity="0.5"/>
      <path id="Path_78006" data-name="Path 78006" d="M433.061,342.006c-13.084-7.779-16.452-13.442-13.144-18.627,4.2-6.587,10.968-12.4,26.407-21.578h0l.924-.507.894-.536h0c15.915-8.941,25.959-12.846,37.374-15.26,8.941-1.908,18.806,0,32.248,7.6,17.733,9.955,110.722,72.185,124.7,85.835,8.017,7.809,3.249,11.713-2.265,14.9l-16.333,9.418c-8.554,4.977-12.071,6.974-16.3,9.418-5.543,3.189-12.279,5.961-25.81,1.311C558.089,405.935,450.287,352.258,433.061,342.006Z" transform="translate(-231.697 211.93)" fill="#e2d7d7" opacity="0.5"/>
      <path id="Path_78007" data-name="Path 78007" d="M38.166,268l132.419-76.417,17.2-19.641L154.7,182.4,22.31,258.848Z" transform="translate(600.631 340.509)" fill="#e2d7d7" opacity="0.5"/>
      <path id="Path_78008" data-name="Path 78008" d="M43.406,282.428,175.8,206.011l17.227-19.641-33.082,10.461L27.52,273.278Z" transform="translate(579.864 369.086)" fill="#e2d7d7" opacity="0.5"/>
      <path id="Path_78009" data-name="Path 78009" d="M203.206,162.348,335.6,85.931,352.822,66.29,319.74,76.751,187.35,153.2Z" transform="translate(-56.295 131.28)" fill="#e2d7d7" opacity="0.5"/>
      <path id="Path_78010" data-name="Path 78010" d="M439.014,166.814,46.167,393.115,0,366.471,392.907,139.99Z" transform="translate(415.893 277.235)" fill="#e2d7d7" opacity="0.5"/>
      <path id="Path_78011" data-name="Path 78011" d="M480.677,345.34l-21.906,12.428c-6.527-3.338-13.114-6.557-19.522-10.133,6.855-2.98,15.051-7,20.088-9.537L484.1,324.954h0l85.061-49.028a182.957,182.957,0,0,1,28.075-23.307c15.409-10.1,31.235-16.482,45.988-24.976,10.64-6.169,34.662-23.843,47.09-32.993A16.094,16.094,0,0,1,706,193.369l22.025,12.7c4.143,2.414,2.98,6.676-2.235,8.941-16,7.183-46.494,21.042-57.134,27.211-14.753,8.494-25.751,17.644-43.275,26.526a320.325,320.325,0,0,1-40.355,16.213l-86.938,50.279h0L480.617,345.28Z" transform="translate(-376.653 27.955)" fill="#e2d7d7" opacity="0.5"/>
      <path id="Path_78012" data-name="Path 78012" d="M519.326,229.89s14.664,26.138,27.539,36.391c9.686,7.69,19.224,12.846,32.486,8.2,1.848-.656,4.083-1.55,6.438-2.563,6.766,4.2,13.859,7.958,20.863,11.534l-4.56,2.623c-9.3,5.335-8.524,11.087.8,12.637,6.8,1.133,16.362-3.576,16.362-3.576l18.538,10.7-23.426,13.531A177.813,177.813,0,0,1,560.932,299.9C504.99,267.532,519.326,229.89,519.326,229.89Z" transform="translate(-517.68 103.169)" fill="#e2d7d7" opacity="0.5"/>
      <path id="Path_78013" data-name="Path 78013" d="M406.8,344.285a104.734,104.734,0,0,1,17.435-9.895,24.171,24.171,0,0,1,15.438-.3l1.192-.387s26.168,8.524,35.765,10.938l3.517.835c9.6-2.027,16.9-3.875,16.988-3.9-3.457-2.831-6.974-5.573-10.64-8.137l80.709-46.613a188.307,188.307,0,0,1,28.85-23.843c15.856-10.4,32.129-16.929,47.269-25.661,10.938-6.348,35.765-24.409,48.4-33.917a16.6,16.6,0,0,1,16.094-1.341l11.326,6.557,11.326,6.527c4.232,2.444,3.159,6.855-2.295,9.3-16.452,7.391-47.686,21.608-58.744,27.956C654.3,261.132,642.972,270.52,625,279.67a331.685,331.685,0,0,1-41.606,16.571l-81.842,47.24c3.547,2.98,7.064,5.812,10.551,8.792a50.81,50.81,0,0,0-6.527,8.017c.447.656.894,1.311,1.341,1.907,4.173,5.514,18.985,20.624,18.985,20.624a4.75,4.75,0,0,0-1.729.477c.894,7.332.388,5.961-3.219,8.733a103.159,103.159,0,0,1-14.9,8.4c-6.855,3.368-12.935,4.083-14.9,2.086l-1.162.984s-29.506-4.173-53.647-18.121-31.354-30.966-31.354-30.966l.715-.715C403.765,351.2,402.155,347.445,406.8,344.285Z" transform="translate(-273.484 45.133)" fill="#e2d7d7" opacity="0.5"/>
      <path id="Path_78014" data-name="Path 78014" d="M501.775,240s-.536,24.022-.6,28.344c-.566,3.875,4.381,7.54,4.381,7.54s35.377-18.419,30.817-20.416a22.532,22.532,0,0,0-16.034-.268,77.245,77.245,0,0,0-8.673,4.411l1.52-17.644Z" transform="translate(-367.352 123.191)" fill="#e2d7d7"/>
      <path id="Path_78015" data-name="Path 78015" d="M505.431,257.227s-8.941-6.5-1.609-11.385a96.594,96.594,0,0,1,16.392-9.3,22.532,22.532,0,0,1,16.034.268C540.809,238.808,505.431,257.227,505.431,257.227Z" transform="translate(-366.627 113.683)" fill="#d3c5c5"/>
      <path id="Path_78016" data-name="Path 78016" d="M522.2,201.959c-11.922,8.941-35.169,25.9-45.481,31.831-14.216,8.226-29.476,14.366-44.378,24.111a177.5,177.5,0,0,0-27.092,22.5l7.779,4.441,7.66,4.411a307.7,307.7,0,0,0,38.954-15.647c16.9-8.584,27.539-17.406,41.726-25.6,10.282-5.961,39.7-19.313,55.137-26.257,2.98-1.282,4.411-3.159,4.56-4.948l.238-10.849-15.349-3.159.3,2.98-8.941-5.1a15.558,15.558,0,0,0-15.111,1.282Z" transform="translate(-106.1 42.582)" fill="#ef2222"/>
      <path id="Path_78017" data-name="Path 78017" d="M522.24,198.345c-11.922,8.941-35.169,25.9-45.481,31.831-14.216,8.2-29.476,14.366-44.378,24.111a178.286,178.286,0,0,0-27.092,22.472l15.319,8.941a312.932,312.932,0,0,0,38.954-15.647c16.9-8.584,27.539-17.406,41.726-25.632,10.282-5.961,39.7-19.313,55.138-26.228,5.156-2.325,6.169-6.438,2.176-8.733l-10.64-6.14-10.64-6.14a15.468,15.468,0,0,0-15.081,1.162Z" transform="translate(-105.96 35.556)" fill="#ff4222"/>
      <path id="Path_78018" data-name="Path 78018" d="M196.748,113.642l-.179,10.64L181.28,115.46l.179-10.67Z" transform="translate(117.87 207.525)" fill="#ff5d31"/>
      <path id="Path_78019" data-name="Path 78019" d="M224.9,129.872l-.179,10.64L209.43,131.69l.179-10.64Z" transform="translate(5.822 239.727)" fill="#f7f0f0"/>
      <path id="Path_78020" data-name="Path 78020" d="M265.357,107.76l-.179,10.64-83.9,48.432.179-10.64Z" transform="translate(49.261 213.407)" fill="#d3c5c5"/>
      <path id="Path_78021" data-name="Path 78021" d="M181.28,153.251l15.289,8.822,83.9-48.432-15.289-8.852Z" transform="translate(34.151 207.525)" fill="#e2d7d7"/>
      <path id="Path_78022" data-name="Path 78022" d="M515.727,264.664a41.99,41.99,0,0,1,9.209-12.369c0-1.162.149-7.928,0-10.67-5.514-3.189-14.9,1.431-14.9,1.431s-15.23,3.845-30.221,6.438C469.561,251.282,515.727,264.664,515.727,264.664Z" transform="translate(-287.6 124.188)" fill="#3f2a28"/>
      <path id="Path_78023" data-name="Path 78023" d="M515.738,259.607a46.107,46.107,0,0,1,9.627-12.786l-15.319-8.941s-15.23,3.845-30.192,6.438C469.571,246.2,515.738,259.607,515.738,259.607Z" transform="translate(-288.058 118.992)" fill="#513736"/>
      <path id="Path_78024" data-name="Path 78024" d="M474.41,242v30.43s6.765,16,29.446,29.089a159.8,159.8,0,0,0,50.4,17.018,101.96,101.96,0,0,0,18.777-8.047,78.084,78.084,0,0,0,14.9-11.385s-13.919-14.187-17.882-19.343a87.544,87.544,0,0,1-7.362-12.25s-12.249-2-21.191-4.262-33.559-10.282-33.559-10.282-3.9,1.282-8.941,3.368Z" transform="translate(-338.854 127.151)" fill="#ef2222"/>
      <path id="Path_78025" data-name="Path 78025" d="M474.37,270.6l.149,30.43a74.507,74.507,0,0,0,18.777-8.047A179.177,179.177,0,0,0,508.2,281.6v-30.43a33.739,33.739,0,0,0-22.234,4.262C474.4,262.05,474.37,270.6,474.37,270.6Z" transform="translate(-258.999 144.536)" fill="#ef2222"/>
      <path id="Path_78026" data-name="Path 78026" d="M474.37,254.932s6.765,16,29.417,29.089a160.7,160.7,0,0,0,50.4,17.018,142.4,142.4,0,0,1,17.882-12.726,63.752,63.752,0,0,1,15.945-6.706s-13.918-14.217-17.882-19.373a88.028,88.028,0,0,1-7.361-12.22s-12.279-2-21.221-4.262-33.53-10.282-33.53-10.282a120.461,120.461,0,0,0-19.671,8.613A61.87,61.87,0,0,0,474.37,254.932Z" transform="translate(-338.814 114.219)" fill="#ff4222"/>
      <path id="Path_78027" data-name="Path 78027" d="M423.907,206.087c2.98-1.729,3.308-4.351.715-5.961a11.3,11.3,0,0,0-10.133.417c-2.98,1.729-3.308,4.351-.715,5.961A11.3,11.3,0,0,0,423.907,206.087Z" transform="translate(8.646 42.239)" fill="#3f2a28"/>
      <path id="Path_78028" data-name="Path 78028" d="M204.289,113.642l-7.66,4.411-15.349-8.822L189,104.79Z" transform="translate(110.33 207.525)" fill="#513736"/>
      <path id="Path_78029" data-name="Path 78029" d="M188.94,107.76l-7.66,4.411v10.551l7.481-4.322Z" transform="translate(125.679 213.407)" fill="#3f2a28"/>
      <path id="Path_78030" data-name="Path 78030" d="M224.137,124.47l43.007,24.857-7.958,4.59L216.15,129.06Z" transform="translate(-56.453 246.5)" fill="#ffd039"/>
      <path id="Path_78031" data-name="Path 78031" d="M214.34,128.04,244.5,145.445l7.958-4.59L222.3,123.42Z" transform="translate(-36.373 244.42)" fill="#fff"/>
      <path id="Path_78032" data-name="Path 78032" d="M235.454,83.9l9.031,5.216-89.174,51.471-9.031-5.216Z" transform="translate(174.448 166.155)" fill="#ffd039"/>
      <path id="Path_78033" data-name="Path 78033" d="M474.97,269.187v26.824s3.308,4.739,11.624.656a107.051,107.051,0,0,0,14.664-9.09c3.517-2.742,3.427-3.845,3.427-8.673V252.08a91.739,91.739,0,0,0-16,7.362,124.525,124.525,0,0,0-13.71,9.746Z" transform="translate(-257.274 147.114)" fill="#e2d7d7"/>
      <path id="Path_78034" data-name="Path 78034" d="M475,268.979s3.308,4.769,11.624.686a107.29,107.29,0,0,0,14.664-9.12c3.517-2.742,3.517-3.636,3.517-8.464a75.46,75.46,0,0,0-18.27,8.047A41.455,41.455,0,0,0,475,268.979Z" transform="translate(-257.483 147.114)" fill="#d3c5c5"/>
      <path id="Path_78035" data-name="Path 78035" d="M557.161,193.591c-11.922,8.941-35.169,25.9-45.451,31.861-14.217,8.2-29.506,14.336-44.378,24.082a175.84,175.84,0,0,0-27.092,22.5l7.63,4.411,7.66,4.441a312.373,312.373,0,0,0,38.984-15.647c16.869-8.613,27.509-17.435,41.726-25.632,10.312-5.961,39.7-19.313,55.167-26.257,2.98-1.282,4.411-3.159,4.53-4.947l.238-10.849L580.855,194.4l.3,2.98-8.941-5.126a15.677,15.677,0,0,0-15.051,1.341Z" transform="translate(-245.255 26.004)" fill="#ef2222"/>
      <path id="Path_78036" data-name="Path 78036" d="M557.16,189.96c-11.922,8.941-35.169,25.9-45.451,31.831-14.216,8.226-29.506,14.366-44.378,24.111a175.842,175.842,0,0,0-27.092,22.5l15.29,8.941A307.248,307.248,0,0,0,494.511,261.7c16.869-8.584,27.509-17.406,41.726-25.6,10.312-5.961,39.7-19.343,55.167-26.257,5.126-2.295,6.14-6.438,2.146-8.733l-10.61-6.14-10.64-6.14a15.617,15.617,0,0,0-15.141,1.132Z" transform="translate(-245.075 18.995)" fill="#ff4222"/>
      <path id="Path_78037" data-name="Path 78037" d="M231.728,105.272l-.179,10.64L216.23,107.09l.179-10.67Z" transform="translate(-21.275 190.949)" fill="#ff5d31"/>
      <path id="Path_78038" data-name="Path 78038" d="M259.878,121.5l-.179,10.67L244.38,123.32l.179-10.64Z" transform="translate(-133.323 223.151)" fill="#f7f0f0"/>
      <path id="Path_78039" data-name="Path 78039" d="M300.307,99.39l-.179,10.64-83.9,48.461.179-10.67Z" transform="translate(-89.854 196.831)" fill="#d3c5c5"/>
      <path id="Path_78040" data-name="Path 78040" d="M216.23,144.881l15.319,8.822,83.9-48.431L300.128,96.42Z" transform="translate(-104.995 190.949)" fill="#e2d7d7"/>
      <path id="Path_78041" data-name="Path 78041" d="M458.831,197.717c2.98-1.729,3.338-4.351.745-5.961a11.3,11.3,0,0,0-10.133.417c-2.98,1.729-3.308,4.351-.715,5.961a11.147,11.147,0,0,0,10.1-.417Z" transform="translate(-130.473 25.663)" fill="#3f2a28"/>
      <path id="Path_78042" data-name="Path 78042" d="M239.239,105.272l-7.66,4.411-15.349-8.792,7.689-4.471Z" transform="translate(-28.785 190.949)" fill="#513736"/>
      <path id="Path_78043" data-name="Path 78043" d="M223.919,99.39l-7.66,4.411-.03,10.58,7.511-4.351Z" transform="translate(-13.466 196.831)" fill="#3f2a28"/>
      <path id="Path_78044" data-name="Path 78044" d="M552.45,263.279C541.094,254.338,519.4,232.76,519.4,232.76s-3.785,31.622,45.541,60.085a155.667,155.667,0,0,0,46.971,17.108L632.5,298.031l-16.273-9.418s-8.435,4.143-14.425,3.159c-8.2-1.371-12.339-7.242-5.216-13.412,2.474-2.146,27.271-20,27.271-20L624.4,244,585.234,258l2.742,9.508c-2.563,1.192-4.977,2.235-6.974,2.98C569.319,274.545,560.944,270.015,552.45,263.279Z" transform="translate(-517.304 108.853)" fill="#d3c5c5"/>
      <path id="Path_78045" data-name="Path 78045" d="M522.98,226l.417,23.843s29.625,41.1,48.461,49.773,51.8,13.859,51.8,13.859l1.937-16.184s-45.3-5.961-62.2-20.535S522.98,226,522.98,226Z" transform="translate(-521.274 95.465)" fill="#d3c5c5"/>
      <path id="Path_78046" data-name="Path 78046" d="M612.038,303.192a156.233,156.233,0,0,1-46.971-17.137C515.742,257.592,519.527,226,519.527,226s21.7,21.518,33.053,30.549c8.494,6.736,16.869,11.3,28.552,7.183,9.806-3.427,30.37-14.067,30.37-14.067l16.064,9.12s-21.489,12.19-26.347,14.9c-8.136,4.709-7.481,9.746.715,11.117,5.961.983,14.425-3.129,14.425-3.129l16.273,9.388Z" transform="translate(-517.821 95.465)" fill="#e2d7d7"/>
      <path id="Path_78047" data-name="Path 78047" d="M248.19,141.652l.388,20.147L269.2,149.908l-.387-20.148Z" transform="translate(-154.002 256.976)" fill="#efe8e8"/>
      <path id="Path_78048" data-name="Path 78048" d="M243.4,139.231l22.919-13.71-.209-10.4L243.4,128.174Z" transform="translate(-136.844 227.983)" fill="#3f2a28"/>
      <path id="Path_78049" data-name="Path 78049" d="M260.905,133.739l-17.435-8.762,23.962-12.667,16.184,8.375Z" transform="translate(-154.349 222.418)" fill="#513736"/>
      <path id="Path_78050" data-name="Path 78050" d="M270.4,75.53l9.031,5.216-89.174,51.5L181.23,127Z" transform="translate(35.333 149.579)" fill="#ffd039"/>
      <path id="Path_78051" data-name="Path 78051" d="M280.925,274.517h0V258.3l5.007,1.1a77.641,77.641,0,0,1,20.3-21.519,122.491,122.491,0,0,1,30.7-24.737c48.908-27.658,112.6-34.006,153.372-14.574S598.874,277.617,627.9,311.832a53.644,53.644,0,0,1,7.511,11.594l3.427-.864v14.276h0a31.472,31.472,0,0,1-2.533,12.488c-6.676,16.094-54.333,44.706-65.569,47.955-18.538,5.365-44.259,7.719-78.3-1.878-59.4-16.75-157.246-49.862-187.766-77.878C288.138,302.295,279.971,288.257,280.925,274.517Z" transform="translate(187.125 18.902)" fill="#f79200"/>
      <path id="Path_78052" data-name="Path 78052" d="M521.092,355.727c-54.363-8.524-74.242-34.781-74.242-34.781L280.812,220.03a147.448,147.448,0,0,1,17.882-12.339c48.908-27.628,112.6-34.006,153.372-14.544S560.642,272.157,589.671,306.4c12.935,15.289,12.667,27.39,8.494,37.464a32.037,32.037,0,0,1-6.438,8.941,194.651,194.651,0,0,1-70.636,2.921Z" transform="translate(225.357 8.119)" fill="#ffb40d"/>
      <path id="Path_78053" data-name="Path 78053" d="M573.86,366.54c-18.538,5.365-44.259,7.719-78.3-1.878-59.4-16.75-157.246-49.832-187.765-77.878-31.443-28.85-33.023-53.349,1.4-79.755a104.59,104.59,0,0,1,12.875-12.339L488.114,295.606s19.879,26.257,74.242,34.781a194.654,194.654,0,0,0,70.636-2.98C617.792,343.5,583.159,363.857,573.86,366.54Z" transform="translate(184.183 33.459)" fill="#ffb40d"/>
      <path id="Path_78054" data-name="Path 78054" d="M573.86,366.54c-18.538,5.365-44.259,7.719-78.3-1.878-59.4-16.75-157.246-49.832-187.765-77.878-31.443-28.85-33.023-53.349,1.4-79.755a104.59,104.59,0,0,1,12.875-12.339L488.114,295.606s19.879,26.257,74.242,34.781a194.654,194.654,0,0,0,70.636-2.98C617.792,343.5,583.159,363.857,573.86,366.54Z" transform="translate(184.183 33.459)" fill="#f79200" opacity="0.5"/>
      <path id="Path_78055" data-name="Path 78055" d="M351.611,194.715a145.414,145.414,0,0,1,93.018-32.933c79.011,0,141.689,59.936,141.986,138.887,0,15.23-8.4,29.387-22.89,41.308-25.363,20.863-69.414,34.722-119.544,34.811-78.742.149-142.672-33.679-142.732-75.553a137.6,137.6,0,0,1,50.16-106.519Z" transform="translate(177.955 -31.718)" fill="#f9a600"/>
      <path id="Path_78056" data-name="Path 78056" d="M359.291,172.83a106.511,106.511,0,0,0-3.338,26.406c0,71.351,71.261,129.171,159.213,129.171a191.907,191.907,0,0,0,56.24-8.315c-25.363,20.863-69.414,34.722-119.544,34.811-78.742.149-142.672-33.679-142.732-75.553a137.6,137.6,0,0,1,50.16-106.519Z" transform="translate(170.275 -9.833)" fill="#f79200" opacity="0.5"/>
      <path id="Path_78057" data-name="Path 78057" d="M306.36,177.072l39.818-19.432s44.706,2.98,71.351,25.81S491.443,348.8,491.443,348.8s-30.7,16.988-41.04,20.028-13.948-40.951-20.028-62.41-20.088-90.455-57.939-105.834S306.36,177.072,306.36,177.072Z" transform="translate(258.493 -39.915)" fill="#ffd039"/>
      <path id="Path_78058" data-name="Path 78058" d="M321.59,159c11.534-4.292,45.54-8.941,82.229,32.784,45.153,51.293,60.025,159.63,60.025,159.63l-12.995,3.845s-17.405-116.623-59.191-158.468a106.251,106.251,0,0,0-41.726-26.108c-27.152-7.868-43.574,1.7-43.574,1.7A27.419,27.419,0,0,1,321.59,159Z" transform="translate(286.092 -42.582)" fill="#ffd039"/>
      <path id="Path_78059" data-name="Path 78059" d="M335.3,165.677c11.564-4.262,45.57-8.792,82.229,32.784,45.153,51.323,60.055,159.66,60.055,159.66l-13.024,3.845s-17.376-116.623-59.191-158.5a106.4,106.4,0,0,0-41.726-26.079c-27.181-7.868-43.514,0-43.514,0a28.225,28.225,0,0,1,15.17-11.713Z" transform="translate(231.312 -29.265)" fill="#f79200"/>
      <path id="Path_78060" data-name="Path 78060" d="M301.448,219.136a140.073,140.073,0,0,1,1.52-17.376,61.214,61.214,0,0,0,.715,17.882C315.1,255.407,373.723,282.648,444.3,282.5c68.7,0,125.952-26.108,139.364-60.562.358-.894,2.444-6.676,2.742-7.57,0,3.845.268,13.233.268,17.555,0,41.726-63.661,75.911-142.374,76.06s-142.463-33.768-142.672-75.7C301.627,232.279,301.359,222.414,301.448,219.136Z" transform="translate(177.957 47.46)" fill="#3f2a28"/>
      <path id="Path_78061" data-name="Path 78061" d="M304.639,257.072c0-18.18,11.028-39.282,24.678-47.15,6.229-3.606,11.922-3.755,16.243-1.192h0l8.435,5.037-1.788,3.636a32.966,32.966,0,0,1,1.788,11.206c0,18.18-11.057,39.282-24.678,47.15a23.067,23.067,0,0,1-6.736,2.623l-1.61,3.308-8.166-4.858h0C307.8,273.643,304.639,266.788,304.639,257.072Z" transform="translate(401.068 57.807)" fill="#332120"/>
      <path id="Path_78062" data-name="Path 78062" d="M302.08,258.608c0,18.18,11.027,26.525,24.678,18.657s24.678-28.97,24.678-47.15-11.057-26.526-24.678-18.657S302.08,240.428,302.08,258.608Z" transform="translate(411.257 60.8)" fill="#513736"/>
      <path id="Path_78063" data-name="Path 78063" d="M303,254.394c0,16.184,9.835,23.6,21.966,16.6S346.9,245.215,346.9,229.061s-9.806-23.6-21.936-16.6S303,238.24,303,254.394Z" transform="translate(413.049 63.435)" fill="#ffd039"/>
      <path id="Path_78064" data-name="Path 78064" d="M304.354,220.563c-.507,5.365,1.818,9.984,5.186,10.312s6.527-3.755,7.064-9.12-1.788-9.955-5.186-10.282S304.89,215.2,304.354,220.563Z" transform="translate(439.443 66.658)" fill="#fff"/>
      <path id="Path_78065" data-name="Path 78065" d="M290.179,238.485a60.115,60.115,0,0,0-5.6-14.366c-.507-.984.775-1.609,1.7-.8a28.255,28.255,0,0,1,9.448,16c1.371,6.616.924,16.064-4.739,20.565a1.818,1.818,0,0,1-2.98-1.758C289.2,251.092,291.789,245.966,290.179,238.485Z" transform="translate(518.829 89.418)" fill="#fff"/>
      <path id="Path_78066" data-name="Path 78066" d="M322.706,162.04c14.1,3.129,33.47,20.356,43.037,37.493,6.8,12.16,13.024,25.631,13.114,39.341a1.132,1.132,0,0,1-2.116.566c-17.2-26.525-31.414-53.647-55.585-74.778A1.566,1.566,0,0,1,322.706,162.04Z" transform="translate(328.49 -31.321)" fill="#fff"/>
      <path id="Path_78067" data-name="Path 78067" d="M397.2,198.877a2.963,2.963,0,0,1,0-.507v-4.411l1.252.179a15.319,15.319,0,0,1,5.961-5.633l56.121-32.4c10.58-6.11,29.119-5.335,41.338,1.729L587.5,207.281a21.636,21.636,0,0,1,8.941,8.733H597.6v5.037h0a12.368,12.368,0,0,1-7.123,10.1l-56.121,32.4c-10.61,6.11-29.119,5.335-41.368-1.729l-85.567-49.415c-6.348-3.666-9.746-8.315-10.074-12.786h0Z" transform="translate(-118.377 -51.109)" fill="#d3c5c5"/>
      <path id="Path_78068" data-name="Path 78068" d="M534.2,262.1l56.121-32.4c10.58-6.11,9.269-16.809-2.98-23.843l-85.627-49.415c-12.22-7.093-30.758-7.838-41.338-1.729l-56,32.218c-10.61,6.11-9.269,16.809,2.98,23.843l85.6,49.445C505.079,267.314,523.587,268.059,534.2,262.1Z" transform="translate(-118.305 -53.888)" fill="#f7f0f0"/>
      <path id="Path_78069" data-name="Path 78069" d="M505.387,257.456l77.759-44.706L477.759,151.92,400,196.626ZM580.4,212.75l-75.017,43.156-102.645-59.25L477.759,153.5Z" transform="translate(-112.295 -51.243)" fill="#634947"/>
      <path id="Path_78070" data-name="Path 78070" d="M432.755,190.041a.656.656,0,0,0,.536-.3.626.626,0,0,0-.209-.834l-8.435-4.858a.6.6,0,0,0-.835.209.626.626,0,0,0,.209.834l8.554,4.948A.567.567,0,0,0,432.755,190.041Z" transform="translate(-33.254 12.208)" fill="#634947"/>
      <path id="Path_78071" data-name="Path 78071" d="M430.692,188.88a.626.626,0,0,0,.3-1.162l-8.435-4.858a.626.626,0,0,0-.6,1.073l8.4,4.858a.685.685,0,0,0,.328.089Z" transform="translate(-25.231 9.971)" fill="#634947"/>
      <path id="Path_78072" data-name="Path 78072" d="M428.828,187.789a.656.656,0,0,0,.536-.3.626.626,0,0,0-.238-.834l-8.4-4.888a.626.626,0,0,0-.834.238.6.6,0,0,0,.209.834l8.435,4.858a.566.566,0,0,0,.3.089Z" transform="translate(-17.585 7.724)" fill="#634947"/>
      <path id="Path_78073" data-name="Path 78073" d="M426.815,186.666a.633.633,0,0,0,.328-1.162l-8.435-4.858a.6.6,0,0,0-.835.238.626.626,0,0,0,.209.834l8.434,4.858a.566.566,0,0,0,.3.089Z" transform="translate(-9.611 5.479)" fill="#634947"/>
      <path id="Path_78074" data-name="Path 78074" d="M424.874,185.508a.6.6,0,0,0,.3-1.133l-8.4-4.858a.608.608,0,1,0-.626,1.043l8.434,4.858a.567.567,0,0,0,.3.089Z" transform="translate(-1.888 3.24)" fill="#634947"/>
      <path id="Path_78075" data-name="Path 78075" d="M423.024,184.31a.656.656,0,0,0,.536-.3.626.626,0,0,0-.328-.715l-8.435-4.888a.621.621,0,0,0-.626,1.073l8.434,4.858A.566.566,0,0,0,423.024,184.31Z" transform="translate(5.893 1.07)" fill="#634947"/>
      <path id="Path_78076" data-name="Path 78076" d="M420.96,183.261a.656.656,0,0,0,.536-.3.626.626,0,0,0-.238-.834l-8.435-4.858a.6.6,0,0,0-.835.209.626.626,0,0,0,.238.835l8.435,4.858a.506.506,0,0,0,.3.089Z" transform="translate(13.769 -1.219)" fill="#634947"/>
      <path id="Path_78077" data-name="Path 78077" d="M418.958,182.139a.656.656,0,0,0,.536-.3.626.626,0,0,0-.238-.835l-8.4-4.888a.626.626,0,0,0-.835.238.6.6,0,0,0,.209.835l8.435,4.858a.566.566,0,0,0,.3.089Z" transform="translate(21.702 -3.465)" fill="#634947"/>
      <path id="Path_78078" data-name="Path 78078" d="M417.108,180.9a.6.6,0,0,0,.3-1.133l-8.4-4.858a.6.6,0,0,0-.834.238.626.626,0,0,0,.209.834l8.435,4.858A.537.537,0,0,0,417.108,180.9Z" transform="translate(29.006 -5.888)" fill="#634947"/>
      <path id="Path_78079" data-name="Path 78079" d="M415.1,179.763a.626.626,0,0,0,.536-.3.6.6,0,0,0-.209-.834L407,173.773a.6.6,0,1,0-.6,1.043l8.4,4.858a.567.567,0,0,0,.3.089Z" transform="translate(36.94 -8.123)" fill="#634947"/>
      <path id="Path_78080" data-name="Path 78080" d="M413.188,178.644a.6.6,0,0,0,.537-.3.626.626,0,0,0-.238-.835l-8.4-4.858a.626.626,0,0,0-.835.209.6.6,0,0,0,.209.835l8.434,4.888Z" transform="translate(44.669 -10.342)" fill="#634947"/>
      <path id="Path_78081" data-name="Path 78081" d="M411.183,177.521a.656.656,0,0,0,.536-.3.6.6,0,0,0-.238-.835l-8.4-4.858a.6.6,0,0,0-.834.209.626.626,0,0,0,.209.834l8.434,4.858A.566.566,0,0,0,411.183,177.521Z" transform="translate(52.604 -12.587)" fill="#634947"/>
      <path id="Path_78082" data-name="Path 78082" d="M464.984,171.779a.626.626,0,0,0,.537-.328.6.6,0,0,0-.239-.834l-8.4-4.858a.626.626,0,0,0-.834.238.6.6,0,0,0,.208.835l8.435,4.858a.567.567,0,0,0,.3.089Z" transform="translate(-161.513 -23.982)" fill="#634947"/>
      <path id="Path_78083" data-name="Path 78083" d="M462.988,170.624a.6.6,0,0,0,.536-.3.626.626,0,0,0-.208-.835l-8.435-4.858a.626.626,0,0,0-.835.209.6.6,0,0,0,.238.835l8.4,4.888a.537.537,0,0,0,.3.06Z" transform="translate(-153.585 -26.225)" fill="#634947"/>
      <path id="Path_78084" data-name="Path 78084" d="M461.059,169.536a.623.623,0,0,0,.3-1.162l-8.435-4.858a.6.6,0,0,0-.835.238.626.626,0,0,0,.239.834l8.434,4.858A.508.508,0,0,0,461.059,169.536Z" transform="translate(-145.845 -28.445)" fill="#634947"/>
      <path id="Path_78085" data-name="Path 78085" d="M459.044,168.378a.6.6,0,0,0,.3-1.133l-8.4-4.858a.608.608,0,1,0-.626,1.043l8.435,4.858a.567.567,0,0,0,.3.089Z" transform="translate(-137.899 -30.685)" fill="#634947"/>
      <path id="Path_78086" data-name="Path 78086" d="M457.108,167.259a.656.656,0,0,0,.536-.3.626.626,0,0,0-.238-.834l-8.4-4.888a.626.626,0,0,0-.834.238.6.6,0,0,0,.208.835l8.435,4.858A.506.506,0,0,0,457.108,167.259Z" transform="translate(-130.151 -32.933)" fill="#634947"/>
      <path id="Path_78087" data-name="Path 78087" d="M455.06,166.114a.626.626,0,0,0,.536-.328.6.6,0,0,0-.238-.835l-8.4-4.858a.626.626,0,0,0-.626,1.073l8.434,4.858a.568.568,0,0,0,.3.089Z" transform="translate(-122.172 -35.156)" fill="#634947"/>
      <path id="Path_78088" data-name="Path 78088" d="M453.183,165.049a.566.566,0,0,0,.507-.3.6.6,0,0,0-.209-.834l-8.434-4.888a.614.614,0,0,0-.6,1.073l8.4,4.858a.685.685,0,0,0,.328.089Z" transform="translate(-114.483 -37.31)" fill="#634947"/>
      <path id="Path_78089" data-name="Path 78089" d="M451.124,163.834a.6.6,0,0,0,.536-.3.626.626,0,0,0-.238-.835l-8.4-4.858a.626.626,0,0,0-.626,1.073l8.434,4.858A.478.478,0,0,0,451.124,163.834Z" transform="translate(-106.493 -39.612)" fill="#634947"/>
      <path id="Path_78090" data-name="Path 78090" d="M449.334,162.638a.6.6,0,0,0,.3-1.133l-8.4-4.858a.608.608,0,0,0-.626,1.043l8.435,4.858a.567.567,0,0,0,.3.089Z" transform="translate(-99.249 -42.052)" fill="#634947"/>
      <path id="Path_78091" data-name="Path 78091" d="M447.345,161.519a.656.656,0,0,0,.536-.3.626.626,0,0,0-.209-.834l-8.435-4.888a.621.621,0,0,0-.626,1.073l8.434,4.858a.567.567,0,0,0,.3.089Z" transform="translate(-91.328 -44.301)" fill="#634947"/>
      <path id="Path_78092" data-name="Path 78092" d="M445.419,160.391a.656.656,0,0,0,.536-.3.626.626,0,0,0-.238-.835l-8.435-4.858a.6.6,0,0,0-.834.209.626.626,0,0,0,.238.835l8.434,4.858a.507.507,0,0,0,.3.089Z" transform="translate(-83.591 -46.511)" fill="#634947"/>
      <path id="Path_78093" data-name="Path 78093" d="M443.414,159.269a.626.626,0,0,0,.536-.328.6.6,0,0,0-.239-.834l-8.4-4.858a.626.626,0,0,0-.835.238.6.6,0,0,0,.209.835l8.434,4.858a.567.567,0,0,0,.3.089Z" transform="translate(-75.655 -48.757)" fill="#634947"/>
      <path id="Path_78094" data-name="Path 78094" d="M413.19,164.06H513.332v17.257c0,14.723-22.353,26.824-50.011,26.824s-50.1-11.922-50.13-26.526v-.209h0Z" transform="translate(-81.792 -27.201)" fill="#3f2a28"/>
      <path id="Path_78095" data-name="Path 78095" d="M463.261,155.09c-27.658,0-50.071,11.922-50.041,26.824s22.472,26.555,50.041,26.555,50.041-11.922,50.011-26.824S490.889,155.031,463.261,155.09Z" transform="translate(-81.822 -44.965)" fill="#634947"/>
      <path id="Path_78096" data-name="Path 78096" d="M460.347,163.473c-22.74,0-41.487,8.524-44.915,19.522a11.51,11.51,0,0,1-.626-3.636h0c0-12.7,20.445-22.979,45.54-23.039,24.618,0,44.706,9.805,45.541,22.174a7.389,7.389,0,0,1,0,.8,12.1,12.1,0,0,1-.656,3.725C501.923,171.878,483.117,163.443,460.347,163.473Z" transform="translate(-79.176 -42.529)" fill="#e2d7d7"/>
      <path id="Path_78097" data-name="Path 78097" d="M460,197.614c-22.74,0-41.547-8.345-45-19.373,3.427-11,22.174-19.462,44.915-19.522s41.577,8.4,44.974,19.432C501.4,189.15,482.655,197.555,460,197.614Z" transform="translate(-78.744 -37.776)" fill="#f7f0f0"/>
      <path id="Path_78098" data-name="Path 78098" d="M446.5,160.76c-14.008,0-25.333,5.961-25.3,13.5s11.355,13.442,25.334,13.412,25.333-5.961,25.3-13.5S460.512,160.73,446.5,160.76Z" transform="translate(-64.17 -33.736)" fill="#e2d7d7"/>
      <path id="Path_78099" data-name="Path 78099" d="M425.99,167.478h.835a16.452,16.452,0,0,1,20.863,0h.8v2.235c0,3.308-5.037,5.961-11.266,5.961s-11.3-2.682-11.3-5.961h0Z" transform="translate(-54.922 -27.818)" fill="#3f2a28"/>
      <path id="Path_78100" data-name="Path 78100" d="M437.176,162.94c-6.229,0-11.266,2.712-11.266,5.961s5.067,5.961,11.3,5.961,11.266-2.712,11.266-5.961S443.4,162.94,437.176,162.94Z" transform="translate(-54.843 -29.419)" fill="#634947"/>
      <path id="Path_78101" data-name="Path 78101" d="M157.25,43.5l21.489,16.9,3.9-2.235,3.9-2.265L157.25,41.23Z" transform="translate(199.69 81.651)" fill="#1a9ad3"/>
      <path id="Path_78102" data-name="Path 78102" d="M179.337,63.079,150.04,50.65V48.415h3.9l3.9-2.265,21.489,14.664Z" transform="translate(228.389 91.395)" fill="#ef2222"/>
      <path id="Path_78103" data-name="Path 78103" d="M157.25,41.23l21.489,16.929,3.9-2.265,3.9-2.235Z" transform="translate(199.69 81.651)" fill="#26b6dd"/>
      <path id="Path_78104" data-name="Path 78104" d="M179.337,62.3l-29.3-12.4,3.9-2.265,3.9-2.235Z" transform="translate(228.389 89.909)" fill="#ff4222"/>
      <path id="Path_78105" data-name="Path 78105" d="M432.355,163.61c-2.116,0-3.845.924-3.845,2.056s1.729,2.027,3.845,2.027,3.845-.924,3.845-2.056S434.471,163.581,432.355,163.61Z" transform="translate(-50.319 -28.093)" fill="#fff"/>
      <path id="Path_78106" data-name="Path 78106" d="M165.793,62.93,139.416,78.16l-5.156-2.98,26.347-15.23Z" transform="translate(288.964 118.724)" fill="#634947"/>
      <path id="Path_78107" data-name="Path 78107" d="M189.866,48.581,154.28,130.84l76.06-43.9L265.9,4.68Z" transform="translate(129.193 9.267)" fill="#634947"/>
      <path id="Path_78108" data-name="Path 78108" d="M212.144,69.69,234.11,18.934,254.227,7.31,223.082,79.346,156.5,117.793l9.18-21.28Z" transform="translate(134.245 14.476)" fill="#3f2a28"/>
      <path id="Path_78109" data-name="Path 78109" d="M163.25,88.79l21.966-50.756L231.68,11.21,209.715,61.966Z" transform="translate(136.675 22.199)" fill="#493230"/>
      <path id="Path_78110" data-name="Path 78110" d="M231.411,28.678,215.376,14.73,179.79,96.989l16.035,13.948Z" transform="translate(87.649 29.17)" fill="#3f2a28"/>
      <path id="Path_78111" data-name="Path 78111" d="M230.31,0l16.035,13.948-76.03,43.9L154.28,43.9Z" transform="translate(148.745 -0.001)" fill="#563d3b"/>
      <path id="Path_78112" data-name="Path 78112" d="M424.469,160.244,41.338,381.449,3.07,359.364,386.261,138.01Z" transform="translate(421.287 273.314)" fill="#f7f0f0"/>
      <path id="Path_78113" data-name="Path 78113" d="M399.2,150.54,16.065,371.745,3.07,364.234,386.261,142.91Z" transform="translate(446.561 283.018)" fill="#ffd039"/>
      <path id="Path_78114" data-name="Path 78114" d="M191.418,171.33,51.995,251.741,39.03,244.29,178.483,163.7Z" transform="translate(547.163 324.191)" fill="#7daf35"/>
      <path id="Path_78115" data-name="Path 78115" d="M169.888,234.365v9.627L131.62,221.907V212.28Z" transform="translate(292.737 420.398)" fill="#dbd1d1"/>
      <path id="Path_78116" data-name="Path 78116" d="M386.2,145.47V155.1L3.07,376.3v-9.627Z" transform="translate(459.555 288.088)" fill="#c6b9b9"/>
      <path id="Path_78117" data-name="Path 78117" d="M156.094,225.593,130.85,211.019l2.951-1.7,25.274,14.574Z" transform="translate(305.846 414.537)" fill="#3f2a28"/>
      <path id="Path_78118" data-name="Path 78118" d="M145.8,219.673,120.56,205.1l2.951-1.729,25.274,14.6Z" transform="translate(346.804 402.753)" fill="#3f2a28"/>
      <path id="Path_78119" data-name="Path 78119" d="M150.964,222.633,125.69,208.059l2.951-1.7,25.274,14.574Z" transform="translate(326.385 408.675)" fill="#3f2a28"/>
      <path id="Path_78120" data-name="Path 78120" d="M140.694,216.7,115.42,202.1l2.951-1.7L143.644,215Z" transform="translate(367.263 396.871)" fill="#3f2a28"/>
      <path id="Path_78121" data-name="Path 78121" d="M130.374,210.763l-25.244-14.6,2.951-1.7,25.244,14.6Z" transform="translate(408.252 385.108)" fill="#3f2a28"/>
      <path id="Path_78122" data-name="Path 78122" d="M135.544,213.733l-25.274-14.6,2.951-1.7,25.274,14.6Z" transform="translate(387.763 390.99)" fill="#3f2a28"/>
      <path id="Path_78123" data-name="Path 78123" d="M125.234,207.8,99.96,193.2l2.951-1.7,25.274,14.6Z" transform="translate(428.801 379.246)" fill="#3f2a28"/>
      <path id="Path_78124" data-name="Path 78124" d="M123.568,209.314,85.3,187.259l2.98-1.7,38.268,22.055Z" transform="translate(474.129 367.482)" fill="#3f2a28"/>
      <path id="Path_78125" data-name="Path 78125" d="M120.064,204.843,94.79,190.269l2.951-1.729,25.274,14.6Z" transform="translate(449.379 373.384)" fill="#3f2a28"/>
      <path id="Path_78126" data-name="Path 78126" d="M109.794,198.893l-25.274-14.6,2.951-1.7,25.274,14.574Z" transform="translate(490.258 361.6)" fill="#3f2a28"/>
      <path id="Path_78127" data-name="Path 78127" d="M99.5,192.923,74.23,178.349l2.951-1.7,25.274,14.574Z" transform="translate(531.216 349.837)" fill="#3f2a28"/>
      <path id="Path_78128" data-name="Path 78128" d="M104.614,195.923l-25.244-14.6,2.951-1.7,25.274,14.574Z" transform="translate(510.757 355.719)" fill="#3f2a28"/>
      <path id="Path_78129" data-name="Path 78129" d="M94.374,189.963,69.1,175.389l2.951-1.729,25.274,14.6Z" transform="translate(551.636 343.915)" fill="#3f2a28"/>
      <path id="Path_78130" data-name="Path 78130" d="M84.084,184.023l-25.274-14.6,2.951-1.7,25.274,14.6Z" transform="translate(592.594 332.152)" fill="#3f2a28"/>
      <path id="Path_78131" data-name="Path 78131" d="M89.234,186.993l-25.274-14.6,2.951-1.7,25.274,14.6Z" transform="translate(572.095 338.034)" fill="#3f2a28"/>
      <path id="Path_78132" data-name="Path 78132" d="M78.914,181.053l-25.244-14.6,2.951-1.7,25.244,14.6Z" transform="translate(613.083 326.27)" fill="#3f2a28"/>
      <path id="Path_78133" data-name="Path 78133" d="M77.239,182.743,39.03,160.509l2.951-1.7,38.209,22.2Z" transform="translate(658.392 314.507)" fill="#3f2a28"/>
      <path id="Path_78134" data-name="Path 78134" d="M73.794,178.083l-25.274-14.6,2.951-1.7,25.274,14.574Z" transform="translate(633.553 320.388)" fill="#3f2a28"/>
      <path id="Path_78135" data-name="Path 78135" d="M63.5,172.113,38.23,157.539l2.951-1.7,25.274,14.574Z" transform="translate(674.511 308.625)" fill="#3f2a28"/>
      <path id="Path_78136" data-name="Path 78136" d="M53.214,166.173,27.94,151.6l2.98-1.7,25.244,14.574Z" transform="translate(715.469 296.861)" fill="#3f2a28"/>
      <path id="Path_78137" data-name="Path 78137" d="M58.354,169.173l-25.274-14.6,2.951-1.7L61.3,167.444Z" transform="translate(695.01 302.743)" fill="#3f2a28"/>
      <path id="Path_78138" data-name="Path 78138" d="M48.064,163.223,22.79,148.649l2.951-1.729,25.274,14.6Z" transform="translate(735.968 290.96)" fill="#3f2a28"/>
      <path id="Path_78139" data-name="Path 78139" d="M37.774,157.283,12.5,142.679l2.951-1.7,25.274,14.6Z" transform="translate(776.927 279.196)" fill="#3f2a28"/>
      <path id="Path_78140" data-name="Path 78140" d="M42.884,160.253,17.64,145.679l2.951-1.729,25.274,14.6Z" transform="translate(756.467 285.078)" fill="#3f2a28"/>
      <path id="Path_78141" data-name="Path 78141" d="M32.684,154.313,7.41,139.709l2.951-1.7,25.274,14.6Z" transform="translate(797.187 273.314)" fill="#3f2a28"/>
      <path id="Path_78142" data-name="Path 78142" d="M314.12,332.75l135.608-78.3L203.338,112.2,67.73,190.5Z" transform="translate(203.315 222.2)" fill="#f9a600"/>
      <path id="Path_78143" data-name="Path 78143" d="M314.12,327.88l135.608-78.265L203.338,107.36,67.73,185.655Z" transform="translate(203.315 212.615)" fill="#ffd039"/>
      <path id="Path_78144" data-name="Path 78144" d="M318.03,254.457l4.411-2.653L76.051,109.58,71.64,112.2Z" transform="translate(318.949 217.011)" fill="#f9a600"/>
      <path id="Path_78145" data-name="Path 78145" d="M203.338,155.09V177L67.73,255.291V233.355Z" transform="translate(449.705 307.139)" fill="#f9a600"/>
      <path id="Path_78146" data-name="Path 78146" d="M113.23,133.63v21.906L359.62,297.79V275.855Z" transform="translate(157.815 264.64)" fill="#f79200"/>
      <path id="Path_78147" data-name="Path 78147" d="M200.9,157.1v14.4L68.96,247.555v-14.4Z" transform="translate(448.475 311.12)" fill="#fff"/>
      <path id="Path_78148" data-name="Path 78148" d="M113.23,134.88v14.425L359.62,291.56v-14.4Z" transform="translate(157.815 267.116)" fill="#f7f0f0"/>
      <path id="Path_78149" data-name="Path 78149" d="M177.07,168.713l-63.1,36.42L96.42,195l63.125-36.42Z" transform="translate(390.466 314.051)" fill="#3f2a28"/>
      <path id="Path_78150" data-name="Path 78150" d="M162.259,167.184,99.134,203.6l-7-4.023,63.125-36.421Z" transform="translate(418.063 323.121)" fill="#3f2a28"/>
      <path id="Path_78151" data-name="Path 78151" d="M458.53,186.2a8.537,8.537,0,0,1,.894,1.222,19.793,19.793,0,0,1,1.073,2.98c.179.507.447.924.6,1.431l9.716-8.941Z" transform="translate(-174.401 10.09)" fill="#3f2a28"/>
      <path id="Path_78152" data-name="Path 78152" d="M485.628,187.885a5.066,5.066,0,0,0-1.967-3.815,1.609,1.609,0,0,0-1.222,0l-20.863,5.961,6.8,14.9,16.69-15.438h0A2,2,0,0,0,485.628,187.885Z" transform="translate(-198.31 12.188)" fill="#dbd1d1"/>
      <path id="Path_78153" data-name="Path 78153" d="M555.858,196.97a13.2,13.2,0,0,0-5.484-10.461,3.577,3.577,0,0,0-3.4-.358h0l-80.113,45.928,7.481,14.9,79.547-45.391h0a4.829,4.829,0,0,0,1.967-4.62Z" transform="translate(-284.336 16.008)" fill="#3f2a28"/>
      <path id="Path_78154" data-name="Path 78154" d="M525.834,201.9a3.487,3.487,0,0,0-3.4-.328h0L493.764,217.82a4.441,4.441,0,0,1,3.845.268,13.2,13.2,0,0,1,5.484,10.491,5.216,5.216,0,0,1-1.431,3.994l28.254-16.184a5.157,5.157,0,0,0,1.4-3.964A13.114,13.114,0,0,0,525.834,201.9Z" transform="translate(-339.939 46.511)" fill="#43c9ec"/>
      <path id="Path_78155" data-name="Path 78155" d="M515.9,217.828a13.2,13.2,0,0,0-5.484-10.491,4.024,4.024,0,0,0-3.666-.358h0l-3.517,2,7.183,15.17,4.053-2.325a5.216,5.216,0,0,0,1.43-3.994Z" transform="translate(-352.748 57.233)" fill="#3f2a28"/>
      <path id="Path_78156" data-name="Path 78156" d="M515.438,218.5c0,4.024-2.474,5.961-5.484,4.143a13.113,13.113,0,0,1-5.484-10.461c0-4.053,2.444-5.961,5.484-4.143a13.084,13.084,0,0,1,5.484,10.461Z" transform="translate(-355.949 58.527)" fill="#513736"/>
      <path id="Path_78157" data-name="Path 78157" d="M523.551,216.855a10.4,10.4,0,0,0-4.351-8.315,2.772,2.772,0,0,0-2.683-.268h0l-.447.238-11,6.408,5.633,12.071,11.445-6.706A3.9,3.9,0,0,0,523.551,216.855Z" transform="translate(-365.881 59.904)" fill="#dbd1d1"/>
      <path id="Path_78158" data-name="Path 78158" d="M517.573,219.047c0,3.219-1.937,4.679-4.351,3.308a10.521,10.521,0,0,1-4.351-8.315c0-3.219,1.967-4.679,4.351-3.308a10.432,10.432,0,0,1,4.351,8.315Z" transform="translate(-371.198 64.209)" fill="#f7f0f0"/>
      <path id="Path_78159" data-name="Path 78159" d="M293.04,291.749a8.147,8.147,0,0,1,.894,1.252,16.574,16.574,0,0,1,1.073,2.98c.179.507.447.954.6,1.46l9.716-8.941Z" transform="translate(484.316 219.24)" fill="#3f2a28"/>
      <path id="Path_78160" data-name="Path 78160" d="M320.142,293.554a4.978,4.978,0,0,0-1.967-3.785,1.818,1.818,0,0,0-1.222-.149l-20.863,5.961,6.8,14.753,16.69-15.409h0A1.938,1.938,0,0,0,320.142,293.554Z" transform="translate(460.403 221.369)" fill="#dbd1d1"/>
      <path id="Path_78161" data-name="Path 78161" d="M390.4,302.63a13.2,13.2,0,0,0-5.484-10.491,3.547,3.547,0,0,0-3.4-.328h0L301.377,337.65l7.481,14.9,79.547-45.421h0a4.769,4.769,0,0,0,2-4.5Z" transform="translate(374.347 225.228)" fill="#3f2a28"/>
      <path id="Path_78162" data-name="Path 78162" d="M360.344,307.539a3.547,3.547,0,0,0-3.4-.328h0l-28.672,16.243a4.47,4.47,0,0,1,3.845.3,13.2,13.2,0,0,1,5.484,10.461,5.217,5.217,0,0,1-1.431,3.994l28.254-16.154a5.246,5.246,0,0,0,1.4-3.994,13.113,13.113,0,0,0-5.484-10.521Z" transform="translate(318.778 255.726)" fill="#ff4222"/>
      <path id="Path_78163" data-name="Path 78163" d="M350.382,323.451A13.2,13.2,0,0,0,344.9,312.99a4.143,4.143,0,0,0-3.666-.387h0l-3.487,2,7.153,15.17,4.053-2.325a5.217,5.217,0,0,0,1.431-3.994Z" transform="translate(305.999 266.459)" fill="#3f2a28"/>
      <path id="Path_78164" data-name="Path 78164" d="M349.968,324.14c0,4.053-2.474,5.961-5.484,4.143A13.054,13.054,0,0,1,339,317.821c0-4.053,2.444-5.961,5.484-4.143A13.2,13.2,0,0,1,349.968,324.14Z" transform="translate(302.688 267.737)" fill="#513736"/>
      <path id="Path_78165" data-name="Path 78165" d="M358.062,322.465a10.432,10.432,0,0,0-4.351-8.315,2.772,2.772,0,0,0-2.682-.268h0l-.417.238-11.027,6.408,5.633,12.041,11.445-6.736a3.845,3.845,0,0,0,1.4-3.368Z" transform="translate(292.835 269.054)" fill="#dbd1d1"/>
      <path id="Path_78166" data-name="Path 78166" d="M352.053,324.706c0,3.189-1.937,4.649-4.351,3.279a10.461,10.461,0,0,1-4.322-8.315c0-3.189,1.937-4.679,4.322-3.279A10.342,10.342,0,0,1,352.053,324.706Z" transform="translate(287.549 273.43)" fill="#f7f0f0"/>
      <path id="Path_78167" data-name="Path 78167" d="M297.76,305.478a7.874,7.874,0,0,1,.864,1.252,15.8,15.8,0,0,1,1.1,2.98c.179.507.447.954.6,1.431l9.716-8.941Z" transform="translate(465.529 246.372)" fill="#3f2a28"/>
      <path id="Path_78168" data-name="Path 78168" d="M324.861,307.276a4.888,4.888,0,0,0-2-3.785,1.491,1.491,0,0,0-1.192-.149L300.809,309.3l6.8,14.9L324.3,308.8h0a2.116,2.116,0,0,0,.566-1.52Z" transform="translate(441.616 248.509)" fill="#dbd1d1"/>
      <path id="Path_78169" data-name="Path 78169" d="M395.164,316.386a13.114,13.114,0,0,0-5.484-10.491,3.487,3.487,0,0,0-3.4-.328h0l-80.173,45.779,7.451,14.9,79.577-45.421h0a4.709,4.709,0,0,0,2.027-4.441Z" transform="translate(355.488 252.453)" fill="#3f2a28"/>
      <path id="Path_78170" data-name="Path 78170" d="M365.065,321.255a3.487,3.487,0,0,0-3.4-.328h0L333,337.17a4.381,4.381,0,0,1,3.815.3,13.054,13.054,0,0,1,5.484,10.461,5.186,5.186,0,0,1-1.4,3.994l28.224-16.154a5.3,5.3,0,0,0,1.431-3.994,13.113,13.113,0,0,0-5.484-10.521Z" transform="translate(299.989 282.871)" fill="#7daf35"/>
      <path id="Path_78171" data-name="Path 78171" d="M355.111,337.163a13.054,13.054,0,0,0-5.484-10.461,4.113,4.113,0,0,0-3.666-.388h0l-3.487,2,7.183,15.17,4.053-2.325A5.186,5.186,0,0,0,355.111,337.163Z" transform="translate(287.173 293.608)" fill="#3f2a28"/>
      <path id="Path_78172" data-name="Path 78172" d="M354.648,337.85c0,4.053-2.444,5.961-5.484,4.143a13.114,13.114,0,0,1-5.454-10.461c0-4.053,2.444-5.961,5.454-4.143A13.054,13.054,0,0,1,354.648,337.85Z" transform="translate(283.97 294.888)" fill="#513736"/>
      <path id="Path_78173" data-name="Path 78173" d="M362.781,336.175a10.431,10.431,0,0,0-4.351-8.315,2.772,2.772,0,0,0-2.682-.268h0l-.447.238-11,6.408,5.6,12.1L361.38,339.6A3.875,3.875,0,0,0,362.781,336.175Z" transform="translate(274.049 296.206)" fill="#dbd1d1"/>
      <path id="Path_78174" data-name="Path 78174" d="M356.8,338.416c0,3.189-1.937,4.649-4.351,3.279a10.521,10.521,0,0,1-4.351-8.315c0-3.189,1.967-4.679,4.351-3.278A10.341,10.341,0,0,1,356.8,338.416Z" transform="translate(268.732 300.581)" fill="#f7f0f0"/>
      <path id="Path_78175" data-name="Path 78175" d="M467.93,286.248V275.34l8.941,1.281-.686,2.414c4.858-2.5,9.478-3.308,19.909,1.371s37.255,18.121,37.255,18.121l-14.4,8.286-3.547,2.056-10.282,5.961s-23.337-15.587-31.354-21.519C469.659,290.093,467.99,287.887,467.93,286.248Z" transform="translate(-264.958 193.178)" fill="#3f2a28"/>
      <path id="Path_78176" data-name="Path 78176" d="M473.813,288.428c-9.359-6.915-6.14-9.418-.328-12.786h.328l.209-.179c5.812-3.368,10.133-5.216,22.115.179,10.282,4.62,37.255,18.091,37.255,18.091L519,302.049l-3.547,2.056-10.282,5.961S481.831,294.359,473.813,288.428Z" transform="translate(-264.94 187.034)" fill="#4c3432"/>
      <path id="Path_78177" data-name="Path 78177" d="M434.3,339.075c-12.428-7.362-15.617-12.726-12.488-17.644,3.964-6.289,10.431-11.773,25.065-20.505h0l.894-.507.835-.507h0c15.111-8.464,24.618-12.19,35.467-14.485,8.554-1.788,17.882,0,30.609,7.213,16.81,9.448,105.059,68.549,118.352,81.454,7.6,7.421,2.98,11.117-2.176,14.157-4.024,2.325-7.3,4.262-15.5,8.941l-15.468,8.941c-5.246,2.98-11.653,5.633-24.5,1.252C552.953,399.667,450.636,348.7,434.3,339.075Z" transform="translate(-227.874 211.881)" fill="#3f2a28"/>
      <path id="Path_78178" data-name="Path 78178" d="M365.927,227.106l-.03,29.059-216.348-56.9V170.24Z" transform="translate(43.259 337.143)" fill="#3f2a28"/>
      <path id="Path_78179" data-name="Path 78179" d="M434.3,329.2c-12.428-7.362-15.617-12.726-12.488-17.644,3.964-6.289,10.431-11.773,25.065-20.505h0l.894-.507.835-.507h0c15.111-8.464,24.618-12.19,35.467-14.485,8.554-1.818,17.882,0,30.609,7.213,16.81,9.448,105.059,68.549,118.352,81.454,7.6,7.421,2.98,11.117-2.176,14.157-4.024,2.325-7.3,4.262-15.5,8.941l-15.468,8.941c-5.246,2.98-11.653,5.633-24.5,1.252C552.953,389.855,450.636,338.92,434.3,329.2Z" transform="translate(-227.874 192.306)" fill="#563d3b"/>
      <path id="Path_78180" data-name="Path 78180" d="M435.151,327.071c-11.922-7-14.9-12.13-11.922-16.81,3.785-5.961,9.925-11.206,23.843-19.492h0l.834-.477.8-.477h0c14.366-8.047,23.426-11.594,33.768-13.8,8.107-1.7,16.959,0,29.119,6.885,16,8.941,99.993,65.181,112.63,77.49,7.242,7.064,2.98,10.58-2.057,13.471-3.815,2.205-6.944,4.053-14.723,8.524l-14.753,8.494c-4.977,2.98-11.087,5.365-23.307,1.192C548.078,384.8,450.708,336.31,435.151,327.071Z" transform="translate(-223.267 193.306)" fill="#684b49"/>
      <path id="Path_78181" data-name="Path 78181" d="M436.714,323.51c-10.849-6.438-13.62-11.147-10.908-15.438,3.487-5.484,9.12-10.282,21.906-17.882h0l.775-.417.745-.447h0A103.749,103.749,0,0,1,480.2,276.659c7.451-1.58,15.588,0,26.824,6.318,14.664,8.226,91.737,59.817,103.331,71.142,6.646,6.467,2.682,9.686-1.878,12.339-3.517,2.027-6.378,3.725-13.531,7.809l-13.531,7.809c-4.56,2.653-10.163,4.918-21.37,1.1C540.342,376.562,450.99,332.064,436.714,323.51Z" transform="translate(-217.051 194.661)" fill="#43c9ec"/>
      <path id="Path_78182" data-name="Path 78182" d="M556.777,316.056c-10.521-7.123-31.95-22.2-44.05-29-9.18-5.156-15.886-6.5-22.025-5.186a85.746,85.746,0,0,0-25.512,10.4h0l-.6.358-.626.358h0c-10.521,6.259-15.17,10.223-18.031,14.723a4.929,4.929,0,0,0-.387.8,4.5,4.5,0,0,1,.388-4.411c2.98-4.5,7.51-8.435,18.031-14.723h0l.626-.358.6-.358h0a84.943,84.943,0,0,1,25.512-10.4c6.14-1.311,12.846,0,22.025,5.186,12.1,6.766,33.53,21.876,44.05,29,3.845,2.593,4.173,4.709,2.98,6.438a10.369,10.369,0,0,0-2.98-2.831Z" transform="translate(-224.067 198.032)" fill="#3f2a28"/>
      <path id="Path_78183" data-name="Path 78183" d="M556.052,319.482c-2.98,1.669-10.849,7.3-16.72,10.67s-12.369,7.362-15.26,8.941a20.356,20.356,0,0,1-17.614,2.414c-15.975-5.961-39.967-20.118-51.74-27.092-5.395-3.219-8.345-5.961-9.359-8.315a4.938,4.938,0,0,1,.388-.8c2.98-4.5,7.51-8.464,18.031-14.723h0l.626-.358.6-.358h0a85.744,85.744,0,0,1,25.512-10.4c6.14-1.311,12.846,0,22.025,5.186,12.1,6.8,33.53,21.876,44.05,29a10.37,10.37,0,0,1,2.981,2.98A10.906,10.906,0,0,1,556.052,319.482Z" transform="translate(-223.909 200.389)" fill="#563d3b"/>
      <path id="Path_78184" data-name="Path 78184" d="M481.387,313.97l33.142,17.078c4.172,2.414,9.269,1.639,9.269-3.964h0a12.786,12.786,0,0,0-6.319-11.921l-34.155-18.717c-5.335-2.146-9.269-1.669-9.269,3.934h0a14.425,14.425,0,0,0,7.332,13.59Z" transform="translate(-273.586 232.635)" fill="#43c9ec"/>
      <path id="Path_78185" data-name="Path 78185" d="M482.476,311.264l25.184,12.995c3.189,1.848,7.034,1.252,7.034-2.98h0a9.716,9.716,0,0,0-4.8-9.15l-25.929-14.216c-4.083-1.639-7.064-1.282-7.064,2.98h0a10.909,10.909,0,0,0,5.573,10.372Z" transform="translate(-272.976 236.086)" fill="#fff"/>
      <path id="Path_78186" data-name="Path 78186" d="M439.18,303.439a17.554,17.554,0,0,1,19.522,0h1.58v2.98c0,3.338-5.067,5.961-11.326,5.961s-11.325-2.653-11.325-5.961v-2.98Z" transform="translate(-101.582 242.956)" fill="#3f2a28"/>
      <path id="Path_78187" data-name="Path 78187" d="M448.926,299.44c-6.259,0-11.325,2.712-11.3,5.961s5.067,5.961,11.325,5.961,11.326-2.742,11.326-5.961S455.185,299.44,448.926,299.44Z" transform="translate(-101.583 240.906)" fill="#634947"/>
      <path id="Path_78188" data-name="Path 78188" d="M451.371,302.534a11.356,11.356,0,0,1,7.421-2.295,11.713,11.713,0,0,1,7.481,2.265h1.043v2.325c0,2.563-3.845,4.62-8.643,4.62S450,307.422,450,304.859v-2.325Z" transform="translate(-145.485 242.461)" fill="#3f2a28"/>
      <path id="Path_78189" data-name="Path 78189" d="M458.593,299.41c-4.769,0-8.643,2.086-8.643,4.62s3.9,4.59,8.673,4.59,8.673-2.086,8.643-4.62S463.391,299.41,458.593,299.41Z" transform="translate(-145.286 240.846)" fill="#634947"/>
      <path id="Path_78190" data-name="Path 78190" d="M446.162,299.455a11.682,11.682,0,0,1,7.451-2.265,11.564,11.564,0,0,1,7.451,2.235h1.252v2.355c0,2.533-3.875,4.62-8.643,4.62S445,304.343,445,301.81v-2.176Z" transform="translate(-125.583 236.42)" fill="#3f2a28"/>
      <path id="Path_78191" data-name="Path 78191" d="M453.653,296.39c-4.769,0-8.643,2.086-8.643,4.649s3.875,4.59,8.673,4.59,8.643-2.086,8.643-4.649S458.452,296.39,453.653,296.39Z" transform="translate(-125.623 234.866)" fill="#634947"/>
      <path id="Path_78192" data-name="Path 78192" d="M441.522,296.315a11.385,11.385,0,0,1,7.451-2.295,11.505,11.505,0,0,1,7.451,2.265h1.222v2.325c0,2.533-3.875,4.62-8.673,4.62s-8.643-2.027-8.673-4.59v-2.325Z" transform="translate(-106.905 230.142)" fill="#3f2a28"/>
      <path id="Path_78193" data-name="Path 78193" d="M448.973,293.23c-4.8,0-8.673,2.057-8.673,4.62s3.9,4.59,8.673,4.59,8.673-2.086,8.673-4.62S453.742,293.2,448.973,293.23Z" transform="translate(-106.905 228.607)" fill="#634947"/>
      <path id="Path_78194" data-name="Path 78194" d="M431.8,301.5a2.54,2.54,0,0,1,0-.477V298.49l1.49.328a4.983,4.983,0,0,1,.775-.507,10.253,10.253,0,0,1,9.329-.387l9.09,5.305,3.755.835v2.98h0a3.994,3.994,0,0,1-2.265,2.98h0a10.431,10.431,0,0,1-9.329.387l-11.326-6.557a2.98,2.98,0,0,1-1.58-2.116h0Z" transform="translate(-79.986 236.044)" fill="#3f2a28"/>
      <path id="Path_78195" data-name="Path 78195" d="M444.647,309.386l-11.326-6.527c-2.384-1.4-2.086-3.815.685-5.395h0a10.342,10.342,0,0,1,9.329-.388l11.325,6.527c2.384,1.371,2.057,3.815-.685,5.395h0a10.431,10.431,0,0,1-9.329.388Z" transform="translate(-79.928 234.388)" fill="#634947"/>
      <path id="Path_78196" data-name="Path 78196" d="M442.422,307.986a1.284,1.284,0,0,1,0-.477v-2.5l1.46.328.775-.536a10.431,10.431,0,0,1,9.329-.387l9.21,5.305,3.725.864v2.98h0a3.815,3.815,0,0,1-2.265,2.98h0a10.253,10.253,0,0,1-9.329.387L444,310.4a2.8,2.8,0,0,1-1.55-2.116h0Z" transform="translate(-122.439 248.931)" fill="#3f2a28"/>
      <path id="Path_78197" data-name="Path 78197" d="M455.324,315.908,444,309.351c-2.384-1.371-2.057-3.785.685-5.395h0a10.431,10.431,0,0,1,9.329-.387l11.326,6.557c2.384,1.371,2.086,3.785-.685,5.395h0a10.432,10.432,0,0,1-9.329.387Z" transform="translate(-122.466 247.267)" fill="#634947"/>
      <path id="Path_78198" data-name="Path 78198" d="M164.818,200.081l21.191-12.22-4.858-2.8L159.99,197.28Z" transform="translate(192.062 366.492)" fill="#fff"/>
    </g>
  </g>
</svg>
