<svg xmlns="http://www.w3.org/2000/svg" width="24" height="24" viewBox="0 0 24 24">
  <path id="memo-circle-check" d="M18,12a6,6,0,1,0,6,6A6,6,0,0,0,18,12Zm3.192,6.2-2.213,2.124A2.348,2.348,0,0,1,17.326,21a2.375,2.375,0,0,1-1.663-.674l-1.132-1.109a1,1,0,1,1,1.4-1.428l1.131,1.108a.374.374,0,0,0,.522,0l2.223-2.134A1,1,0,0,1,21.192,18.2ZM10,18a7.98,7.98,0,0,1,2.709-6H5a1,1,0,0,1,0-2h8a1,1,0,0,1,1,1q0,.036,0,.072A7.958,7.958,0,0,1,18,10V5a5.006,5.006,0,0,0-5-5H5A5.006,5.006,0,0,0,0,5V19a5.006,5.006,0,0,0,5,5h7.709A7.98,7.98,0,0,1,10,18ZM5,5h8a1,1,0,0,1,0,2H5A1,1,0,0,1,5,5ZM7,17H5a1,1,0,0,1,0-2H7a1,1,0,0,1,0,2Z" fill="#259f8b"/>
</svg>
