<svg xmlns="http://www.w3.org/2000/svg" width="28.668" height="28.669" viewBox="0 0 28.668 28.669">
  <path id="Icon_awesome-phone-alt" data-name="Icon awesome-phone-alt" d="M27.851,20.259l-6.271-2.688a1.344,1.344,0,0,0-1.568.386l-2.777,3.393a20.755,20.755,0,0,1-9.922-9.922l3.393-2.777a1.34,1.34,0,0,0,.386-1.568L8.4.813A1.353,1.353,0,0,0,6.865.034L1.041,1.378A1.344,1.344,0,0,0,0,2.688,25.978,25.978,0,0,0,25.981,28.669a1.344,1.344,0,0,0,1.31-1.041L28.635,21.8A1.36,1.36,0,0,0,27.851,20.259Z" transform="translate(0 0)" fill="#259f8b"/>
</svg>
