<svg xmlns="http://www.w3.org/2000/svg" width="21.908" height="21.908" viewBox="0 0 21.908 21.908">
  <g id="instagram" transform="translate(0 21.908) rotate(-90)">
    <g id="Group_1285" data-name="Group 1285" transform="translate(0 0)">
      <g id="Group_1284" data-name="Group 1284">
        <path id="Path_1209" data-name="Path 1209" d="M15.544,0H6.364A6.371,6.371,0,0,0,0,6.364v9.18a6.371,6.371,0,0,0,6.364,6.364h9.18a6.371,6.371,0,0,0,6.364-6.364V6.364A6.371,6.371,0,0,0,15.544,0ZM20.2,15.544A4.658,4.658,0,0,1,15.544,20.2H6.364a4.658,4.658,0,0,1-4.652-4.652V6.364A4.658,4.658,0,0,1,6.364,1.712h9.18A4.658,4.658,0,0,1,20.2,6.364Z" fill="#363636"/>
      </g>
    </g>
    <g id="Group_1287" data-name="Group 1287" transform="translate(5.049 5.049)">
      <g id="Group_1286" data-name="Group 1286">
        <path id="Path_1210" data-name="Path 1210" d="M5.9,0a5.9,5.9,0,1,0,5.9,5.9A5.912,5.912,0,0,0,5.9,0Zm0,10.1A4.193,4.193,0,1,1,10.1,5.9,4.2,4.2,0,0,1,5.9,10.1Z" fill="#363636"/>
      </g>
    </g>
    <g id="Group_1289" data-name="Group 1289" transform="translate(16.089 4.108)">
      <g id="Group_1288" data-name="Group 1288">
        <circle id="Ellipse_91" data-name="Ellipse 91" cx="0.856" cy="0.856" r="0.856" fill="#363636"/>
      </g>
    </g>
  </g>
</svg>
