<svg width="84" height="145" viewBox="0 0 84 145" fill="none" xmlns="http://www.w3.org/2000/svg">
<path opacity="0.2" d="M75.473 130.924C77.921 130.924 79.825 131.536 81.185 132.76C82.545 133.984 83.225 135.684 83.225 137.86C83.225 140.172 82.545 141.94 81.185 143.164C79.961 144.388 78.057 145 75.473 145H7.94898C5.36498 145 3.39298 144.388 2.03298 143.164C0.808981 141.94 0.196981 140.172 0.196981 137.86C0.196981 135.684 0.876981 133.984 2.23698 132.76C3.59698 131.536 5.50098 130.924 7.94898 130.924H33.245V21.58L11.009 36.064C9.92098 36.744 8.83298 37.084 7.74498 37.084C5.84098 37.084 4.14098 36.2 2.64498 34.432C1.28498 32.664 0.60498 30.76 0.60498 28.72C0.60498 25.864 1.69298 23.824 3.86898 22.6L34.877 2.40399C37.189 0.907991 39.569 0.159992 42.017 0.159992C44.329 0.159992 46.233 0.907991 47.729 2.40399C49.225 3.89999 49.973 6.00799 49.973 8.72799V130.924H75.473Z" fill="white"/>
</svg>
