<svg width="99" height="146" viewBox="0 0 99 146" fill="none" xmlns="http://www.w3.org/2000/svg">
<path opacity="0.2" d="M91.194 131.924C93.642 131.924 95.546 132.536 96.906 133.76C98.266 134.984 98.946 136.684 98.946 138.86C98.946 143.62 96.362 146 91.194 146H11.226C8.91401 146 7.01001 145.32 5.51401 143.96C4.01801 142.464 3.27001 140.696 3.27001 138.656C3.27001 136.072 4.22201 133.828 6.12601 131.924L55.29 77.864C62.09 70.248 66.986 63.448 69.978 57.464C73.106 51.344 74.67 45.224 74.67 39.104C74.67 31.216 72.358 25.164 67.734 20.948C63.246 16.732 56.854 14.624 48.558 14.624C42.03 14.624 35.774 15.848 29.79 18.296C23.806 20.608 17.822 24.212 11.838 29.108C9.79801 30.74 7.89401 31.556 6.12601 31.556C4.63001 31.556 3.33801 30.876 2.25001 29.516C1.16201 28.02 0.618012 26.252 0.618012 24.212C0.618012 21.356 1.70601 19.044 3.88201 17.276C9.45801 12.108 16.258 8.02799 24.282 5.03599C32.306 2.04399 40.534 0.547988 48.966 0.547988C61.886 0.547988 72.154 3.94799 79.77 10.748C87.522 17.548 91.398 26.728 91.398 38.288C91.398 46.584 89.494 54.54 85.686 62.156C82.014 69.772 75.894 78.272 67.326 87.656L26.526 131.924H91.194Z" fill="white"/>
</svg>
