<svg width="97" height="148" viewBox="0 0 97 148" fill="none" xmlns="http://www.w3.org/2000/svg">
<path opacity="0.2" d="M69.8457 72.152C78.5497 74.6 85.1457 78.816 89.6337 84.8C94.2577 90.784 96.5697 98.196 96.5697 107.036C96.5697 119.548 92.3537 129.408 83.9217 136.616C75.4897 143.824 63.9977 147.428 49.4457 147.428C40.6057 147.428 32.1057 145.932 23.9457 142.94C15.9217 139.948 9.12173 135.868 3.54573 130.7C1.36973 128.66 0.281727 126.348 0.281727 123.764C0.281727 121.724 0.825727 120.024 1.91373 118.664C3.00173 117.304 4.29373 116.624 5.78973 116.624C7.69373 116.624 9.59773 117.372 11.5017 118.868C17.7577 123.9 23.8777 127.572 29.8617 129.884C35.8457 132.196 42.3057 133.352 49.2417 133.352C59.3057 133.352 66.9217 131.04 72.0897 126.416C77.3937 121.792 80.0457 115.128 80.0457 106.424C80.0457 88.88 69.0297 80.108 46.9977 80.108H36.1857C34.0097 80.108 32.2417 79.428 30.8817 78.068C29.6577 76.572 29.0457 74.872 29.0457 72.968C29.0457 71.064 29.6577 69.432 30.8817 68.072C32.2417 66.712 34.0097 66.032 36.1857 66.032H43.7337C54.3417 66.032 62.5017 63.72 68.2137 59.096C73.9257 54.336 76.7817 47.536 76.7817 38.696C76.7817 30.944 74.4697 25.028 69.8457 20.948C65.2217 16.732 58.6937 14.624 50.2617 14.624C43.8697 14.624 37.6817 15.848 31.6977 18.296C25.7137 20.608 19.7297 24.212 13.7457 29.108C11.8417 30.604 9.93773 31.352 8.03373 31.352C6.53773 31.352 5.24573 30.672 4.15773 29.312C3.06973 27.952 2.52573 26.252 2.52573 24.212C2.52573 21.628 3.61373 19.316 5.78973 17.276C11.3657 12.108 18.0977 8.02799 25.9857 5.03599C34.0097 2.04399 42.2377 0.547988 50.6697 0.547988C63.7257 0.547988 74.0617 3.87999 81.6777 10.544C89.4297 17.072 93.3057 25.912 93.3057 37.064C93.3057 45.36 91.1977 52.636 86.9817 58.892C82.9017 65.012 77.1897 69.432 69.8457 72.152Z" fill="white"/>
</svg>
