<svg width="27" height="27" viewBox="0 0 27 27" fill="none" xmlns="http://www.w3.org/2000/svg">
<path d="M14.8707 0.167992C15.8436 0.164258 16.8166 0.174037 17.7893 0.197325L18.048 0.206659C18.3467 0.217325 18.6413 0.230659 18.9973 0.246659C20.416 0.313325 21.384 0.537325 22.2333 0.866659C23.1133 1.20533 23.8547 1.66399 24.596 2.40532C25.2738 3.07147 25.7984 3.87725 26.1333 4.76666C26.4627 5.61599 26.6867 6.58532 26.7533 8.00399C26.7693 8.35866 26.7827 8.65466 26.7933 8.95332L26.8013 9.21199C26.825 10.1842 26.8352 11.1568 26.832 12.1293L26.8333 13.124V14.8707C26.8366 15.8436 26.8264 16.8166 26.8027 17.7893L26.7947 18.048C26.784 18.3467 26.7707 18.6413 26.7547 18.9973C26.688 20.416 26.4613 21.384 26.1333 22.2333C25.7995 23.1237 25.2748 23.9301 24.596 24.596C23.9293 25.2738 23.1231 25.7983 22.2333 26.1333C21.384 26.4627 20.416 26.6867 18.9973 26.7533C18.6413 26.7693 18.3467 26.7827 18.048 26.7933L17.7893 26.8013C16.8166 26.825 15.8437 26.8353 14.8707 26.832L13.876 26.8333H12.1307C11.1577 26.8366 10.1847 26.8264 9.212 26.8027L8.95333 26.7947C8.63681 26.7832 8.32036 26.7698 8.004 26.7547C6.58533 26.688 5.61733 26.4613 4.76667 26.1333C3.87691 25.7991 3.07098 25.2744 2.40533 24.596C1.72673 23.9297 1.20163 23.1234 0.866667 22.2333C0.537333 21.384 0.313333 20.416 0.246667 18.9973C0.231817 18.6809 0.218484 18.3645 0.206667 18.048L0.2 17.7893C0.175418 16.8166 0.164306 15.8437 0.166667 14.8707V12.1293C0.162945 11.1568 0.172724 10.1843 0.196 9.21199L0.205333 8.95332C0.216 8.65466 0.229333 8.35866 0.245333 8.00399C0.312 6.58399 0.536 5.61732 0.865333 4.76666C1.2005 3.87682 1.72662 3.07125 2.40667 2.40666C3.07186 1.72766 3.87728 1.20209 4.76667 0.866659C5.61733 0.537325 6.584 0.313325 8.004 0.246659L8.95333 0.206659L9.212 0.199992C10.1842 0.175422 11.1568 0.16431 12.1293 0.166659L14.8707 0.167992ZM13.5 6.83466C12.6167 6.82217 11.7397 6.98536 10.92 7.31475C10.1003 7.64414 9.3542 8.13316 8.72513 8.7534C8.09606 9.37363 7.59653 10.1127 7.25558 10.9277C6.91463 11.7426 6.73906 12.6172 6.73906 13.5007C6.73906 14.3841 6.91463 15.2587 7.25558 16.0736C7.59653 16.8886 8.09606 17.6277 8.72513 18.2479C9.3542 18.8682 10.1003 19.3572 10.92 19.6866C11.7397 20.016 12.6167 20.1792 13.5 20.1667C15.2681 20.1667 16.9638 19.4643 18.214 18.214C19.4643 16.9638 20.1667 15.2681 20.1667 13.5C20.1667 11.7319 19.4643 10.0362 18.214 8.78595C16.9638 7.5357 15.2681 6.83466 13.5 6.83466ZM13.5 9.50132C14.0313 9.49153 14.5593 9.58772 15.0531 9.78427C15.5468 9.98081 15.9964 10.2738 16.3757 10.6461C16.755 11.0183 17.0562 11.4624 17.2619 11.9524C17.4676 12.4425 17.5736 12.9685 17.5737 13.5C17.5738 14.0314 17.468 14.5575 17.2624 15.0476C17.0569 15.5377 16.7558 15.9819 16.3767 16.3543C15.9975 16.7267 15.548 17.0198 15.0543 17.2165C14.5606 17.4132 14.0327 17.5096 13.5013 17.5C12.4405 17.5 11.4231 17.0786 10.6729 16.3284C9.92276 15.5783 9.50133 14.5609 9.50133 13.5C9.50133 12.4391 9.92276 11.4217 10.6729 10.6716C11.4231 9.92142 12.4405 9.49999 13.5013 9.49999L13.5 9.50132ZM20.5 4.83466C20.0699 4.85187 19.6631 5.03486 19.3648 5.34529C19.0666 5.65571 18.9 6.0695 18.9 6.49999C18.9 6.93048 19.0666 7.34427 19.3648 7.6547C19.6631 7.96512 20.0699 8.14811 20.5 8.16532C20.942 8.16532 21.366 7.98973 21.6785 7.67717C21.9911 7.36461 22.1667 6.94069 22.1667 6.49866C22.1667 6.05663 21.9911 5.63271 21.6785 5.32015C21.366 5.00759 20.942 4.83199 20.5 4.83199V4.83466Z" fill="black"/>
</svg>
