<svg id="Icon_ionic-ios-close-circle-outline" data-name="Icon ionic-ios-close-circle-outline" xmlns="http://www.w3.org/2000/svg" width="25.584" height="25.584" viewBox="0 0 25.584 25.584">
  <path id="Path_103144" data-name="Path 103144" d="M21.924,20.533l-3.241-3.241,3.241-3.241a.983.983,0,0,0-1.39-1.39L17.293,15.9l-3.241-3.241a.983.983,0,1,0-1.39,1.39L15.9,17.292l-3.241,3.241a.95.95,0,0,0,0,1.39.976.976,0,0,0,1.39,0l3.241-3.241,3.241,3.241a.987.987,0,0,0,1.39,0A.976.976,0,0,0,21.924,20.533Z" transform="translate(-4.501 -4.5)" fill="#bf0b0b"/>
  <path id="Path_103145" data-name="Path 103145" d="M16.167,5.1A11.066,11.066,0,1,1,8.338,8.338,11,11,0,0,1,16.167,5.1m0-1.722A12.792,12.792,0,1,0,28.959,16.167,12.79,12.79,0,0,0,16.167,3.375Z" transform="translate(-3.375 -3.375)" fill="#bf0b0b"/>
</svg>
