<svg width="51" height="50" viewBox="0 0 51 50" fill="none" xmlns="http://www.w3.org/2000/svg">
<g clip-path="url(#clip0_444_1230)">
<path d="M15.2493 0H8.99935C6.78921 0 4.6696 0.877974 3.10679 2.44078C1.54399 4.00358 0.666016 6.1232 0.666016 8.33333L0.666016 14.5833C0.666016 16.7935 1.54399 18.9131 3.10679 20.4759C4.6696 22.0387 6.78921 22.9167 8.99935 22.9167H15.2493C17.4595 22.9167 19.5791 22.0387 21.1419 20.4759C22.7047 18.9131 23.5827 16.7935 23.5827 14.5833V8.33333C23.5827 6.1232 22.7047 4.00358 21.1419 2.44078C19.5791 0.877974 17.4595 0 15.2493 0V0ZM19.416 14.5833C19.416 15.6884 18.977 16.7482 18.1956 17.5296C17.4142 18.311 16.3544 18.75 15.2493 18.75H8.99935C7.89428 18.75 6.83447 18.311 6.05307 17.5296C5.27167 16.7482 4.83268 15.6884 4.83268 14.5833V8.33333C4.83268 7.22826 5.27167 6.16846 6.05307 5.38705C6.83447 4.60565 7.89428 4.16667 8.99935 4.16667H15.2493C16.3544 4.16667 17.4142 4.60565 18.1956 5.38705C18.977 6.16846 19.416 7.22826 19.416 8.33333V14.5833Z" fill="#25BA6A"/>
<path d="M15.2493 27.0835H8.99935C6.78921 27.0835 4.6696 27.9615 3.10679 29.5243C1.54399 31.0871 0.666016 33.2067 0.666016 35.4168L0.666016 41.6668C0.666016 43.877 1.54399 45.9966 3.10679 47.5594C4.6696 49.1222 6.78921 50.0002 8.99935 50.0002H15.2493C17.4595 50.0002 19.5791 49.1222 21.1419 47.5594C22.7047 45.9966 23.5827 43.877 23.5827 41.6668V35.4168C23.5827 33.2067 22.7047 31.0871 21.1419 29.5243C19.5791 27.9615 17.4595 27.0835 15.2493 27.0835ZM19.416 41.6668C19.416 42.7719 18.977 43.8317 18.1956 44.6131C17.4142 45.3945 16.3544 45.8335 15.2493 45.8335H8.99935C7.89428 45.8335 6.83447 45.3945 6.05307 44.6131C5.27167 43.8317 4.83268 42.7719 4.83268 41.6668V35.4168C4.83268 34.3118 5.27167 33.252 6.05307 32.4706C6.83447 31.6892 7.89428 31.2502 8.99935 31.2502H15.2493C16.3544 31.2502 17.4142 31.6892 18.1956 32.4706C18.977 33.252 19.416 34.3118 19.416 35.4168V41.6668Z" fill="#25BA6A"/>
<path d="M42.3333 27.0835H36.0833C33.8732 27.0835 31.7536 27.9615 30.1908 29.5243C28.628 31.0871 27.75 33.2067 27.75 35.4168V41.6668C27.75 43.877 28.628 45.9966 30.1908 47.5594C31.7536 49.1222 33.8732 50.0002 36.0833 50.0002H42.3333C44.5434 50.0002 46.6631 49.1222 48.2259 47.5594C49.7887 45.9966 50.6666 43.877 50.6666 41.6668V35.4168C50.6666 33.2067 49.7887 31.0871 48.2259 29.5243C46.6631 27.9615 44.5434 27.0835 42.3333 27.0835ZM46.5 41.6668C46.5 42.7719 46.061 43.8317 45.2796 44.6131C44.4982 45.3945 43.4384 45.8335 42.3333 45.8335H36.0833C34.9783 45.8335 33.9184 45.3945 33.137 44.6131C32.3556 43.8317 31.9167 42.7719 31.9167 41.6668V35.4168C31.9167 34.3118 32.3556 33.252 33.137 32.4706C33.9184 31.6892 34.9783 31.2502 36.0833 31.2502H42.3333C43.4384 31.2502 44.4982 31.6892 45.2796 32.4706C46.061 33.252 46.5 34.3118 46.5 35.4168V41.6668Z" fill="#25BA6A"/>
<path d="M29.8333 14.5835H36.0833V20.8335C36.0833 21.386 36.3028 21.9159 36.6935 22.3066C37.0842 22.6973 37.6141 22.9168 38.1667 22.9168C38.7192 22.9168 39.2491 22.6973 39.6398 22.3066C40.0305 21.9159 40.25 21.386 40.25 20.8335V14.5835H46.5C47.0525 14.5835 47.5824 14.364 47.9731 13.9733C48.3638 13.5826 48.5833 13.0527 48.5833 12.5002C48.5833 11.9476 48.3638 11.4177 47.9731 11.027C47.5824 10.6363 47.0525 10.4168 46.5 10.4168H40.25V4.16683C40.25 3.6143 40.0305 3.08439 39.6398 2.69369C39.2491 2.30299 38.7192 2.0835 38.1667 2.0835C37.6141 2.0835 37.0842 2.30299 36.6935 2.69369C36.3028 3.08439 36.0833 3.6143 36.0833 4.16683V10.4168H29.8333C29.2808 10.4168 28.7509 10.6363 28.3602 11.027C27.9695 11.4177 27.75 11.9476 27.75 12.5002C27.75 13.0527 27.9695 13.5826 28.3602 13.9733C28.7509 14.364 29.2808 14.5835 29.8333 14.5835Z" fill="#25BA6A"/>
</g>
<defs>
<clipPath id="clip0_444_1230">
<rect width="50" height="50" fill="white" transform="translate(0.666016)"/>
</clipPath>
</defs>
</svg>
