<svg xmlns="http://www.w3.org/2000/svg" width="19.453" height="19.453" viewBox="0 0 19.453 19.453">
  <path id="Icon_ionic-logo-whatsapp" data-name="Icon ionic-logo-whatsapp" d="M12.153,2.25A9.513,9.513,0,0,0,2.6,11.726a9.378,9.378,0,0,0,1.37,4.893L2.25,21.7l5.287-1.68a9.566,9.566,0,0,0,14.166-8.3A9.513,9.513,0,0,0,12.153,2.25ZM16.9,15.325a2.467,2.467,0,0,1-1.689,1.089c-.448.024-.461.347-2.9-.714a9.964,9.964,0,0,1-4.026-3.807,4.683,4.683,0,0,1-.9-2.538,2.706,2.706,0,0,1,.929-1.985.935.935,0,0,1,.661-.278c.192,0,.317-.006.459,0s.356-.03.541.462.627,1.7.684,1.823a.442.442,0,0,1,0,.424,1.658,1.658,0,0,1-.259.394c-.127.137-.268.306-.382.41s-.259.242-.126.489a7.308,7.308,0,0,0,1.293,1.725A6.663,6.663,0,0,0,13.1,14.092c.239.13.382.116.531-.04s.636-.684.807-.919.333-.19.553-.1,1.4.719,1.636.849.4.2.456.3A2.005,2.005,0,0,1,16.9,15.325Z" transform="translate(-2.25 -2.25)" fill="#363636"/>
</svg>
