<svg id="envelope" xmlns="http://www.w3.org/2000/svg" width="20.739" height="15.394" viewBox="0 0 20.739 15.394">
  <g id="Group_1292" data-name="Group 1292" transform="translate(0 0)">
    <path id="Path_1214" data-name="Path 1214" d="M1.99,59.565q.394.262,2.372,1.558t3.032,2q.116.077.492.334t.625.416q.249.158.6.355a3.589,3.589,0,0,0,.665.295,1.93,1.93,0,0,0,.579.1h.023a1.932,1.932,0,0,0,.579-.1,3.592,3.592,0,0,0,.665-.295q.353-.2.6-.355t.625-.416q.376-.257.492-.334l5.416-3.553a5.352,5.352,0,0,0,1.412-1.345,2.78,2.78,0,0,0,.567-1.651,1.631,1.631,0,0,0-.55-1.235,1.842,1.842,0,0,0-1.3-.514H1.852a1.7,1.7,0,0,0-1.371.568A2.127,2.127,0,0,0,0,56.81,2.476,2.476,0,0,0,.637,58.3,5.606,5.606,0,0,0,1.99,59.565Z" transform="translate(0 -54.82)" fill="#363636"/>
    <path id="Path_1215" data-name="Path 1215" d="M19.581,185.388q-3.8,2.427-5.763,3.772-.66.459-1.07.716a6.764,6.764,0,0,1-1.094.525,3.5,3.5,0,0,1-1.273.268h-.023a3.5,3.5,0,0,1-1.273-.268,6.768,6.768,0,0,1-1.094-.525q-.411-.257-1.07-.716-1.562-1.082-5.752-3.772A6.048,6.048,0,0,1,0,184.437v8.681a1.639,1.639,0,0,0,.544,1.236,1.836,1.836,0,0,0,1.308.514H18.887a1.836,1.836,0,0,0,1.308-.514,1.639,1.639,0,0,0,.544-1.236v-8.681A6.29,6.29,0,0,1,19.581,185.388Z" transform="translate(0 -179.474)" fill="#363636"/>
  </g>
</svg>
