<svg xmlns="http://www.w3.org/2000/svg" width="26.188" height="29.929" viewBox="0 0 26.188 29.929">
  <path id="Icon_awesome-calendar-alt" data-name="Icon awesome-calendar-alt" d="M0,27.123a2.807,2.807,0,0,0,2.806,2.806H23.382a2.807,2.807,0,0,0,2.806-2.806v-15.9H0ZM18.705,15.666a.7.7,0,0,1,.7-.7h2.338a.7.7,0,0,1,.7.7V18a.7.7,0,0,1-.7.7H19.407a.7.7,0,0,1-.7-.7Zm0,7.482a.7.7,0,0,1,.7-.7h2.338a.7.7,0,0,1,.7.7v2.338a.7.7,0,0,1-.7.7H19.407a.7.7,0,0,1-.7-.7Zm-7.482-7.482a.7.7,0,0,1,.7-.7h2.338a.7.7,0,0,1,.7.7V18a.7.7,0,0,1-.7.7H11.925a.7.7,0,0,1-.7-.7Zm0,7.482a.7.7,0,0,1,.7-.7h2.338a.7.7,0,0,1,.7.7v2.338a.7.7,0,0,1-.7.7H11.925a.7.7,0,0,1-.7-.7ZM3.741,15.666a.7.7,0,0,1,.7-.7H6.781a.7.7,0,0,1,.7.7V18a.7.7,0,0,1-.7.7H4.443a.7.7,0,0,1-.7-.7Zm0,7.482a.7.7,0,0,1,.7-.7H6.781a.7.7,0,0,1,.7.7v2.338a.7.7,0,0,1-.7.7H4.443a.7.7,0,0,1-.7-.7ZM23.382,3.741H20.576V.935A.938.938,0,0,0,19.641,0H17.77a.938.938,0,0,0-.935.935V3.741H9.353V.935A.938.938,0,0,0,8.417,0H6.547a.938.938,0,0,0-.935.935V3.741H2.806A2.807,2.807,0,0,0,0,6.547V9.353H26.188V6.547A2.807,2.807,0,0,0,23.382,3.741Z" fill="#363636"/>
</svg>
