<svg width="51" height="50" viewBox="0 0 51 50" fill="none" xmlns="http://www.w3.org/2000/svg">
<g clip-path="url(#clip0_444_1242)">
<path d="M46.2852 10.8954L30.9227 3.57663C27.5411 1.55671 23.3321 1.52087 19.9164 3.48288L4.38109 10.8954C4.32279 10.9246 4.26234 10.9558 4.20609 10.9891C0.519376 13.0971 -0.760507 17.7947 1.3475 21.4814C2.06205 22.7312 3.11313 23.7552 4.38109 24.4371L8.66654 26.4788V36.6871C8.66908 41.2518 11.6393 45.2846 15.9978 46.6413C19.0309 47.5187 22.1759 47.9483 25.3332 47.9163C28.4901 47.9516 31.6351 47.5257 34.6687 46.6517C39.0272 45.2952 41.9974 41.2623 41.9999 36.6975V26.4746L46.1666 24.4829V41.6662C46.1666 42.8168 47.0994 43.7495 48.2499 43.7495C49.4005 43.7495 50.3332 42.8168 50.3332 41.6662V16.6662C50.3471 14.2198 48.4155 11.9598 46.2852 10.8954ZM37.8331 36.6975C37.8342 39.4279 36.0627 41.843 33.4581 42.6621C30.8169 43.4168 28.0799 43.7831 25.3331 43.7496C22.5864 43.7831 19.8494 43.4168 17.2081 42.6621C14.6036 41.8429 12.8321 39.4279 12.8331 36.6975V28.4642L19.7436 31.7559C21.4487 32.7684 23.396 33.3005 25.379 33.2955C27.2665 33.3089 29.1223 32.8091 30.7478 31.8497L37.8331 28.4641V36.6975ZM44.4998 20.6766L28.7873 28.1766C26.5965 29.4523 23.881 29.4162 21.7248 28.0829L6.3519 20.7704C4.63832 19.8464 3.99828 17.7082 4.92231 15.9947C5.23481 15.4152 5.70336 14.9348 6.27484 14.6079L21.8894 7.14958C24.0809 5.87673 26.795 5.91276 28.9519 7.24333L44.3144 14.5621C45.4442 15.1894 46.151 16.3741 46.1664 17.6663C46.1685 18.8903 45.5382 20.0286 44.4998 20.6766Z" fill="#008080"/>
</g>
<defs>
<clipPath id="clip0_444_1242">
<rect width="50" height="50" fill="white" transform="translate(0.333496)"/>
</clipPath>
</defs>
</svg>
