<svg width="24" height="18" viewBox="0 0 24 18" fill="none" xmlns="http://www.w3.org/2000/svg">
<path fill-rule="evenodd" clip-rule="evenodd" d="M22.425 2.526L12.9555 10.368C12.6864 10.5909 12.3479 10.7129 11.9985 10.7129C11.6491 10.7129 11.3106 10.5909 11.0415 10.368L1.5765 2.526C1.52571 2.67887 1.49988 2.83892 1.5 3V15C1.5 15.3978 1.65804 15.7794 1.93934 16.0607C2.22064 16.342 2.60218 16.5 3 16.5H21C21.3978 16.5 21.7794 16.342 22.0607 16.0607C22.342 15.7794 22.5 15.3978 22.5 15V3C22.5006 2.839 22.4753 2.67895 22.425 2.526ZM3 0H21C21.7956 0 22.5587 0.31607 23.1213 0.87868C23.6839 1.44129 24 2.20435 24 3V15C24 15.7956 23.6839 16.5587 23.1213 17.1213C22.5587 17.6839 21.7956 18 21 18H3C2.20435 18 1.44129 17.6839 0.87868 17.1213C0.316071 16.5587 0 15.7956 0 15V3C0 2.20435 0.316071 1.44129 0.87868 0.87868C1.44129 0.31607 2.20435 0 3 0ZM2.685 1.5L11.049 8.4045C11.3169 8.62576 11.6533 8.74716 12.0007 8.74798C12.3481 8.7488 12.6851 8.62899 12.954 8.409L21.402 1.5H2.685Z" fill="#626467"/>
</svg>
