<svg id="old-handphone" xmlns="http://www.w3.org/2000/svg" width="19.447" height="19.454" viewBox="0 0 19.447 19.454">
  <path id="Path_1213" data-name="Path 1213" d="M6.11,6.44,1.618,1.946,3.357.2A.69.69,0,0,1,4.329.2l3.5,3.5a.693.693,0,0,1,0,.977l-.767.765-.714.714A1.965,1.965,0,0,0,6.11,6.44Zm3.7,7.321c-.735-.633-1.441-1.3-2.126-1.988s-1.353-1.391-1.987-2.13a2.213,2.213,0,0,1-.349-2.2L.733,2.832C-.341,3.935-.2,6.671.972,9.074a17.3,17.3,0,0,0,1.836,2.87,25.724,25.724,0,0,0,2.2,2.508,24.5,24.5,0,0,0,2.5,2.205,17.308,17.308,0,0,0,2.866,1.833c2.407,1.175,5.143,1.3,6.245.229l-4.612-4.612A2.222,2.222,0,0,1,9.805,13.761Zm9.446,1.361-3.5-3.5a.7.7,0,0,0-.977,0h0L14,12.392l-.709.712a2.151,2.151,0,0,1-.285.236L17.5,17.834q.871-.873,1.743-1.741A.685.685,0,0,0,19.251,15.122Z" transform="translate(-0.003 0)" fill="#363636"/>
</svg>
