<svg xmlns="http://www.w3.org/2000/svg" width="20" height="24" viewBox="0 0 20 24">
  <path id="ballot" d="M17,0H7A5.006,5.006,0,0,0,2,5V19a5.006,5.006,0,0,0,5,5H17a5.006,5.006,0,0,0,5-5V5A5.006,5.006,0,0,0,17,0ZM10,19a1,1,0,0,1-1,1H7a1,1,0,0,1-1-1V17a1,1,0,0,1,1-1H9a1,1,0,0,1,1,1Zm0-6a1,1,0,0,1-1,1H7a1,1,0,0,1-1-1V11a1,1,0,0,1,1-1H9a1,1,0,0,1,1,1Zm0-6A1,1,0,0,1,9,8H7A1,1,0,0,1,6,7V5A1,1,0,0,1,7,4H9a1,1,0,0,1,1,1Zm7,12H13a1,1,0,0,1,0-2h4A1,1,0,0,1,17,19Zm0-6H13a1,1,0,0,1,0-2h4A1,1,0,0,1,17,13Zm0-6H13a1,1,0,0,1,0-2h4A1,1,0,0,1,17,7Z" transform="translate(-2)" fill="#259f8b"/>
</svg>
