<svg width="50" height="50" viewBox="0 0 50 50" fill="none" xmlns="http://www.w3.org/2000/svg">
<g clip-path="url(#clip0_444_1237)">
<path d="M38.7107 4.45981L25.6587 0.107728C25.2313 -0.0346073 24.7693 -0.0346073 24.342 0.107728L11.2899 4.45981C9.21472 5.14915 7.40953 6.47493 6.13084 8.24879C4.85215 10.0227 4.16499 12.1544 4.167 14.3411V25.0015C4.167 40.7577 23.3337 49.4598 24.1545 49.8223C24.4208 49.9406 24.7089 50.0017 25.0003 50.0017C25.2917 50.0017 25.5799 49.9406 25.8462 49.8223C26.667 49.4598 45.8337 40.7577 45.8337 25.0015V14.3411C45.8357 12.1544 45.1485 10.0227 43.8698 8.24879C42.5911 6.47493 40.7859 5.14915 38.7107 4.45981ZM41.667 25.0015C41.667 36.3661 28.5024 43.8202 25.0003 45.6036C21.4941 43.8265 8.33366 36.3952 8.33366 25.0015V14.3411C8.33379 13.0291 8.74674 11.7505 9.51401 10.6864C10.2813 9.6222 11.364 8.82646 12.6087 8.4119L25.0003 4.28064L37.392 8.4119C38.6367 8.82646 39.7194 9.6222 40.4867 10.6864C41.2539 11.7505 41.6669 13.0291 41.667 14.3411V25.0015Z" fill="#008043"/>
<path d="M31.8751 17.2926L23.1501 26.0426L18.4751 21.1676C18.2875 20.9624 18.0607 20.7969 17.8082 20.6808C17.5556 20.5647 17.2824 20.5002 17.0045 20.4913C16.7267 20.4824 16.4498 20.5292 16.1904 20.629C15.9309 20.7287 15.694 20.8794 15.4936 21.0721C15.2933 21.2648 15.1335 21.4957 15.0237 21.7511C14.914 22.0065 14.8565 22.2813 14.8545 22.5592C14.8526 22.8372 14.9064 23.1128 15.0126 23.3697C15.1188 23.6266 15.2754 23.8596 15.4731 24.0551L20.2772 29.0551C20.6355 29.4421 21.0686 29.7524 21.5502 29.9672C22.0318 30.1821 22.552 30.297 23.0793 30.3051H23.1481C23.6648 30.3068 24.1768 30.2058 24.6543 30.0081C25.1317 29.8103 25.5651 29.5196 25.9293 29.153L34.8293 20.253C35.0237 20.059 35.178 19.8286 35.2833 19.575C35.3887 19.3215 35.4431 19.0496 35.4433 18.775C35.4436 18.5004 35.3898 18.2284 35.285 17.9746C35.1802 17.7208 35.0264 17.4901 34.8324 17.2957C34.6385 17.1013 34.4081 16.947 34.1545 16.8417C33.9009 16.7363 33.629 16.6819 33.3544 16.6816C33.0798 16.6814 32.8078 16.7352 32.554 16.84C32.3002 16.9448 32.0695 17.0986 31.8751 17.2926Z" fill="#008043"/>
</g>
<defs>
<clipPath id="clip0_444_1237">
<rect width="50" height="50" fill="white"/>
</clipPath>
</defs>
</svg>
