<svg xmlns="http://www.w3.org/2000/svg" xmlns:xlink="http://www.w3.org/1999/xlink" width="56" height="56" viewBox="0 0 56 56">
  <defs>
    <clipPath id="clip-path">
      <rect id="Rectangle_17628" data-name="Rectangle 17628" width="56" height="56" rx="10" fill="#259f8b"/>
    </clipPath>
  </defs>
  <g id="Mask_Group_2" data-name="Mask Group 2" clip-path="url(#clip-path)">
    <ellipse id="Ellipse_508" data-name="Ellipse 508" cx="33.5" cy="109" rx="33.5" ry="109" transform="translate(-69 -29)" fill="#259f8b"/>
    <path id="Icon_awesome-arrow-alt-circle-down" data-name="Icon awesome-arrow-alt-circle-down" d="M35.438,18A17.438,17.438,0,1,0,18,35.438,17.434,17.434,0,0,0,35.438,18ZM14.906,26.156V18H9.921s-1.132-.914-.6-1.441L17.4,8.522a.836.836,0,0,1,1.188,0l8.079,8.037a.844.844,0,0,1-.6,1.441H21.094v8.156A.846.846,0,0,1,20.25,27h-4.5A.846.846,0,0,1,14.906,26.156Z" transform="translate(9.438 10.438)" fill="#fff"/>
  </g>
</svg>
