<svg xmlns="http://www.w3.org/2000/svg" width="30.326" height="23.983" viewBox="0 0 30.326 23.983">
  <g id="_001-twitter-logo-silhouette" data-name="001-twitter-logo-silhouette" transform="translate(0 0)">
    <g id="Group_1280" data-name="Group 1280" transform="translate(0 0)">
      <path id="Path_1202" data-name="Path 1202" d="M30.326,2.838a12.687,12.687,0,0,1-3.572.954A6.114,6.114,0,0,0,29.488.443a12.75,12.75,0,0,1-3.953,1.47A6.283,6.283,0,0,0,20.995,0a6.141,6.141,0,0,0-6.221,6.055,5.921,5.921,0,0,0,.161,1.38A17.825,17.825,0,0,1,2.113,1.107a5.89,5.89,0,0,0-.841,3.044,6.013,6.013,0,0,0,2.767,5.04,6.351,6.351,0,0,1-2.818-.76v.076a6.106,6.106,0,0,0,4.99,5.939,6.462,6.462,0,0,1-1.639.212A6.129,6.129,0,0,1,3.4,14.546a6.206,6.206,0,0,0,5.81,4.206,12.7,12.7,0,0,1-7.726,2.588A13.577,13.577,0,0,1,0,21.258a17.933,17.933,0,0,0,9.536,2.725,17.334,17.334,0,0,0,17.7-17.232l-.021-.784A12.248,12.248,0,0,0,30.326,2.838Z" fill="#363636"/>
    </g>
  </g>
</svg>
