<svg width="60" height="60" viewBox="0 0 60 60" fill="none" xmlns="http://www.w3.org/2000/svg">
<rect x="0.5" y="0.5" width="59" height="59" rx="29.5" fill="#FDFDFD"/>
<path d="M26.1172 39.5C25.8486 39.4994 25.5847 39.4119 25.3515 39.2462C24.8264 38.8766 24.5 38.1592 24.5 37.3804V21.6197C24.5 20.8387 24.8264 20.1235 25.3515 19.7539C25.5902 19.5835 25.8614 19.4958 26.1368 19.5002C26.4121 19.5045 26.6814 19.6005 26.9166 19.7784L37.7616 27.8414C37.9876 28.0174 38.1739 28.2618 38.3031 28.5518C38.4322 28.8417 38.5 29.1676 38.5 29.499C38.5 29.8303 38.4322 30.1562 38.3031 30.4462C38.1739 30.7361 37.9876 30.9805 37.7616 31.1566L26.9149 39.2217C26.6742 39.4025 26.3985 39.4987 26.1172 39.5Z" fill="#20212E"/>
</svg>
