<svg xmlns="http://www.w3.org/2000/svg" width="24.23" height="27.691" viewBox="0 0 24.23 27.691">
  <path id="Icon_awesome-calendar-alt" data-name="Icon awesome-calendar-alt" d="M0,25.095a2.6,2.6,0,0,0,2.6,2.6H21.634a2.6,2.6,0,0,0,2.6-2.6V10.384H0Zm17.307-10.6a.651.651,0,0,1,.649-.649h2.163a.651.651,0,0,1,.649.649v2.163a.651.651,0,0,1-.649.649H17.956a.651.651,0,0,1-.649-.649Zm0,6.923a.651.651,0,0,1,.649-.649h2.163a.651.651,0,0,1,.649.649v2.163a.651.651,0,0,1-.649.649H17.956a.651.651,0,0,1-.649-.649Zm-6.923-6.923a.651.651,0,0,1,.649-.649H13.2a.651.651,0,0,1,.649.649v2.163a.651.651,0,0,1-.649.649H11.033a.651.651,0,0,1-.649-.649Zm0,6.923a.651.651,0,0,1,.649-.649H13.2a.651.651,0,0,1,.649.649v2.163a.651.651,0,0,1-.649.649H11.033a.651.651,0,0,1-.649-.649ZM3.461,14.495a.651.651,0,0,1,.649-.649H6.274a.651.651,0,0,1,.649.649v2.163a.651.651,0,0,1-.649.649H4.11a.651.651,0,0,1-.649-.649Zm0,6.923a.651.651,0,0,1,.649-.649H6.274a.651.651,0,0,1,.649.649v2.163a.651.651,0,0,1-.649.649H4.11a.651.651,0,0,1-.649-.649ZM21.634,3.461h-2.6V.865A.868.868,0,0,0,18.172,0H16.442a.868.868,0,0,0-.865.865v2.6H8.653V.865A.868.868,0,0,0,7.788,0H6.057a.868.868,0,0,0-.865.865v2.6H2.6A2.6,2.6,0,0,0,0,6.057v2.6H24.23v-2.6A2.6,2.6,0,0,0,21.634,3.461Z" fill="#fff"/>
</svg>
