<svg xmlns="http://www.w3.org/2000/svg" width="875.521" height="638.001" viewBox="0 0 875.521 638.001">
  <g id="graphic" transform="translate(-0.008 -0.06)">
    <g id="_12" data-name="12" transform="translate(0.008 0.06)">
      <path id="Path_95219" data-name="Path 95219" d="M470.386,877.242S367.458,618.571,441.528,560.963c49.51-38.5,101.984,46.371,164.627,1.472,55.762-39.973-21.981-140.667,71.061-167.007,97.791-27.691,177.911,196.539,259.965,165.535,99.571-37.621,198.619,38.748,113.025,316.765Z" transform="translate(-315.656 -320.174)" fill="#d4e8ff"/>
      <path id="Path_95220" data-name="Path 95220" d="M305.92,706.714c-1.727-4.679-3.439-9.529-5.081-14.415l4.055-1.062c1.622,4.866,3.329,9.667,5.048,14.318Zm724.663-6.046-4.193-.458c.7-4.979,1.358-10,1.967-14.91l4.2.405C1031.945,690.637,1031.284,695.669,1030.582,700.669ZM296.172,677.783c-1.476-4.825-2.911-9.732-4.262-14.6l4.1-.888c1.342,4.841,2.769,9.732,4.237,14.524Zm738.113-7.064-4.2-.353c.535-5,1.03-10.032,1.472-14.954l4.213.3C1035.318,660.647,1034.84,665.712,1034.284,670.719ZM288.046,648.47c-1.216-4.914-2.38-9.886-3.451-14.776l4.148-.71c1.066,4.866,2.218,9.8,3.43,14.687Zm748.931-7.793-4.217-.235c.357-5,.669-10.04.933-15l4.221.174C1037.65,630.6,1037.338,635.657,1036.977,640.677ZM281.558,618.842c-.937-4.975-1.808-10-2.583-14.918l4.185-.515c.77,4.89,1.622,9.874,2.567,14.82Zm757-8.276-4.225-.109c.166-5.02.28-10.068.337-15l4.229.041C1038.838,600.453,1038.724,605.526,1038.558,610.566Zm-761.7-21.62c-.633-5.028-1.18-10.084-1.622-15.027l4.209-.3c.45,4.91.993,9.93,1.622,14.922Zm757.827-8.491c-.053-5.024-.158-10.068-.324-15l4.225-.109c.166,4.951.272,10.024.324,15.072Zm-760.568-21.6c-.28-5.06-.466-10.137-.551-15.092l4.225-.057c.085,4.914.272,9.951.547,14.966Zm759.567-8.373c-.292-5.02-.649-10.052-1.062-14.966l4.217-.276c.406,4.939.774,10,1.066,15.052Zm-755.853-21.75-4.225-.069c.118-5.069.345-10.137.673-15.092l4.221.219C278.176,518.675,277.953,523.7,277.836,528.727Zm753.327-8.15c-.564-5.016-1.217-10.028-1.9-14.893l4.193-.466c.7,4.9,1.346,9.943,1.914,15ZM279.827,498.863l-4.2-.373c.576-5.052,1.273-10.1,2.08-15l4.185.539C281.1,488.872,280.41,493.867,279.827,498.863Zm747.054-8.012c-.88-4.987-1.845-9.955-2.871-14.764l4.156-.689c1.03,4.866,2,9.853,2.891,14.877Zm-499.789-.527c-5.871-.811-10.137-3.183-16-7.262l2.672-2.9c5.154,3.564,8.876,5.705,13.786,6.443Zm14.679-8.888-3.763-1.7a54.161,54.161,0,0,0,5.081-13.811l4.128.811A58.225,58.225,0,0,1,541.77,481.435Zm-43.087-9.087c-3.366-3.317-6.962-7.128-11-11.662l3.321-2.311c3.978,4.46,7.518,8.223,10.822,11.475Zm-213.958-3.065-4.148-.71c1.095-4.987,2.332-9.959,3.682-14.78l4.083.9C287.028,459.45,285.8,464.36,284.725,469.283Zm735.887-7.858c-1.253-4.935-2.6-9.825-4.014-14.537l4.087-.957c1.423,4.76,2.786,9.7,4.055,14.679Zm-470.566-9.732-4.193-.483c.649-4.46,1.216-9.326,1.776-14.926l4.213.32c-.556,5.64-1.152,10.571-1.8,15.084Zm-72.712-3.037c-3.434-4.1-7-8.434-10.068-12.165l3.422-2.194c3.061,3.735,6.618,8.061,10.044,12.165Zm309.385-.308a19.561,19.561,0,0,1-9.6-2.583l2.255-3.159c4.623,2.579,9.172,2.583,14.083.527l1.817,3.374a22.089,22.089,0,0,1-8.543,1.837ZM292.839,440.3l-4.055-1.091c1.679-4.866,3.524-9.679,5.478-14.346l3.962,1.293c-1.9,4.6-3.714,9.355-5.369,14.139Zm516.268-3.564L806,434.2a128.732,128.732,0,0,0,10.5-11.569l3.422,2.194A133.389,133.389,0,0,1,809.106,436.734Zm-43.987-2.555a112.3,112.3,0,0,1-8.284-13.426l3.82-1.622a107.856,107.856,0,0,0,8.012,13.02Zm246.811-1.654c-1.7-4.841-3.52-9.606-5.4-14.164l3.974-1.277c1.9,4.61,3.739,9.436,5.462,14.33ZM457.251,424.3c-3.864-4.671-7.088-8.515-10.137-12.067l3.37-2.255c3.065,3.576,6.3,7.428,10.182,12.116Zm95.873-2.778-4.217-.239c.32-4.379.649-9.3,1-15.039l4.221.2C553.76,412.2,553.436,417.149,553.124,421.52Zm-248.538-9.2-3.864-1.508q3.479-6.966,7.42-13.665l3.747,1.727Q308.008,405.459,304.586,412.324Zm525.022,0-3.532-2.052c3-4.035,6.107-8.312,9.245-12.631l3.556,2.027c-3.13,4.322-6.253,8.6-9.27,12.655ZM750.031,406.8c-1.914-4.245-3.893-8.876-6.046-14.155l3.974-1.269c2.141,5.243,4.1,9.833,6,14.038Zm250.282-2.332c-2.271-4.679-4.675-9.221-7.141-13.507l3.763-1.695c2.51,4.359,4.955,8.977,7.262,13.73Zm-563.624-4.075c-3.836-4.209-7.4-7.952-10.912-11.451l3.163-2.477c3.552,3.54,7.161,7.331,11.041,11.585Zm118.317-9.022-4.233-.174c.284-4.992.568-9.983.868-15.064l4.221.195c-.3,5.065-.584,10.056-.868,15.044Zm293.166-4.331-3.524-2.06c3.528-4.72,6.686-8.807,9.655-12.485l3.438,2.165c-2.964,3.645-6.095,7.7-9.6,12.379ZM320.3,385.988l-3.572-2.007A117.811,117.811,0,0,1,326.9,371.638l3.244,2.433a113.849,113.849,0,0,0-9.878,11.917Zm418.055-7.6c-1.938-5.02-3.84-10.044-5.446-14.293l4.01-1.184c1.622,4.245,3.5,9.261,5.434,14.273Zm-324.2-.26a141,141,0,0,0-12.623-9.76l2.579-2.96a145.824,145.824,0,0,1,12.976,10.044Zm570.822-.162a154.06,154.06,0,0,0-9.436-12.278l3.37-2.25a157.259,157.259,0,0,1,9.671,12.57ZM341.963,363.885l-2.563-2.968a52.6,52.6,0,0,1,15.611-7.3l1.237,3.572A48.18,48.18,0,0,0,341.963,363.885Zm525.943-1.143-3.28-2.352A153.608,153.608,0,0,1,876.1,349.036l2.988,2.64A151.3,151.3,0,0,0,867.906,362.741Zm-311.1-1.468-4.217-.223c.365-5.429.73-10.36,1.111-15.072l4.213.268C557.535,350.942,557.178,355.86,556.805,361.273Zm-169.258-.783a54.88,54.88,0,0,0-15.408-4.4l.576-3.7a59.55,59.55,0,0,1,16.718,4.748Zm577.111-6.038a97.563,97.563,0,0,0-12.538-9.667l2.486-3.017a101.007,101.007,0,0,1,13.077,10.1ZM727.507,349.8c-2.1-5.559-3.836-10.093-5.454-14.261l4-1.216c1.622,4.181,3.357,8.722,5.462,14.289Zm164.221-7.676-2.433-3.061A62.789,62.789,0,0,1,904.922,332l1.306,3.552a58.442,58.442,0,0,0-14.488,6.585Zm46.112-4.578a59.04,59.04,0,0,0-15.745-3.589l.406-3.718a63.714,63.714,0,0,1,16.994,3.864Zm-378.573-6.3-4.209-.328c.527-5.243,1.1-10.3,1.7-15.048l4.2.405C560.357,321,559.79,326.037,559.267,331.247Zm157.166-9.914c-2.027-5.04-3.966-9.646-5.884-14.083l3.945-1.33c1.93,4.46,3.864,9.087,5.916,14.151ZM563.111,301.4l-4.185-.535c.856-5.231,1.8-10.259,2.794-14.95l4.152.693C564.883,291.238,563.958,296.217,563.111,301.4Zm141.161-8.089c-2.275-4.829-4.562-9.448-6.8-13.73l3.832-1.569c2.267,4.327,4.582,8.99,6.893,13.864Zm-134.812-21.32-4.1-.908c1.476-5.215,3.1-10.137,4.829-14.6l4,1.216C572.5,262.059,570.908,266.868,569.461,271.986Zm120.5-5.815c-2.782-4.631-5.62-8.973-8.438-12.911l3.568-2c2.879,4.018,5.77,8.446,8.6,13.158ZM580.538,244.007l-3.791-1.654a73.472,73.472,0,0,1,9.148-13.061l3.321,2.311a69.614,69.614,0,0,0-8.677,12.4Zm91.3-2.838A97.221,97.221,0,0,0,660.508,230.4l2.838-2.769a100.878,100.878,0,0,1,11.8,11.212ZM601,221.937l-2.279-3.147a45.658,45.658,0,0,1,16.394-5.47l.645,3.69a41.107,41.107,0,0,0-14.76,4.9Zm46.173,0a55.553,55.553,0,0,0-15.242-4.769l.742-3.678a60.136,60.136,0,0,1,16.5,5.158Z" transform="translate(-231.739 -213.32)" fill="#dce6ff"/>
      <path id="Path_95221" data-name="Path 95221" d="M996.659,1026.281c-35.066-5.7-29.345,45.779-79.333,45.779-45.706,0-60.328-196.036-93.582-140C653.266,1219.345,752.257,809.89,616.679,804.687c-61.305-2.356-102.158,69.3-117.222,196.166-21.835,114.691-72.476-87.479-124.593-68.681-33.124,11.946-18.478,152.941-73.068,150.763-49.956-1.995-46.225-62.355-81.3-56.654-37.759,6.135-49.035,97.247-49.035,97.247h874.226S1034.417,1032.416,996.659,1026.281Z" transform="translate(-171.033 -564.863)" fill="#eef7ff"/>
      <path id="Path_95222" data-name="Path 95222" d="M1016.914,1292.269c-32.26-2.433-27,19.548-72.987,19.548-42.045,0-40.889-49.262-69.026-59.736-51.833-19.289-94.555,78.3-114.659,29.329-38.156-129.95-149.433-195.119-200.772,0-20.092,48.974-67.067-38.412-114.627-29.329-29.264,5.6-26.965,59.736-69,59.736-45.986,0-40.723-21.981-72.987-19.548-34.738,2.619-45.114,41.526-45.114,41.526h804.28S1051.635,1294.888,1016.914,1292.269Z" transform="translate(-222.328 -775.129)" fill="#dce6ff"/>
      <path id="Path_95223" data-name="Path 95223" d="M170.835,1591.09s-5.142,21.584,20.274,26.665c34.754,6.954,238.425,15.786,188.859,29.665-27.978,7.834,14.285,18.478,150.553,22.4s370.1-11.435,291.471-34.15,242.6,2.672,223.082-44.575Z" transform="translate(-170.408 -1032.425)" fill="#cfddf9"/>
    </g>
    <path id="_11" data-name="11" d="M1798.324,612.789l17.367-27.147-15.619-9.947a65.177,65.177,0,0,0,3.244-17.185l18.283-4.03-6.954-31.445-17.614,3.876a65.284,65.284,0,0,0-11.463-16.815l10.247-16.029-27.208-17.326-10.255,16.029a65.558,65.558,0,0,0-18.677-3.28l-3.649-16.519-31.518,6.942,3.649,16.519A65.285,65.285,0,0,0,1692.6,507.25l-15.619-9.938-17.367,27.147,15.619,9.947a65.055,65.055,0,0,0-3.313,20.072l-17.6,3.876,6.954,31.445,18.287-4.026A65.332,65.332,0,0,0,1689.743,600l-10.255,16.029L1706.7,633.36l10.255-16.025a65.528,65.528,0,0,0,18.677,3.28l4.258,19.252,31.518-6.942-4.258-19.252a65.195,65.195,0,0,0,15.554-10.818Zm-74.885-31.948c-33.72-18.766-5.417-69.877,28.425-51.562C1785.567,548.029,1757.281,599.141,1723.439,580.841Z" transform="translate(-1052.608 -367.626)" fill="#0a7564"/>
    <g id="_10" data-name="10" transform="translate(172.47 184.503)">
      <rect id="Rectangle_20463" data-name="Rectangle 20463" width="91.469" height="82.654" transform="translate(212.284 309.142)" fill="#255084"/>
      <rect id="Rectangle_20464" data-name="Rectangle 20464" width="91.469" height="93.878" transform="translate(212.284 260.634)" fill="#1d3f70"/>
      <path id="Path_95224" data-name="Path 95224" d="M1151.78,1644.547H871.48a10.173,10.173,0,0,1-10.19-10.161h0a10.178,10.178,0,0,1,10.19-10.166h280.3a10.178,10.178,0,0,1,10.19,10.166h0A10.174,10.174,0,0,1,1151.78,1644.547Z" transform="translate(-753.609 -1236.564)" fill="#1d3f70"/>
      <rect id="Rectangle_20465" data-name="Rectangle 20465" width="341.005" height="516.033" rx="50.93" transform="translate(516.033) rotate(90)" fill="#255084"/>
      <ellipse id="Ellipse_708" data-name="Ellipse 708" cx="10.814" cy="10.79" rx="10.814" ry="10.79" transform="translate(247.204 310.821)" fill="#1d3f70"/>
      <path id="Path_95225" data-name="Path 95225" d="M950.788,504.33v82.455L827.893,771.837,475.17,654.214V504.33Z" transform="translate(-454.961 -484.299)" fill="#a9bff7"/>
      <path id="Path_95226" data-name="Path 95226" d="M645.552,988.368s70.96-64.829,142.921-25.29S873.4,1081.913,969.855,1073.97c98.991-8.154,33.027-139.917,151.319-153.03v194.682H645.54Z" transform="translate(-625.343 -818.454)" fill="#33bca6"/>
      <path id="Path_95227" data-name="Path 95227" d="M645.57,717.536s18.04,75.27,132.8,57.449c105.021-16.309,99.664,94.644,168.345,98.626s88.886-75.522,114.2-103.4,60.275-23.113,60.275-23.113V717.5Z" transform="translate(-625.361 -697.505)" fill="#d9e4f9"/>
      <path id="Path_95228" data-name="Path 95228" d="M966.315,1007.472a.51.51,0,0,1-.239-.061L819.619,927.056a.5.5,0,1,1,.478-.876l146.461,80.355a.5.5,0,0,1-.243.937Z" transform="translate(-728.681 -821.533)" fill="#1d3f70"/>
      <rect id="Rectangle_20466" data-name="Rectangle 20466" width="5.45" height="5.438" transform="translate(158.954 140.78)" fill="#1d3f70"/>
      <ellipse id="Ellipse_709" data-name="Ellipse 709" cx="2.295" cy="2.291" rx="2.295" ry="2.291" transform="translate(88.878 102.795)" fill="#1d3f70"/>
      <path id="Path_95229" data-name="Path 95229" d="M1180.71,1122.161a2.291,2.291,0,1,1-.672-1.621A2.3,2.3,0,0,1,1180.71,1122.161Z" transform="translate(-940.78 -936.72)" fill="#1d3f70"/>
      <rect id="Rectangle_20467" data-name="Rectangle 20467" width="5.45" height="5.438" transform="translate(341.783 252.674)" fill="#1d3f70"/>
      <path id="Path_95230" data-name="Path 95230" d="M1206.729,1294.023a.5.5,0,1,1-.041-1l195.971-16.15a.5.5,0,1,1,.081.993l-195.971,16.15Z" transform="translate(-958.669 -1030.06)" fill="#1d3f70"/>
      <path id="Path_95231" data-name="Path 95231" d="M1206.42,1314.577a2.3,2.3,0,1,1-2.3-2.287A2.3,2.3,0,0,1,1206.42,1314.577Z" transform="translate(-956.065 -1051.117)" fill="#1d3f70"/>
      <path id="Path_95232" data-name="Path 95232" d="M1689.72,1274.751a2.291,2.291,0,1,1-.672-1.621A2.295,2.295,0,0,1,1689.72,1274.751Z" transform="translate(-1243.394 -1027.438)" fill="#1d3f70"/>
    </g>
    <g id="_9" data-name="9" transform="translate(527.553 301.928)">
      <rect id="Rectangle_20468" data-name="Rectangle 20468" width="106.553" height="67.404" rx="26.05" transform="translate(106.553 67.404) rotate(180)" fill="#fff"/>
      <rect id="Rectangle_20469" data-name="Rectangle 20469" width="15.376" height="15.408" transform="translate(91.798 15.254) rotate(90)" fill="#397caa"/>
      <rect id="Rectangle_20470" data-name="Rectangle 20470" width="15.376" height="15.408" transform="translate(91.798 36.777) rotate(90)" fill="#1ad8b9"/>
      <rect id="Rectangle_20471" data-name="Rectangle 20471" width="15.376" height="15.408" transform="translate(76.385 15.25) rotate(90)" fill="#2e6999"/>
      <rect id="Rectangle_20472" data-name="Rectangle 20472" width="15.376" height="15.408" transform="translate(76.389 36.777) rotate(90)" fill="#28c9af"/>
      <rect id="Rectangle_20473" data-name="Rectangle 20473" width="15.376" height="15.408" transform="translate(60.977 15.254) rotate(90)" fill="#285989"/>
      <rect id="Rectangle_20474" data-name="Rectangle 20474" width="15.376" height="15.408" transform="translate(60.977 36.777) rotate(90)" fill="#189f89"/>
      <rect id="Rectangle_20475" data-name="Rectangle 20475" width="15.376" height="15.408" transform="translate(45.564 15.25) rotate(90)" fill="#1f4777"/>
      <rect id="Rectangle_20476" data-name="Rectangle 20476" width="15.376" height="15.408" transform="translate(45.568 36.777) rotate(90)" fill="#138875"/>
      <rect id="Rectangle_20477" data-name="Rectangle 20477" width="15.376" height="15.408" transform="translate(30.156 15.254) rotate(90)" fill="#103663"/>
      <rect id="Rectangle_20478" data-name="Rectangle 20478" width="15.376" height="15.408" transform="translate(30.16 36.777) rotate(90)" fill="#0b6e5e"/>
    </g>
    <g id="_8" data-name="8" transform="translate(248.445 217.793)">
      <rect id="Rectangle_20479" data-name="Rectangle 20479" width="125.092" height="55.405" rx="19.84" fill="#667ecc"/>
      <rect id="Rectangle_20480" data-name="Rectangle 20480" width="13.645" height="13.616" transform="translate(10.332 17.489)" fill="#1d3f70"/>
      <rect id="Rectangle_20481" data-name="Rectangle 20481" width="13.645" height="13.616" transform="translate(17.156 24.297)" fill="#1d3f70"/>
      <rect id="Rectangle_20482" data-name="Rectangle 20482" width="13.645" height="13.616" transform="translate(38.318 17.489)" fill="#1d3f70"/>
      <rect id="Rectangle_20483" data-name="Rectangle 20483" width="13.645" height="13.616" transform="translate(45.143 24.297)" fill="#a9bff7"/>
      <path id="Path_95233" data-name="Path 95233" d="M789.869,580.16v6.812h-6.824v6.8H776.22V580.16Z" transform="translate(-709.915 -562.671)" fill="#a9bff7"/>
      <rect id="Rectangle_20484" data-name="Rectangle 20484" width="6.824" height="6.808" transform="translate(73.129 24.297)" fill="#1d3f70"/>
      <path id="Path_95234" data-name="Path 95234" d="M806.7,596.96v13.612H793.05v-6.808h6.824v-6.8Z" transform="translate(-719.921 -572.659)" fill="#a9bff7"/>
      <path id="Path_95235" data-name="Path 95235" d="M858.895,580.16v6.812H852.07v6.8h-6.82V580.16Z" transform="translate(-750.954 -562.671)" fill="#1d3f70"/>
      <rect id="Rectangle_20485" data-name="Rectangle 20485" width="6.824" height="6.808" transform="translate(101.116 24.301)" fill="#a9bff7"/>
      <path id="Path_95236" data-name="Path 95236" d="M875.719,596.96v13.612H862.07v-6.808h6.824v-6.8Z" transform="translate(-760.954 -572.659)" fill="#1d3f70"/>
    </g>
    <g id="_7" data-name="7" transform="translate(285.122 399.974)">
      <rect id="Rectangle_20486" data-name="Rectangle 20486" width="56.395" height="56.265" rx="22.8" fill="#a9bff7"/>
      <path id="Path_95237" data-name="Path 95237" d="M948.24,1258.229v15.85H932.329v-15.85Zm4.079-4.079H928.25v24.009h24.07Z" transform="translate(-906.07 -1232.023)" fill="#fff"/>
      <rect id="Rectangle_20487" data-name="Rectangle 20487" width="24.07" height="24.013" transform="translate(10.145 10.121)" fill="#33bca6"/>
      <path id="Path_95238" data-name="Path 95238" d="M927.336,1277.915a.629.629,0,0,1-.442-1.071l24.07-24.013a.628.628,0,0,1,.884.888l-24.065,24.013A.637.637,0,0,1,927.336,1277.915Z" transform="translate(-905.156 -1231.15)" fill="#eb5648"/>
    </g>
    <g id="_6" data-name="6" transform="translate(145.639 147.9)">
      <rect id="Rectangle_20488" data-name="Rectangle 20488" width="138.603" height="76.831" rx="24.28" transform="translate(76.831) rotate(90)" fill="#667ecc"/>
      <path id="Path_95239" data-name="Path 95239" d="M661.17,844.413l-7.607-7.591a7.983,7.983,0,1,0-1.054,1.046l7.611,7.595Zm-18.3-8.11a4.57,4.57,0,1,1,0,.02Z" transform="translate(-594.922 -724.126)" fill="#fff"/>
      <path id="Path_95240" data-name="Path 95240" d="M652.431,713.159a9.59,9.59,0,1,1,6.792-16.361h0a9.582,9.582,0,0,1-6.792,16.361Zm0-17.679a8.11,8.11,0,1,0,8.11,8.11,8.025,8.025,0,0,0-2.38-5.729h0A8.11,8.11,0,0,0,652.431,695.48Z" transform="translate(-596.908 -646.919)" fill="#fff"/>
      <rect id="Rectangle_20489" data-name="Rectangle 20489" width="20.011" height="1.484" transform="matrix(0.708, -0.706, 0.706, 0.708, 47.908, 90.224)" fill="#fff"/>
      <path id="Path_95241" data-name="Path 95241" d="M560.5,624.737l12.5,8.329-7.035-.624h-.13a1.48,1.48,0,0,0-1.346.864l-2.952,6.407Zm-1.691-2.907,1.658,23.761,5.373-11.67,12.826,1.139L558.8,621.83Z" transform="translate(-546.944 -604.025)" fill="#fff"/>
      <path id="Path_95242" data-name="Path 95242" d="M471.6,408.53l1.658,23.765,5.373-11.674,12.821,1.139Z" transform="translate(-426.007 -390.741)" fill="#fff"/>
      <path id="Path_95243" data-name="Path 95243" d="M392.58,551.4v3.767h1.484v-2.283h6.013V565.77h-2.254v1.484h5.993V565.77h-2.255V552.884h6.013v2.283h1.484V551.4Z" transform="translate(-379.029 -475.68)" fill="#fff"/>
      <rect id="Rectangle_20490" data-name="Rectangle 20490" width="20.015" height="1.484" transform="translate(10.594 67.075) rotate(-44.94)" fill="#fff"/>
      <ellipse id="Ellipse_710" data-name="Ellipse 710" cx="3.601" cy="3.593" rx="3.601" ry="3.593" transform="translate(16.15 46.89)" fill="#fff"/>
      <ellipse id="Ellipse_711" data-name="Ellipse 711" cx="2.717" cy="2.709" rx="2.717" ry="2.709" transform="translate(24.994 45.694)" fill="#fff"/>
      <ellipse id="Ellipse_712" data-name="Ellipse 712" cx="2.717" cy="2.709" rx="2.717" ry="2.709" transform="translate(27.038 52.405)" fill="#fff"/>
      <path id="Path_95244" data-name="Path 95244" d="M577.1,826.8a1.663,1.663,0,0,0-2.348,0l-1.865,1.857-.689-.689a1.663,1.663,0,0,0-2.348,0h0a1.655,1.655,0,0,0-.268,1.979l-11.735,11.69a3.078,3.078,0,1,0,4.351,4.355L573.957,834.3a1.65,1.65,0,0,0,1.983-2.6L575.25,831l1.865-1.857a1.654,1.654,0,0,0-.016-2.344Zm-15.948,18.137a1.622,1.622,0,0,1-2.259,0,1.582,1.582,0,0,1-.47-1.127,1.622,1.622,0,0,1,.47-1.127l11.69-11.629,2.259,2.254Z" transform="translate(-545.84 -725.594)" fill="#fff"/>
    </g>
    <g id="_5" data-name="5" transform="translate(251.616 112.254)">
      <rect id="Rectangle_20491" data-name="Rectangle 20491" width="189.285" height="46.55" rx="22.37" fill="#667ecc"/>
      <rect id="Rectangle_20492" data-name="Rectangle 20492" width="1.675" height="20.132" transform="translate(11.69 14.046)" fill="#fff"/>
      <rect id="Rectangle_20493" data-name="Rectangle 20493" width="9.894" height="5.705" transform="translate(14.63 16.378)" fill="#fff"/>
      <rect id="Rectangle_20494" data-name="Rectangle 20494" width="13.543" height="5.705" transform="translate(14.63 23.774)" fill="#fff"/>
      <rect id="Rectangle_20495" data-name="Rectangle 20495" width="1.675" height="20.132" transform="translate(85.861 14.046)" fill="#fff"/>
      <rect id="Rectangle_20496" data-name="Rectangle 20496" width="9.894" height="5.705" transform="translate(84.596 22.083) rotate(180)" fill="#fff"/>
      <rect id="Rectangle_20497" data-name="Rectangle 20497" width="13.543" height="5.705" transform="translate(84.596 29.479) rotate(180)" fill="#fff"/>
      <rect id="Rectangle_20498" data-name="Rectangle 20498" width="1.675" height="20.132" transform="translate(48.776 14.046)" fill="#fff"/>
      <rect id="Rectangle_20499" data-name="Rectangle 20499" width="12.023" height="5.705" transform="translate(43.598 16.378)" fill="#fff"/>
      <rect id="Rectangle_20500" data-name="Rectangle 20500" width="16.463" height="5.705" transform="translate(41.38 23.774)" fill="#fff"/>
      <rect id="Rectangle_20501" data-name="Rectangle 20501" width="20.177" height="1.675" transform="translate(127.314 23.275)" fill="#fff"/>
      <rect id="Rectangle_20502" data-name="Rectangle 20502" width="11.998" height="5.721" transform="translate(145.16 18.113) rotate(90)" fill="#fff"/>
      <rect id="Rectangle_20503" data-name="Rectangle 20503" width="16.422" height="5.721" transform="translate(137.743 15.899) rotate(90)" fill="#fff"/>
      <rect id="Rectangle_20504" data-name="Rectangle 20504" width="20.177" height="1.675" transform="translate(98.05 14.034)" fill="#fff"/>
      <rect id="Rectangle_20505" data-name="Rectangle 20505" width="11.998" height="5.721" transform="translate(114.708 16.929) rotate(90)" fill="#fff"/>
      <rect id="Rectangle_20506" data-name="Rectangle 20506" width="16.422" height="5.721" transform="translate(107.291 16.929) rotate(90)" fill="#fff"/>
      <rect id="Rectangle_20507" data-name="Rectangle 20507" width="20.177" height="1.675" transform="translate(156.578 32.516)" fill="#fff"/>
      <rect id="Rectangle_20508" data-name="Rectangle 20508" width="11.998" height="5.721" transform="translate(167.51 31.295) rotate(-90)" fill="#fff"/>
      <rect id="Rectangle_20509" data-name="Rectangle 20509" width="16.422" height="5.721" transform="translate(160.102 31.295) rotate(-90)" fill="#fff"/>
    </g>
    <path id="_4" data-name="4" d="M628.672,383.406l2.19-11.252-8.637-1.671a31.586,31.586,0,0,0-.369-5.381l8.308-2.838-3.739-10.835-8.321,2.859a32.2,32.2,0,0,0-3.021-4.46l5.774-6.626-8.669-7.518-5.766,6.617a32.038,32.038,0,0,0-4.866-2.356l1.683-8.641-11.277-2.186-1.679,8.617a32.562,32.562,0,0,0-5.389.369l-2.863-8.288-10.859,3.714,2.871,8.316a32.378,32.378,0,0,0-4.46,3.013l-6.642-5.758-7.55,8.649,6.63,5.75a32.542,32.542,0,0,0-2.36,4.866l-8.633-1.675-2.19,11.248,8.629,1.679a32.386,32.386,0,0,0,.369,5.377l-8.308,2.838,3.743,10.843,8.317-2.859a32.957,32.957,0,0,0,3.021,4.46l-5.77,6.626,8.669,7.518,5.766-6.618a32.561,32.561,0,0,0,4.866,2.352l-1.662,8.617,11.272,2.186,1.679-8.617a31.753,31.753,0,0,0,5.393-.369l2.838,8.292,10.851-3.747-2.838-8.288a32.268,32.268,0,0,0,4.46-3.013l6.642,5.758,7.55-8.649-6.65-5.75a32.307,32.307,0,0,0,2.36-4.866Zm-41.911,2.5c-20.826-4.408-14.784-35.415,6.176-31.717,20.846,4.4,14.784,35.407-6.176,31.713Z" transform="translate(-395.383 -282.105)" fill="#0a7564"/>
    <path id="_3" data-name="3" d="M1988,993.143l1.5-7.737-5.936-1.152a22.413,22.413,0,0,0-.255-3.7l5.709-1.963-2.571-7.453-5.721,1.967a22.185,22.185,0,0,0-2.08-3.069l3.97-4.558-5.961-5.17-3.966,4.55a21.9,21.9,0,0,0-3.341-1.622l1.152-5.928-7.753-1.5-1.156,5.924a22.47,22.47,0,0,0-3.706.251l-1.966-5.693-7.449,2.567,1.971,5.705a22.456,22.456,0,0,0-3.078,2.072l-4.57-3.958-5.182,5.948,4.562,3.953a22.282,22.282,0,0,0-1.622,3.337l-5.936-1.151-1.508,7.737,5.94,1.152a21.9,21.9,0,0,0,.251,3.7l-5.713,1.967,2.575,7.449,5.721-1.967a22.187,22.187,0,0,0,2.076,3.074l-3.97,4.558,5.965,5.17,3.962-4.554a22.178,22.178,0,0,0,3.345,1.622l-1.156,5.924,7.757,1.5,1.151-5.928a22.09,22.09,0,0,0,3.71-.251l1.967,5.7,7.469-2.567-1.971-5.709a22.218,22.218,0,0,0,3.078-2.072l4.57,3.962,5.182-5.948-4.562-3.958a22.065,22.065,0,0,0,1.622-3.337Zm-28.826,1.719c-14.322-3.029-10.17-24.357,4.25-21.815C1977.746,976.08,1973.59,997.4,1959.175,994.862Z" transform="translate(-1218.353 -654.681)" fill="#7689d6"/>
    <g id="_2" data-name="2" transform="translate(460.802 38.198)">
      <path id="Path_95245" data-name="Path 95245" d="M1470.426,313.306s4.177-7.9,16.706-5.462,15.364,18.348,19.569,25.61c8.921,15.384,11.475,31.681,6.727,39.462-5.271,8.641-16.739,5.158-33.513,3.471-17.9-1.8-25.278-17.371-13.969-38.61Z" transform="translate(-1398.217 -307.376)" fill="#662948"/>
      <path id="Path_95246" data-name="Path 95246" d="M1446.914,413c-4.963,7.141-8.373,42.114-8.515,44.83l-25.546-2.084c-1.569-12.821,15.66-38.963,31.222-41.956h0A25.628,25.628,0,0,1,1446.914,413Z" transform="translate(-1369.795 -370.171)" fill="#3a72aa"/>
      <path id="Path_95247" data-name="Path 95247" d="M1311.167,863.029l24.95-.077c-.032-3.978-1.03-12.019-.2-16.552l-10.782,1.3c.284,2.182.908,6.918-2.729,8.021-4.712,1.431-9.825.941-12.785,4.525a1.812,1.812,0,0,0,1.549,2.782Z" transform="translate(-1308.313 -627.834)" fill="#f99370"/>
      <path id="Path_95248" data-name="Path 95248" d="M1336.484,870.147a6.384,6.384,0,0,1-.75,2.4l-25.2.081a1.788,1.788,0,0,1-1.711-2.352c.949-2.7,4.083-6.609,15.692-7.25a34.251,34.251,0,0,0,10.737-.487S1336.89,866.733,1336.484,870.147Z" transform="translate(-1307.954 -637.429)" fill="#1d3f70"/>
      <path id="Path_95249" data-name="Path 95249" d="M1322.31,873.148a.5.5,0,0,1-.466-.316,5.429,5.429,0,0,0-2.668-2.988c-1.322-2.027,2.478-.6,3.613,2.6a.511.511,0,0,1-.479.7Z" transform="translate(-1313.998 -641.212)" fill="#e8c0a6"/>
      <path id="Path_95250" data-name="Path 95250" d="M1331.456,870.633a.507.507,0,0,1-.482-.357,7.04,7.04,0,0,0-3.151-3.848c-1.216-2.372,3.215.158,4.124,3.544a.507.507,0,0,1-.491.661Z" transform="translate(-1319.177 -639.188)" fill="#e8c0a6"/>
      <path id="Path_95251" data-name="Path 95251" d="M1342.639,868.723a.5.5,0,0,1-.478-.341,9.181,9.181,0,0,0-3.191-4.225c-.925-2.486,3.09.519,4.152,3.889a.507.507,0,0,1-.482.677Z" transform="translate(-1325.848 -637.847)" fill="#e8c0a6"/>
      <path id="Path_95252" data-name="Path 95252" d="M1308.913,881.389l27.642-.089a6.386,6.386,0,0,1-.75,2.4l-25.2.081a1.784,1.784,0,0,1-1.7-2.392Z" transform="translate(-1307.997 -648.582)" fill="#395b96"/>
      <path id="Path_95253" data-name="Path 95253" d="M1396.92,613.121c-12.274-.612-33.611-7.526-42.961,7.988-10.234,16.945-8.045,53.074-7.157,70.554-13.515,4.225-20.728-.162-20.728-.162-5.466-35.768-23.741-117.287,39.413-105.5l42.414.328C1414.883,600.786,1408.436,612.967,1396.92,613.121Z" transform="translate(-1314.286 -472.335)" fill="#29dbbe"/>
      <path id="Path_95254" data-name="Path 95254" d="M1384.953,863.613l24.954-.081c-.036-3.978-1.034-12.019-.207-16.552l-10.782,1.3c.284,2.186.993,6.922-2.729,8.021-4.72,1.4-9.825.941-12.785,4.525a1.821,1.821,0,0,0,1.549,2.786Z" transform="translate(-1352.182 -628.179)" fill="#f99370"/>
      <path id="Path_95255" data-name="Path 95255" d="M1410.308,870.806a6.384,6.384,0,0,1-.75,2.4l-25.2.085a1.788,1.788,0,0,1-1.711-2.352c.949-2.7,4.12-6.674,15.733-7.319a31.159,31.159,0,0,0,10.672-.361A18.162,18.162,0,0,1,1410.308,870.806Z" transform="translate(-1351.842 -637.857)" fill="#1d3f70"/>
      <path id="Path_95256" data-name="Path 95256" d="M1396.09,873.722a.5.5,0,0,1-.466-.316,5.411,5.411,0,0,0-2.668-2.984c-1.322-2.027,2.482-.6,3.613,2.6a.511.511,0,0,1-.478.7Z" transform="translate(-1357.861 -641.556)" fill="#e8c0a6"/>
      <path id="Path_95257" data-name="Path 95257" d="M1405.236,871.207a.515.515,0,0,1-.483-.361A7.04,7.04,0,0,0,1401.6,867c-1.217-2.372,3.219.158,4.124,3.544a.515.515,0,0,1-.491.665Z" transform="translate(-1363.041 -639.527)" fill="#e8c0a6"/>
      <path id="Path_95258" data-name="Path 95258" d="M1416.419,869.3a.515.515,0,0,1-.479-.341,9.175,9.175,0,0,0-3.191-4.229c-.925-2.486,3.09.519,4.152,3.889a.511.511,0,0,1-.483.681Z" transform="translate(-1369.711 -638.185)" fill="#e8c0a6"/>
      <path id="Path_95259" data-name="Path 95259" d="M1382.691,881.959l27.642-.089a6.386,6.386,0,0,1-.75,2.4l-25.209.085a1.784,1.784,0,0,1-1.683-2.4Z" transform="translate(-1351.858 -648.921)" fill="#395b96"/>
      <path id="Path_95260" data-name="Path 95260" d="M1402.992,587.7l-3.836,26.357c-15.907,6.111-17.176,22.748-18.77,41.477C1373.266,626.517,1374.134,597.257,1402.992,587.7Z" transform="translate(-1348.337 -474.033)" fill="#158573"/>
      <path id="Path_95261" data-name="Path 95261" d="M1456.238,616.581c-13.543,6.646-29.507-2.222-38.687,15.911-7.416,15.883-3.564,46.371-1.671,60.194-13.515,4.225-20.729-.162-20.729-.162-7.753-30.878-25.456-102.636,26.211-105.588,14.151-.341,32.735-.069,45.244-.726C1466.606,586.19,1472.984,608.366,1456.238,616.581Z" transform="translate(-1353.804 -473.147)" fill="#29dbbe"/>
      <path id="Path_95262" data-name="Path 95262" d="M1442.4,473.361a.406.406,0,0,1-.405-.462c.9-6.987,8.4-15.992,9.371-15.5.657.86-7.964,8.3-8.515,15.579a.405.405,0,0,1-.45.381Z" transform="translate(-1387.177 -396.557)" fill="#23659b"/>
      <path id="Path_95263" data-name="Path 95263" d="M1499.448,475.927c1.034,7.814.458,11.11.458,11.11-20.85,2.433-33.988,2.433-59.326-1.294,16.39-47.746-19.905-17.249,22.877-72.744l10.474,1.026C1485.78,423.048,1493.358,434.957,1499.448,475.927Z" transform="translate(-1386.338 -370.171)" fill="#3a72aa"/>
      <path id="Path_95264" data-name="Path 95264" d="M1146.924,320.036l56.135.438L1192.2,279.334l-55.795-.434Z" transform="translate(-1136.41 -203.973)" fill="#163260"/>
      <rect id="Rectangle_20510" data-name="Rectangle 20510" width="2.79" height="56.135" transform="translate(10.507 118.649) rotate(-89.55)" fill="#234270"/>
      <path id="Path_95265" data-name="Path 95265" d="M1271.93,279.96l2.007.016,10.628,40.934,26.64.207-.02,2.786-28.51-.219.016-2.5Z" transform="translate(-1216.979 -204.603)" fill="#0b274f"/>
      <path id="Path_95266" data-name="Path 95266" d="M1533.8,432.243c12.866,9.776,19.642,27.245,16.1,43.054-1.379,8.884-7.072,17.3-15.891,19.751-4.355,1.7-24.646,4.331-23.644-2.838.332-1.719,1.869-2.34,3.353-2.79,2.433-.839,4.979-1.768,7.3-2.81,4.188-2.125,9.569-4.108,10.514-8.775,2.027-10.9-2.38-21.6-10.5-28.789,0,0-.036-.032.085.057C1510.124,440.778,1522.727,424.027,1533.8,432.243Z" transform="translate(-1427.807 -380.298)" fill="#f99370"/>
      <path id="Path_95267" data-name="Path 95267" d="M1546.979,482.863a47.346,47.346,0,0,1-17.659,3.872s1.164-7.132-3.986-10.113c29.313-21.868-12.234-31.49-3.986-63.892C1552.583,413.529,1584.478,461.027,1546.979,482.863Z" transform="translate(-1433.698 -370.01)" fill="#3a72aa"/>
      <path id="Path_95268" data-name="Path 95268" d="M1479.84,582.987s2.567-8.7,17.484-7.583l3.065,7.741Z" transform="translate(-1409.679 -466.664)" fill="#f99370"/>
      <path id="Path_95269" data-name="Path 95269" d="M1540.249,576.869c-2.133.223-3.463.215-3.463.215s1.164-7.133-3.986-10.113a28.4,28.4,0,0,0,2.956-2.271A13.174,13.174,0,0,1,1540.249,576.869Z" transform="translate(-1441.164 -460.359)" fill="#23659b"/>
      <path id="Path_95270" data-name="Path 95270" d="M1537.6,519.272a.426.426,0,0,1-.272-.746c13.028-11.4,6.784-23.628-.851-31.575-.373-.405.263-.989.628-.572C1545.224,494.606,1551.327,508.141,1537.6,519.272Z" transform="translate(-1443.281 -413.71)" fill="#23659b"/>
      <path id="Path_95271" data-name="Path 95271" d="M1549.916,589.05c-2.409-1.427,6.8-.653,13.835-3.9a.424.424,0,0,1,.316.787A45.924,45.924,0,0,1,1549.916,589.05Z" transform="translate(-1451.107 -472.495)" fill="#23659b"/>
      <path id="Path_95272" data-name="Path 95272" d="M1499.333,425.3a3.171,3.171,0,0,1-3,2.786c-7.489-3.244-2.222,6.893-5.32,7.907-2.607.843-2.891-2.542-5.158-2.745-3.289-.292-3.97,1.488-5.117.405-1.6-1.525,2.319-4.136,1.841-6.849-.336-1.906-4.14-.024-4.055-3.937.089-3.844,4.541-9.565,4.683-9.732h0c4.2-2.177,13.34-.892,13.34-.892a4.7,4.7,0,0,1,2.372.191C1499.467,415.54,1499.954,421.959,1499.333,425.3Z" transform="translate(-1408.898 -369.5)" fill="#f4d4be"/>
      <path id="Path_95273" data-name="Path 95273" d="M1496.691,399.539l-.288,3.722s-.373,3.576-.406,10.226c-.073,9.346,2.25,8.276,5.51,1.772,1.792-3.576,5.442-12.1,5.442-12.1l.543-6.536Z" transform="translate(-1419.284 -360.433)" fill="#f99370"/>
      <path id="Path_95274" data-name="Path 95274" d="M1509.971,368.448a4.785,4.785,0,0,1-.154.523c-.223-.182-1.415,5.835-1.918,10.543a17.656,17.656,0,0,1-10.709,2.08c.292-6.978.965-17.436,6.366-19.325A5.211,5.211,0,0,1,1509.971,368.448Z" transform="translate(-1419.994 -339.888)" fill="#e57d61"/>
      <path id="Path_95275" data-name="Path 95275" d="M1477.791,320.695c-13.527-1.727-15.842,19.577-6.7,27.492Z" transform="translate(-1401.215 -315.235)" fill="#662948"/>
      <path id="Path_95276" data-name="Path 95276" d="M1494.659,337.6c.616,4.663.616,10.137-2.027,14.115h0c-7.214,11.568-30.724,3.889-24.159-9.841a13.728,13.728,0,0,0,1.6-5.7C1470.439,317.15,1492.9,321.306,1494.659,337.6Z" transform="translate(-1402.24 -316.998)" fill="#f99370"/>
      <path id="Path_95277" data-name="Path 95277" d="M1490.456,362.262c-.641-.649.406-1.622,1.022-.969A.7.7,0,0,1,1490.456,362.262Z" transform="translate(-1415.871 -339.302)" fill="#c16256"/>
      <path id="Path_95278" data-name="Path 95278" d="M1475.766,364.061c-.641-.653.406-1.622,1.022-.969S1476.386,364.73,1475.766,364.061Z" transform="translate(-1407.138 -340.371)" fill="#c16256"/>
      <path id="Path_95279" data-name="Path 95279" d="M1481.549,370.336c-1.192.182-2.915-.142-1.776-1.557,1.067-1.066,1.217-3.986,1.217-4.014a.268.268,0,1,1,.535.024c0,.13-.158,3.151-1.37,4.367-.138.138-.28.328-.182.446a2.385,2.385,0,0,0,2.4-.126.263.263,0,0,1,.369.069C1482.927,370.1,1481.967,370.215,1481.549,370.336Z" transform="translate(-1409.417 -341.343)" fill="#c16256"/>
      <path id="Path_95280" data-name="Path 95280" d="M1502.174,337.228c.616,4.663.616,10.137-2.027,14.115h0c1.216-3,.811-8.771.811-8.771l-1.622-2.129c-16.974-.361-19.366-13.154-19.366-13.154C1487.281,317.14,1501.371,326.49,1502.174,337.228Z" transform="translate(-1409.756 -316.623)" fill="#e57d61"/>
      <path id="Path_95281" data-name="Path 95281" d="M1483.18,321.235s2.433,12.6,17.777,13.478l4.152-4.221C1507.108,319.556,1494.148,308.243,1483.18,321.235Z" transform="translate(-1411.665 -312.158)" fill="#662948"/>
      <path id="Path_95282" data-name="Path 95282" d="M1533.61,356.168c.5,5.328-6.245,5.888-6.63.547C1526.478,351.383,1533.229,350.828,1533.61,356.168Z" transform="translate(-1437.689 -334.16)" fill="#f99370"/>
      <path id="Path_95283" data-name="Path 95283" d="M1534.418,356.884h0c-.669-2.117-4.76.105-3.029.2,0-.093,1.821-1.16,2.376-.219-1.784.811-2.4,4.128-1.366,3.065a3.616,3.616,0,0,1,1.622-2.6C1534.693,362.143,1535.35,358.822,1534.418,356.884Z" transform="translate(-1440.073 -336.268)" fill="#c16256"/>
      <path id="Path_95284" data-name="Path 95284" d="M1536.5,368.827a.6.6,0,1,1-.744-.4A.6.6,0,0,1,1536.5,368.827Z" transform="translate(-1442.667 -343.657)" fill="#f4d4be"/>
      <path id="Path_95285" data-name="Path 95285" d="M1492.153,475.6a1.193,1.193,0,0,1-2.384,0A1.193,1.193,0,0,1,1492.153,475.6Z" transform="translate(-1415.581 -406.707)" fill="#23659b"/>
      <path id="Path_95286" data-name="Path 95286" d="M1486.223,496.215a1.193,1.193,0,0,1-2.384,0A1.193,1.193,0,0,1,1486.223,496.215Z" transform="translate(-1412.056 -418.96)" fill="#23659b"/>
      <path id="Path_95287" data-name="Path 95287" d="M1486.079,514.766a1.191,1.191,0,0,1-2.38-.02A1.191,1.191,0,0,1,1486.079,514.766Z" transform="translate(-1411.973 -429.978)" fill="#23659b"/>
      <path id="Path_95288" data-name="Path 95288" d="M1355.115,833.44c.191,3.739.3,6,.3,6-13.515,4.225-20.729-.162-20.729-.162s-.251-1.861-.811-5.1C1334.042,834.259,1342.444,838.464,1355.115,833.44Z" transform="translate(-1322.904 -620.129)" fill="#158573"/>
      <path id="Path_95289" data-name="Path 95289" d="M1427.778,841.624c-13.515,4.225-20.728-.162-20.728-.162s-.438-1.735-1.18-4.732c0,0,7.4,3.917,21.239.166C1427.494,839.856,1427.778,841.624,1427.778,841.624Z" transform="translate(-1365.703 -622.085)" fill="#158573"/>
      <path id="Path_95290" data-name="Path 95290" d="M1481.182,586.57c-2.656.061,7.051-6.488,9.918-4.833a.406.406,0,0,1-.381.462C1485.3,582.722,1481.649,586.55,1481.182,586.57Z" transform="translate(-1410.206 -470.328)" fill="#e57d61"/>
      <path id="Path_95291" data-name="Path 95291" d="M1491.351,589.934c-2.027-.876,4.258-2.3,7.36-3.106a.414.414,0,0,1,.166.811A73.35,73.35,0,0,0,1491.351,589.934Z" transform="translate(-1416.288 -473.509)" fill="#e57d61"/>
      <path id="Path_95292" data-name="Path 95292" d="M1490.626,356.279a.309.309,0,0,1-.187-.069,3.858,3.858,0,0,0-3.292-.9.3.3,0,0,1-.17-.58,4.459,4.459,0,0,1,3.84,1.006.3.3,0,0,1,.044.405.292.292,0,0,1-.235.134Z" transform="translate(-1413.812 -335.472)" fill="#c16256"/>
      <path id="Path_95293" data-name="Path 95293" d="M1485.7,380.838a.32.32,0,0,1,.166-.1,3.868,3.868,0,0,0,2.806-1.942.3.3,0,0,1,.552.239,4.461,4.461,0,0,1-3.244,2.3.3.3,0,0,1-.357-.235.288.288,0,0,1,.077-.256Z" transform="translate(-1413.114 -349.728)" fill="#c16256"/>
      <path id="Path_95294" data-name="Path 95294" d="M1473.94,357.66a.324.324,0,0,1-.17-.053.3.3,0,0,1-.077-.406,3.192,3.192,0,0,1,2.559-1.346.3.3,0,0,1-.028.6,2.617,2.617,0,0,0-2.027,1.087A.3.3,0,0,1,1473.94,357.66Z" transform="translate(-1405.997 -336.196)" fill="#c16256"/>
    </g>
    <g id="_1" data-name="1" transform="translate(104.38 308.14)">
      <path id="Path_95295" data-name="Path 95295" d="M805.51,1173.816a8.593,8.593,0,0,0,5.738-1.281l-3.191-1.265Z" transform="translate(-652.357 -1090.916)" fill="#f99370"/>
      <path id="Path_95296" data-name="Path 95296" d="M482.179,1621.659l-.442-.231c0,.308-.385,1.387-.693,1.387l-13.121.268c-.312,0-.5-.584-.5-.892l-1.119-.32a6.7,6.7,0,0,1,1.03-4.189c3.191-4.229-.616-23.145-.507-28.088-.787-1.35,13.815-.292,14.022-.608a.564.564,0,0,1,.56.6l-1.719,21.616C478.915,1615.309,482.069,1617.791,482.179,1621.659Z" transform="translate(-450.692 -1339.195)" fill="#f99370"/>
      <path id="Path_95297" data-name="Path 95297" d="M622.157,1623.377H596.023c-2.279-.089-2.263-2.413-1.841-4.213,1.439-6.488-1.107-21.385-1.577-28.06a2.076,2.076,0,0,1,2.068-2.283c19.281-.2,12.716-2.838,11.581,17.922-.576,10.571,7.445,9.732,12.383,10.543C621.893,1617.505,627.335,1621.933,622.157,1623.377Z" transform="translate(-525.776 -1339.031)" fill="#f99370"/>
      <path id="Path_95298" data-name="Path 95298" d="M593.957,1655.843c.073,1.277.706,2.737,2.19,2.7h27.111c6.395-2.364-2.794-10.826-15.307-10.778-5.738,1.573-12.57.487-12.57.487S593.531,1650.6,593.957,1655.843Z" transform="translate(-526.548 -1374.202)" fill="#103663"/>
      <path id="Path_95299" data-name="Path 95299" d="M467.54,1658.11h11.585c5.648-.766,1.622-10.766-5.79-11.07S461.9,1657.352,467.54,1658.11Z" transform="translate(-449.852 -1373.765)" fill="#103663"/>
      <path id="Path_95300" data-name="Path 95300" d="M649.551,1658.279a.584.584,0,0,0,.535-.361,6.1,6.1,0,0,1,3-3.382c1.464-2.307-2.794-.665-4.055,2.952a.58.58,0,0,0,.519.791Z" transform="translate(-559.305 -1377.591)" fill="#e8c0a6"/>
      <path id="Path_95301" data-name="Path 95301" d="M638.49,1655.481a.576.576,0,0,0,.551-.406,7.923,7.923,0,0,1,3.54-4.355c1.326-2.684-3.621.187-4.639,4.014a.576.576,0,0,0,.547.746Z" transform="translate(-552.72 -1375.332)" fill="#e8c0a6"/>
      <path id="Path_95302" data-name="Path 95302" d="M626.056,1653.288a.572.572,0,0,0,.543-.405,10.386,10.386,0,0,1,3.584-4.781C631.656,1644.181,623.542,1652.226,626.056,1653.288Z" transform="translate(-545.38 -1373.764)" fill="#e8c0a6"/>
      <path id="Path_95303" data-name="Path 95303" d="M474.644,1653.114c3.22-1.946,8.154-.191,8.175-.049,3.361-.726-4.586-3.556-8.467-1.022a.58.58,0,0,0,.292,1.071Z" transform="translate(-455.318 -1376.128)" fill="#e8c0a6"/>
      <path id="Path_95304" data-name="Path 95304" d="M625.252,1667.68h-31.2a7.137,7.137,0,0,0,.856,2.7H623.35a2.027,2.027,0,0,0,1.9-2.7Z" transform="translate(-526.641 -1386.039)" fill="#0f2e54"/>
      <path id="Path_95305" data-name="Path 95305" d="M467.655,1670.385H479.24a2.563,2.563,0,0,0,2.571-2.7H465.084a2.563,2.563,0,0,0,2.571,2.7Z" transform="translate(-449.967 -1386.039)" fill="#0f2e54"/>
      <path id="Path_95306" data-name="Path 95306" d="M617.025,1126.887c25.509,19.427,57.137,11.467,75.238-2.048l1.683-7.635c-41.765,3.244-51.943-17.318-78.615-26.644l2.323,8.418S616.737,1126.263,617.025,1126.887Z" transform="translate(-539.292 -1042.933)" fill="#158573"/>
      <path id="Path_95307" data-name="Path 95307" d="M530.816,1374.921c-9.833,3.678-20.732.876-20.732.876q.207-2,.373-4.055c3.714-45.909-8.718-110.608-10-115.32h0c-.061-.223-.1-.312-.1-.239-8.162,53.2-16.248,97.316-20.039,117.919-9.687,4.521-19.52-1.946-19.52-1.946-.057-1.861-.109-3.686-.15-5.5-2.234-35.748,2.875-145.435,21.385-166.857,21.47,10.628,50.994,12.286,50.994,12.286C537.969,1305.6,537.726,1350.292,530.816,1374.921Z" transform="translate(-447.042 -1107.877)" fill="#1d3f70"/>
      <path id="Path_95308" data-name="Path 95308" d="M589.165,1056.055c1.216-6.455,4.2-18.072-.673-20.935-3.426-1.873-8.26.495-7.83,4.777.365-.15-.547,11.7-1.825,14.817C568.745,1055.97,596.042,1070.283,589.165,1056.055Z" transform="translate(-516.25 -1009.587)" fill="#f99370"/>
      <path id="Path_95309" data-name="Path 95309" d="M585.261,1039.2v.547c.264-.118-.154,6.435-.941,11.11a17.632,17.632,0,0,0,9.93,2.6c1.322-6.869,3.5-15.331-1.16-18.486A5.2,5.2,0,0,0,585.261,1039.2Z" transform="translate(-520.857 -1009.44)" fill="#e57d61"/>
      <path id="Path_95310" data-name="Path 95310" d="M615.11,1434.745c12.136-56.492-.211-130.651-2.068-131.195C612.094,1303.992,622.88,1378.52,615.11,1434.745Z" transform="translate(-537.897 -1169.558)" fill="#163356"/>
      <path id="Path_95311" data-name="Path 95311" d="M486.72,1429.146l.856-.381c9.472-60.117,19.869-132.079,18.543-133.1C504.7,1295.859,493.552,1367.613,486.72,1429.146Z" transform="translate(-462.832 -1164.868)" fill="#163356"/>
      <path id="Path_95312" data-name="Path 95312" d="M484.016,1162.538c14.293,10.79,49.319,14.151,63.592,9,4.809-2.027,5.482-18.2,4.923-34.061-.856-21.162-5.957-36.364-15.745-50.5a17.284,17.284,0,0,0-3.118-1.156c.049,1.934-.405,7.522-10.332-1.346-.041.036-3.743.158-3.743.158-15.035,7.493-21.466,23.425-26.158,41.583C486.238,1154.023,481.182,1158.317,484.016,1162.538Z" transform="translate(-460.748 -1039.312)" fill="#29dbbe"/>
      <path id="Path_95313" data-name="Path 95313" d="M573.507,1454.222l-3.982.568c3.714-45.909-8.718-110.608-10-115.32.779,1.9,5.847,14.861,9.622,38.959C573.256,1404.595,574.533,1440.955,573.507,1454.222Z" transform="translate(-506.118 -1190.913)" fill="#163356"/>
      <path id="Path_95314" data-name="Path 95314" d="M572.93,1084.325c3.268,5.567,17.789,14.277,17.193,2.344a8.444,8.444,0,0,0-3.114-1.156c.02.316.588,8.515-10.336-1.35A8.018,8.018,0,0,0,572.93,1084.325Z" transform="translate(-514.085 -1039.041)" fill="#ce3932"/>
      <path id="Path_95315" data-name="Path 95315" d="M583.28,1624.33s10.9,2.806,20.732-.872l1.285-5.158s-12.3,4.262-21.442-.45Q583.572,1621.11,583.28,1624.33Z" transform="translate(-520.238 -1356.414)" fill="#163356"/>
      <path id="Path_95316" data-name="Path 95316" d="M461.37,1611.31c.041,1.813.093,3.649.15,5.5,0,0,9.829,6.488,19.52,1.946,0,0,.32-1.691.888-4.793A28.62,28.62,0,0,1,461.37,1611.31Z" transform="translate(-447.761 -1352.526)" fill="#163356"/>
      <path id="Path_95317" data-name="Path 95317" d="M589.978,1126.171a23.847,23.847,0,0,0,7.185-.9l-.56-1.622c-.053,0-5.466,1.8-14.6-.032l-.337,1.687A42.585,42.585,0,0,0,589.978,1126.171Z" transform="translate(-519.281 -1062.587)" fill="#ce3932"/>
      <path id="Path_95318" data-name="Path 95318" d="M589.2,1141.86a26.559,26.559,0,0,0,9.176-1.383l-.641-1.6c-.061.024-6.224,2.4-15.814.539l-.328,1.691A39.826,39.826,0,0,0,589.2,1141.86Z" transform="translate(-519.233 -1071.66)" fill="#ce3932"/>
      <path id="Path_95319" data-name="Path 95319" d="M590.1,1157.87a24.209,24.209,0,0,0,8.706-1.5l-.669-1.585a24.767,24.767,0,0,1-16.264,0l-.568,1.622A26.678,26.678,0,0,0,590.1,1157.87Z" transform="translate(-519.067 -1081.112)" fill="#ce3932"/>
      <path id="Path_95320" data-name="Path 95320" d="M623.059,1011.748s-.381-5.49-2.3-9.188l-3.07,1.7Z" transform="translate(-540.695 -990.615)" fill="#8e4a35"/>
      <path id="Path_95321" data-name="Path 95321" d="M594.613,1022.241a15.569,15.569,0,0,1-18.06,3.272h0a11.353,11.353,0,0,1-1.216-.783h0c-18.506-16.747,3.868-46.894,16.082-22.233C595.461,1009.411,602.074,1012.886,594.613,1022.241Z" transform="translate(-511.321 -985.03)" fill="#f99370"/>
      <path id="Path_95322" data-name="Path 95322" d="M610.72,1029.074a.7.7,0,1,0-.392.373A.706.706,0,0,0,610.72,1029.074Z" transform="translate(-535.749 -1005.788)" fill="#c16256"/>
      <path id="Path_95323" data-name="Path 95323" d="M625.223,1025.881a.7.7,0,1,0-.926.354.7.7,0,0,0,.926-.354Z" transform="translate(-544.376 -1003.892)" fill="#c16256"/>
      <path id="Path_95324" data-name="Path 95324" d="M620.684,1034.354a2.811,2.811,0,0,1-1.216-.024.268.268,0,1,1,.138-.515,2.4,2.4,0,0,0,2.307-.685c.053-.146-.146-.276-.324-.361-1.553-.738-2.717-3.54-2.765-3.649a.272.272,0,0,1,.146-.349.268.268,0,0,1,.349.146c0,.028,1.131,2.729,2.5,3.382.746.353.665.835.592,1.022A2.214,2.214,0,0,1,620.684,1034.354Z" transform="translate(-541.358 -1006.186)" fill="#c16256"/>
      <path id="Path_95325" data-name="Path 95325" d="M590.617,1000.632c-3.929-1.812-10.766.381-14.192.531,0,0,1.026,5.77-4.635,10.214-.219,5.369-.977,7.745,4.866,13.973h0a11.353,11.353,0,0,1-1.216-.783h0C557.631,1008.6,578.185,978.711,590.617,1000.632Z" transform="translate(-511.441 -984.859)" fill="#e57d61"/>
      <path id="Path_95326" data-name="Path 95326" d="M587.819,977.144c-2.433-4.2-9.05-6.212-14.395-.584-4.112,4.335-8.787,4.545-8.466,8.868-8.479,4.383-3.67,13.7-3.67,13.7l4.327-.742a13.306,13.306,0,0,0,4.3-10.161h0a11.513,11.513,0,0,0,3.3-.43c3.163-.981,7.879-1.622,11.56-.487S590.528,981.839,587.819,977.144Z" transform="translate(-506.356 -973.102)" fill="#8e4a35"/>
      <path id="Path_95327" data-name="Path 95327" d="M561.95,1038.731c.588,2.2,2.506,3.609,4.286,3.138s2.749-2.64,2.161-4.866-2.506-3.609-4.286-3.138S561.366,1036.526,561.95,1038.731Z" transform="translate(-507.456 -1009.172)" fill="#f99370"/>
      <path id="Path_95328" data-name="Path 95328" d="M567.8,1037.894c-.073-.024-1.756-.576-2.636.333a1.67,1.67,0,0,0-.438.9h0l-.024.1h0a5.815,5.815,0,0,0,.45,2.668.272.272,0,0,0,.3.174h.049a.268.268,0,0,0,.158-.345,5.936,5.936,0,0,1-.442-2.182,3.661,3.661,0,0,1,2.433,1.894.276.276,0,0,0,.284.146l.073-.024a.264.264,0,0,0,.122-.357,4.118,4.118,0,0,0-2.8-2.2,1.111,1.111,0,0,1,.231-.405c.649-.665,2.072-.2,2.084-.2a.265.265,0,0,0,.17-.5Z" transform="translate(-509.184 -1011.51)" fill="#c16256"/>
      <path id="Path_95329" data-name="Path 95329" d="M603.1,1023.532a.312.312,0,0,1-.17,0,.316.316,0,0,1-.17-.405,5.588,5.588,0,0,1,3.889-3.033.312.312,0,0,1,.138.608,4.963,4.963,0,0,0-3.447,2.668A.312.312,0,0,1,603.1,1023.532Z" transform="translate(-531.805 -1001.036)" fill="#c16256"/>
      <path id="Path_95330" data-name="Path 95330" d="M622.768,1019.815a.325.325,0,0,1-.272-.089,3.745,3.745,0,0,0-2.583-.669.312.312,0,1,1-.065-.62,4.314,4.314,0,0,1,3.09.847.312.312,0,0,1,0,.442.332.332,0,0,1-.17.089Z" transform="translate(-541.804 -1000.044)" fill="#c16256"/>
      <path id="Path_95331" data-name="Path 95331" d="M617.556,1045.8l-6.743-3.049s-.227,3.6,2.433,4.46A4.235,4.235,0,0,0,617.556,1045.8Z" transform="translate(-536.604 -1014.509)" fill="#f9f8f3"/>
      <path id="Path_95332" data-name="Path 95332" d="M617.15,1045.615a.34.34,0,0,1-.178-.024l-6.743-3.049a.313.313,0,0,1,.255-.572l6.747,3.049a.308.308,0,0,1,.154.406A.316.316,0,0,1,617.15,1045.615Z" transform="translate(-536.149 -1014.029)" fill="#c16256"/>
      <path id="Path_95333" data-name="Path 95333" d="M932.88,1025.664l-1.026-1.622L911.5,1036.774a3.045,3.045,0,0,1-1.33,3.292,3.106,3.106,0,0,1-4.2-.916,3.049,3.049,0,0,1,4.5-4.006l20.359-12.732-1.026-1.622-26.535,5.024a10.138,10.138,0,0,0-6.192,3.832l-8,10.543,4.27,6.792,4.27,6.8,13.008-2.583a10.138,10.138,0,0,0,6.159-3.889Z" transform="translate(-702.041 -1001.453)" fill="#fff"/>
      <path id="Path_95334" data-name="Path 95334" d="M439.541,1189.54l-.843-1.342a10.636,10.636,0,0,1,3.378-14.687l174.594-109.2,12.189,19.394-174.6,109.2A10.693,10.693,0,0,1,439.541,1189.54Z" transform="translate(-433.312 -1027.327)" fill="#3a72aa"/>
      <path id="Path_95335" data-name="Path 95335" d="M883.14,1082.116l-8.88-14.135a3.771,3.771,0,0,1,1.216-5.207h0a3.8,3.8,0,0,1,5.219,1.192l8.88,14.135a3.771,3.771,0,0,1-1.2,5.206h0a3.792,3.792,0,0,1-5.239-1.192Z" transform="translate(-692.89 -1026.071)" fill="#255084"/>
      <path id="Path_95336" data-name="Path 95336" d="M506.853,1279.5l-2.433,1.525a17.22,17.22,0,0,0,3.88,3.029,41.291,41.291,0,0,0,5.385,2.287c2.688,3.418-7.526-.182-8.771-.341v.045a60.627,60.627,0,0,0,7.611,4.894c1.963,4.193-8.162-2.356-9.326-2.9h0a35.281,35.281,0,0,0,6.626,5.539c1.622,4.416-8.11-3.037-9.054-3.966h-.032a36.53,36.53,0,0,0,4.46,5.271c.937,4.391-6.524-3.374-7.3-4.318a23.022,23.022,0,0,1-7.3-8.11c-.811-1.512,3.147-5.3,4.866-5.134,0,0,4.513.312,5.271.47A40.087,40.087,0,0,1,506.853,1279.5Z" transform="translate(-465.075 -1153.962)" fill="#f99370"/>
      <path id="Path_95337" data-name="Path 95337" d="M812.128,1169.656c2.392,2.482,5.214-.929,1.545-1.808l.041.041C812.4,1166.566,810.863,1168.447,812.128,1169.656Z" transform="translate(-656.011 -1088.636)" fill="#f99370"/>
      <path id="Path_95338" data-name="Path 95338" d="M816.856,1166.631c3.224,2.287,4.8-2.25,1.379-2.048.073,0-.312-.118-.243-.1C816.422,1163.44,815.453,1165.751,816.856,1166.631Z" transform="translate(-658.699 -1086.723)" fill="#f99370"/>
      <path id="Path_95339" data-name="Path 95339" d="M821.694,1163.665l1.253.405c1.772.507,1.861-2.149.373-2.526l-1.253-.406C820.3,1160.64,820.206,1163.284,821.694,1163.665Z" transform="translate(-661.36 -1084.855)" fill="#f99370"/>
      <path id="Path_95340" data-name="Path 95340" d="M825.984,1160.582l1.253.406c1.772.507,1.861-2.149.373-2.526l-1.253-.406C824.589,1157.549,824.5,1160.205,825.984,1160.582Z" transform="translate(-663.911 -1083.022)" fill="#f99370"/>
      <path id="Path_95341" data-name="Path 95341" d="M486.652,1084.688s-23.68-2.214-44.774,19.674c-15.664,16.248-25.651,43.9,11.4,63.71,0,0,1.245-3.978,4.9-5.271,0,0-6.678-15.656-4.833-24.066,2.027-9.3,13.523-18.194,22.342-29.138C483.392,1100.052,486.652,1084.688,486.652,1084.688Z" transform="translate(-427.807 -1039.404)" fill="#158573"/>
    </g>
  </g>
</svg>
